  0
SECTION
  2
HEADER
  9
$ACADVER
  1
AC1027
  9
$ACADMAINTVER
 70
105
  9
$DWGCODEPAGE
  3
ANSI_1252
  9
$LASTSAVEDBY
  1
ezdxf
  9
$REQUIREDVERSIONS
160
0
  9
$INSBASE
 10
0.0
 20
0.0
 30
0.0
  9
$EXTMIN
 10
1e+20
 20
1e+20
 30
1e+20
  9
$EXTMAX
 10
-1e+20
 20
-1e+20
 30
-1e+20
  9
$LIMMIN
 10
0.0
 20
0.0
  9
$LIMMAX
 10
420.0
 20
297.0
  9
$ORTHOMODE
 70
0
  9
$REGENMODE
 70
1
  9
$FILLMODE
 70
1
  9
$QTEXTMODE
 70
0
  9
$MIRRTEXT
 70
1
  9
$LTSCALE
 40
1.0
  9
$ATTMODE
 70
1
  9
$TEXTSIZE
 40
2.5
  9
$TRACEWID
 40
1.0
  9
$TEXTSTYLE
  7
OpenSans
  9
$CLAYER
  8
0
  9
$CELTYPE
  6
ByLayer
  9
$CECOLOR
 62
256
  9
$CELTSCALE
 40
1.0
  9
$DISPSILH
 70
0
  9
$DIMSCALE
 40
1.0
  9
$DIMASZ
 40
0.175
  9
$DIMEXO
 40
0.125
  9
$DIMDLI
 40
3.75
  9
$DIMRND
 40
0.0
  9
$DIMDLE
 40
0.0
  9
$DIMEXE
 40
0.375
  9
$DIMTP
 40
0.0
  9
$DIMTM
 40
0.0
  9
$DIMTXT
 40
0.25
  9
$DIMCEN
 40
2.5
  9
$DIMTSZ
 40
0.0
  9
$DIMTOL
 70
0
  9
$DIMLIM
 70
0
  9
$DIMTIH
 70
0
  9
$DIMTOH
 70
0
  9
$DIMSE1
 70
0
  9
$DIMSE2
 70
0
  9
$DIMTAD
 70
1
  9
$DIMZIN
 70
12
  9
$DIMBLK
  1
ARCHTICK
  9
$DIMASO
 70
1
  9
$DIMSHO
 70
1
  9
$DIMPOST
  1

  9
$DIMAPOST
  1

  9
$DIMALT
 70
0
  9
$DIMALTD
 70
3
  9
$DIMALTF
 40
0.03937007874
  9
$DIMLFAC
 40
100.0
  9
$DIMTOFL
 70
1
  9
$DIMTVP
 40
0.0
  9
$DIMTIX
 70
0
  9
$DIMSOXD
 70
0
  9
$DIMSAH
 70
0
  9
$DIMBLK1
  1

  9
$DIMBLK2
  1

  9
$DIMSTYLE
  2
EZDXF
  9
$DIMCLRD
 70
0
  9
$DIMCLRE
 70
0
  9
$DIMCLRT
 70
0
  9
$DIMTFAC
 40
0.5
  9
$DIMGAP
 40
0.1
  9
$DIMJUST
 70
0
  9
$DIMSD1
 70
0
  9
$DIMSD2
 70
0
  9
$DIMTOLJ
 70
0
  9
$DIMTZIN
 70
8
  9
$DIMALTZ
 70
0
  9
$DIMALTTZ
 70
0
  9
$DIMUPT
 70
1
  9
$DIMDEC
 70
2
  9
$DIMTDEC
 70
2
  9
$DIMALTU
 70
2
  9
$DIMALTTD
 70
3
  9
$DIMTXSTY
  7
OpenSansCondensed-Light
  9
$DIMAUNIT
 70
0
  9
$DIMADEC
 70
2
  9
$DIMALTRND
 40
0.0
  9
$DIMAZIN
 70
3
  9
$DIMDSEP
 70
46
  9
$DIMATFIT
 70
3
  9
$DIMFRAC
 70
0
  9
$DIMLDRBLK
  1

  9
$DIMLUNIT
 70
2
  9
$DIMLWD
 70
-2
  9
$DIMLWE
 70
-2
  9
$DIMTMOVE
 70
2
  9
$DIMFXL
 40
1.0
  9
$DIMFXLON
 70
0
  9
$DIMJOGANG
 40
0.785398163397
  9
$DIMTFILL
 70
0
  9
$DIMTFILLCLR
 70
0
  9
$DIMARCSYM
 70
0
  9
$DIMLTYPE
  6

  9
$DIMLTEX1
  6

  9
$DIMLTEX2
  6

  9
$DIMTXTDIRECTION
 70
0
  9
$LUNITS
 70
2
  9
$LUPREC
 70
4
  9
$SKETCHINC
 40
1.0
  9
$FILLETRAD
 40
10.0
  9
$AUNITS
 70
0
  9
$AUPREC
 70
2
  9
$MENU
  1
.
  9
$ELEVATION
 40
0.0
  9
$PELEVATION
 40
0.0
  9
$THICKNESS
 40
0.0
  9
$LIMCHECK
 70
0
  9
$CHAMFERA
 40
0.0
  9
$CHAMFERB
 40
0.0
  9
$CHAMFERC
 40
0.0
  9
$CHAMFERD
 40
0.0
  9
$SKPOLY
 70
0
  9
$TDCREATE
 40
2461053.565462963
  9
$TDUCREATE
 40
2458532.153996898
  9
$TDUPDATE
 40
2461053.565462963
  9
$TDUUPDATE
 40
2458532.1544311
  9
$TDINDWG
 40
0.0
  9
$TDUSRTIMER
 40
0.0
  9
$USRTIMER
 70
1
  9
$ANGBASE
 50
0.0
  9
$ANGDIR
 70
0
  9
$PDMODE
 70
0
  9
$PDSIZE
 40
0.0
  9
$PLINEWID
 40
0.0
  9
$SPLFRAME
 70
0
  9
$SPLINETYPE
 70
6
  9
$SPLINESEGS
 70
8
  9
$HANDSEED
  5
15D
  9
$SURFTAB1
 70
6
  9
$SURFTAB2
 70
6
  9
$SURFTYPE
 70
6
  9
$SURFU
 70
6
  9
$SURFV
 70
6
  9
$UCSBASE
  2

  9
$UCSNAME
  2

  9
$UCSORG
 10
0.0
 20
0.0
 30
0.0
  9
$UCSXDIR
 10
1.0
 20
0.0
 30
0.0
  9
$UCSYDIR
 10
0.0
 20
1.0
 30
0.0
  9
$UCSORTHOREF
  2

  9
$UCSORTHOVIEW
 70
0
  9
$UCSORGTOP
 10
0.0
 20
0.0
 30
0.0
  9
$UCSORGBOTTOM
 10
0.0
 20
0.0
 30
0.0
  9
$UCSORGLEFT
 10
0.0
 20
0.0
 30
0.0
  9
$UCSORGRIGHT
 10
0.0
 20
0.0
 30
0.0
  9
$UCSORGFRONT
 10
0.0
 20
0.0
 30
0.0
  9
$UCSORGBACK
 10
0.0
 20
0.0
 30
0.0
  9
$PUCSBASE
  2

  9
$PUCSNAME
  2

  9
$PUCSORG
 10
0.0
 20
0.0
 30
0.0
  9
$PUCSXDIR
 10
1.0
 20
0.0
 30
0.0
  9
$PUCSYDIR
 10
0.0
 20
1.0
 30
0.0
  9
$PUCSORTHOREF
  2

  9
$PUCSORTHOVIEW
 70
0
  9
$PUCSORGTOP
 10
0.0
 20
0.0
 30
0.0
  9
$PUCSORGBOTTOM
 10
0.0
 20
0.0
 30
0.0
  9
$PUCSORGLEFT
 10
0.0
 20
0.0
 30
0.0
  9
$PUCSORGRIGHT
 10
0.0
 20
0.0
 30
0.0
  9
$PUCSORGFRONT
 10
0.0
 20
0.0
 30
0.0
  9
$PUCSORGBACK
 10
0.0
 20
0.0
 30
0.0
  9
$USERI1
 70
0
  9
$USERI2
 70
0
  9
$USERI3
 70
0
  9
$USERI4
 70
0
  9
$USERI5
 70
0
  9
$USERR1
 40
0.0
  9
$USERR2
 40
0.0
  9
$USERR3
 40
0.0
  9
$USERR4
 40
0.0
  9
$USERR5
 40
0.0
  9
$WORLDVIEW
 70
1
  9
$SHADEDGE
 70
3
  9
$SHADEDIF
 70
70
  9
$TILEMODE
 70
1
  9
$MAXACTVP
 70
64
  9
$PINSBASE
 10
0.0
 20
0.0
 30
0.0
  9
$PLIMCHECK
 70
0
  9
$PEXTMIN
 10
1e+20
 20
1e+20
 30
1e+20
  9
$PEXTMAX
 10
-1e+20
 20
-1e+20
 30
-1e+20
  9
$PLIMMIN
 10
0.0
 20
0.0
  9
$PLIMMAX
 10
420.0
 20
297.0
  9
$UNITMODE
 70
0
  9
$VISRETAIN
 70
1
  9
$PLINEGEN
 70
0
  9
$PSLTSCALE
 70
1
  9
$TREEDEPTH
 70
3020
  9
$CMLSTYLE
  2
Standard
  9
$CMLJUST
 70
0
  9
$CMLSCALE
 40
20.0
  9
$PROXYGRAPHICS
 70
1
  9
$MEASUREMENT
 70
1
  9
$CELWEIGHT
370
-1
  9
$ENDCAPS
280
0
  9
$JOINSTYLE
280
0
  9
$LWDISPLAY
290
0
  9
$INSUNITS
 70
4
  9
$HYPERLINKBASE
  1

  9
$STYLESHEET
  1

  9
$XEDIT
290
1
  9
$CEPSNTYPE
380
0
  9
$PSTYLEMODE
290
1
  9
$FINGERPRINTGUID
  2
{749AE728-514F-4F3B-87BE-EC98AEAB068A}
  9
$VERSIONGUID
  2
{74501895-E3B2-4F96-922E-E85016DF52B1}
  9
$EXTNAMES
290
1
  9
$PSVPSCALE
 40
0.0
  9
$OLESTARTUP
290
0
  9
$SORTENTS
280
127
  9
$INDEXCTL
280
0
  9
$HIDETEXT
280
1
  9
$XCLIPFRAME
280
1
  9
$HALOGAP
280
0
  9
$OBSCOLOR
 70
257
  9
$OBSLTYPE
280
0
  9
$INTERSECTIONDISPLAY
280
0
  9
$INTERSECTIONCOLOR
 70
257
  9
$DIMASSOC
280
2
  9
$PROJECTNAME
  1

  9
$CAMERADISPLAY
290
0
  9
$LENSLENGTH
 40
50.0
  9
$CAMERAHEIGHT
 40
0.0
  9
$STEPSPERSEC
 40
24.0
  9
$STEPSIZE
 40
100.0
  9
$3DDWFPREC
 40
2.0
  9
$PSOLWIDTH
 40
0.005
  9
$PSOLHEIGHT
 40
0.08
  9
$LOFTANG1
 40
1.570796326795
  9
$LOFTANG2
 40
1.570796326795
  9
$LOFTMAG1
 40
0.0
  9
$LOFTMAG2
 40
0.0
  9
$LOFTPARAM
 70
7
  9
$LOFTNORMALS
280
1
  9
$LATITUDE
 40
37.795
  9
$LONGITUDE
 40
-122.394
  9
$NORTHDIRECTION
 40
0.0
  9
$TIMEZONE
 70
-8000
  9
$LIGHTGLYPHDISPLAY
280
1
  9
$TILEMODELIGHTSYNCH
280
1
  9
$CMATERIAL
347
20
  9
$SOLIDHIST
280
0
  9
$SHOWHIST
280
1
  9
$DWFFRAME
280
2
  9
$DGNFRAME
280
2
  9
$REALWORLDSCALE
290
1
  9
$INTERFERECOLOR
 62
256
  9
$CSHADOW
280
0
  9
$SHADOWPLANELOCATION
 40
0.0
  0
ENDSEC
  0
SECTION
  2
CLASSES
  0
CLASS
  1
ACDBDICTIONARYWDFLT
  2
AcDbDictionaryWithDefault
  3
ObjectDBX Classes
 90
0
 91
0
280
0
281
0
  0
CLASS
  1
SUN
  2
AcDbSun
  3
SCENEOE
 90
1153
 91
0
280
0
281
0
  0
CLASS
  1
VISUALSTYLE
  2
AcDbVisualStyle
  3
ObjectDBX Classes
 90
4095
 91
0
280
0
281
0
  0
CLASS
  1
MATERIAL
  2
AcDbMaterial
  3
ObjectDBX Classes
 90
1153
 91
0
280
0
281
0
  0
CLASS
  1
SCALE
  2
AcDbScale
  3
ObjectDBX Classes
 90
1153
 91
0
280
0
281
0
  0
CLASS
  1
TABLESTYLE
  2
AcDbTableStyle
  3
ObjectDBX Classes
 90
4095
 91
0
280
0
281
0
  0
CLASS
  1
MLEADERSTYLE
  2
AcDbMLeaderStyle
  3
ACDB_MLEADERSTYLE_CLASS
 90
4095
 91
0
280
0
281
0
  0
CLASS
  1
DICTIONARYVAR
  2
AcDbDictionaryVar
  3
ObjectDBX Classes
 90
0
 91
0
280
0
281
0
  0
CLASS
  1
CELLSTYLEMAP
  2
AcDbCellStyleMap
  3
ObjectDBX Classes
 90
1152
 91
0
280
0
281
0
  0
CLASS
  1
MENTALRAYRENDERSETTINGS
  2
AcDbMentalRayRenderSettings
  3
SCENEOE
 90
1024
 91
0
280
0
281
0
  0
CLASS
  1
ACDBDETAILVIEWSTYLE
  2
AcDbDetailViewStyle
  3
ObjectDBX Classes
 90
1025
 91
0
280
0
281
0
  0
CLASS
  1
ACDBSECTIONVIEWSTYLE
  2
AcDbSectionViewStyle
  3
ObjectDBX Classes
 90
1025
 91
0
280
0
281
0
  0
CLASS
  1
RASTERVARIABLES
  2
AcDbRasterVariables
  3
ISM
 90
0
 91
0
280
0
281
0
  0
CLASS
  1
LAYOUT
  2
AcDbLayout
  3
ObjectDBX Classes
 90
0
 91
0
280
0
281
0
  0
CLASS
  1
ACDBPLACEHOLDER
  2
AcDbPlaceHolder
  3
ObjectDBX Classes
 90
0
 91
0
280
0
281
0
  0
ENDSEC
  0
SECTION
  2
TABLES
  0
TABLE
  2
VPORT
  5
8
330
0
100
AcDbSymbolTable
 70
1
  0
VPORT
  5
23
330
8
100
AcDbSymbolTableRecord
100
AcDbViewportTableRecord
  2
*Active
 70
0
 10
0.0
 20
0.0
 11
1.0
 21
1.0
 12
0.0
 22
0.0
 13
0.0
 23
0.0
 14
0.5
 24
0.5
 15
0.5
 25
0.5
 16
0.0
 26
0.0
 36
1.0
 17
0.0
 27
0.0
 37
0.0
 40
1000.0
 41
1.34
 42
50.0
 43
0.0
 44
0.0
 50
0.0
 51
0.0
 71
0
 72
1000
 73
1
 74
3
 75
0
 76
0
 77
0
 78
0
281
0
 65
0
146
0.0
  0
ENDTAB
  0
TABLE
  2
LTYPE
  5
2
330
0
100
AcDbSymbolTable
 70
21
  0
LTYPE
  5
24
330
2
100
AcDbSymbolTableRecord
100
AcDbLinetypeTableRecord
  2
ByBlock
 70
0
  3

 72
65
 73
0
 40
0.0
  0
LTYPE
  5
25
330
2
100
AcDbSymbolTableRecord
100
AcDbLinetypeTableRecord
  2
ByLayer
 70
0
  3

 72
65
 73
0
 40
0.0
  0
LTYPE
  5
26
330
2
100
AcDbSymbolTableRecord
100
AcDbLinetypeTableRecord
  2
Continuous
 70
0
  3

 72
65
 73
0
 40
0.0
  0
LTYPE
  5
2F
330
2
100
AcDbSymbolTableRecord
100
AcDbLinetypeTableRecord
  2
CENTER
 70
0
  3
Center ____ _ ____ _ ____ _ ____ _ ____ _ ____
 72
65
 73
4
 40
5.08
 49
3.175
 74
0
 49
-0.635
 74
0
 49
0.635
 74
0
 49
-0.635
 74
0
  0
LTYPE
  5
30
330
2
100
AcDbSymbolTableRecord
100
AcDbLinetypeTableRecord
  2
CENTERX2
 70
0
  3
Center (2x) ________  __  ________  __  ________
 72
65
 73
4
 40
8.89
 49
6.35
 74
0
 49
-0.635
 74
0
 49
1.27
 74
0
 49
-0.635
 74
0
  0
LTYPE
  5
31
330
2
100
AcDbSymbolTableRecord
100
AcDbLinetypeTableRecord
  2
CENTER2
 70
0
  3
Center (.5x) ____ _ ____ _ ____ _ ____ _ ____
 72
65
 73
4
 40
2.54
 49
1.587
 74
0
 49
-0.318
 74
0
 49
0.318
 74
0
 49
-0.318
 74
0
  0
LTYPE
  5
32
330
2
100
AcDbSymbolTableRecord
100
AcDbLinetypeTableRecord
  2
DASHED
 70
0
  3
Dashed __ __ __ __ __ __ __ __ __ __ __ __ __ _
 72
65
 73
2
 40
1.524
 49
1.27
 74
0
 49
-0.254
 74
0
  0
LTYPE
  5
33
330
2
100
AcDbSymbolTableRecord
100
AcDbLinetypeTableRecord
  2
DASHEDX2
 70
0
  3
Dashed (2x) ____  ____  ____  ____  ____  ____
 72
65
 73
2
 40
3.048
 49
2.54
 74
0
 49
-0.508
 74
0
  0
LTYPE
  5
34
330
2
100
AcDbSymbolTableRecord
100
AcDbLinetypeTableRecord
  2
DASHED2
 70
0
  3
Dashed (.5x) _ _ _ _ _ _ _ _ _ _ _ _ _ _
 72
65
 73
2
 40
0.762
 49
0.635
 74
0
 49
-0.127
 74
0
  0
LTYPE
  5
35
330
2
100
AcDbSymbolTableRecord
100
AcDbLinetypeTableRecord
  2
PHANTOM
 70
0
  3
Phantom ______  __  __  ______  __  __  ______
 72
65
 73
6
 40
6.35
 49
3.175
 74
0
 49
-0.635
 74
0
 49
0.635
 74
0
 49
-0.635
 74
0
 49
0.635
 74
0
 49
-0.635
 74
0
  0
LTYPE
  5
36
330
2
100
AcDbSymbolTableRecord
100
AcDbLinetypeTableRecord
  2
PHANTOMX2
 70
0
  3
Phantom (2x)____________    ____    ____    ____________
 72
65
 73
6
 40
10.795
 49
6.35
 74
0
 49
-0.635
 74
0
 49
1.27
 74
0
 49
-0.635
 74
0
 49
1.27
 74
0
 49
-0.635
 74
0
  0
LTYPE
  5
37
330
2
100
AcDbSymbolTableRecord
100
AcDbLinetypeTableRecord
  2
PHANTOM2
 70
0
  3
Phantom (.5x) ___ _ _ ___ _ _ ___ _ _ ___ _ _ ___
 72
65
 73
6
 40
3.175
 49
1.587
 74
0
 49
-0.318
 74
0
 49
0.318
 74
0
 49
-0.318
 74
0
 49
0.318
 74
0
 49
-0.318
 74
0
  0
LTYPE
  5
38
330
2
100
AcDbSymbolTableRecord
100
AcDbLinetypeTableRecord
  2
DASHDOT
 70
0
  3
Dash dot __ . __ . __ . __ . __ . __ . __ . __
 72
65
 73
4
 40
3.556
 49
2.54
 74
0
 49
-0.508
 74
0
 49
0.0
 74
0
 49
-0.508
 74
0
  0
LTYPE
  5
39
330
2
100
AcDbSymbolTableRecord
100
AcDbLinetypeTableRecord
  2
DASHDOTX2
 70
0
  3
Dash dot (2x) ____  .  ____  .  ____  .  ____
 72
65
 73
4
 40
6.096
 49
5.08
 74
0
 49
-0.508
 74
0
 49
0.0
 74
0
 49
-0.508
 74
0
  0
LTYPE
  5
3A
330
2
100
AcDbSymbolTableRecord
100
AcDbLinetypeTableRecord
  2
DASHDOT2
 70
0
  3
Dash dot (.5x) _ . _ . _ . _ . _ . _ . _ . _
 72
65
 73
4
 40
1.778
 49
1.27
 74
0
 49
-0.254
 74
0
 49
0.0
 74
0
 49
-0.254
 74
0
  0
LTYPE
  5
3B
330
2
100
AcDbSymbolTableRecord
100
AcDbLinetypeTableRecord
  2
DOT
 70
0
  3
Dot .  .  .  .  .  .  .  .  .  .  .  .  .  .  .  .
 72
65
 73
2
 40
0.508
 49
0.0
 74
0
 49
-0.508
 74
0
  0
LTYPE
  5
3C
330
2
100
AcDbSymbolTableRecord
100
AcDbLinetypeTableRecord
  2
DOTX2
 70
0
  3
Dot (2x) .    .    .    .    .    .    .    . 
 72
65
 73
2
 40
1.016
 49
0.0
 74
0
 49
-1.016
 74
0
  0
LTYPE
  5
3D
330
2
100
AcDbSymbolTableRecord
100
AcDbLinetypeTableRecord
  2
DOT2
 70
0
  3
Dot (.5) . . . . . . . . . . . . . . . . . . . 
 72
65
 73
2
 40
0.254
 49
0.0
 74
0
 49
-0.254
 74
0
  0
LTYPE
  5
3E
330
2
100
AcDbSymbolTableRecord
100
AcDbLinetypeTableRecord
  2
DIVIDE
 70
0
  3
Divide __ . . __ . . __ . . __ . . __ . . __
 72
65
 73
6
 40
4.064
 49
2.54
 74
0
 49
-0.508
 74
0
 49
0.0
 74
0
 49
-0.508
 74
0
 49
0.0
 74
0
 49
-0.508
 74
0
  0
LTYPE
  5
3F
330
2
100
AcDbSymbolTableRecord
100
AcDbLinetypeTableRecord
  2
DIVIDEX2
 70
0
  3
Divide (2x) ____  . .  ____  . .  ____  . .  ____
 72
65
 73
6
 40
6.604
 49
5.08
 74
0
 49
-0.508
 74
0
 49
0.0
 74
0
 49
-0.508
 74
0
 49
0.0
 74
0
 49
-0.508
 74
0
  0
LTYPE
  5
40
330
2
100
AcDbSymbolTableRecord
100
AcDbLinetypeTableRecord
  2
DIVIDE2
 70
0
  3
Divide(.5x) _ . _ . _ . _ . _ . _ . _ . _
 72
65
 73
6
 40
2.032
 49
1.27
 74
0
 49
-0.254
 74
0
 49
0.0
 74
0
 49
-0.254
 74
0
 49
0.0
 74
0
 49
-0.254
 74
0
  0
ENDTAB
  0
TABLE
  2
LAYER
  5
1
330
0
100
AcDbSymbolTable
 70
2
  0
LAYER
  5
27
330
1
100
AcDbSymbolTableRecord
100
AcDbLayerTableRecord
  2
0
 70
0
 62
7
  6
Continuous
370
-3
390
13
347
21
  0
LAYER
  5
28
330
1
100
AcDbSymbolTableRecord
100
AcDbLayerTableRecord
  2
Defpoints
 70
0
 62
7
  6
Continuous
290
0
370
-3
390
13
347
21
  0
ENDTAB
  0
TABLE
  2
STYLE
  5
5
330
0
100
AcDbSymbolTable
 70
26
  0
STYLE
  5
29
330
5
100
AcDbSymbolTableRecord
100
AcDbTextStyleTableRecord
  2
Standard
 70
0
 40
0.0
 41
1.0
 50
0.0
 71
0
 42
2.5
  3
txt
  4

  0
STYLE
  5
41
330
5
100
AcDbSymbolTableRecord
100
AcDbTextStyleTableRecord
  2
OpenSans-Light
 70
0
 40
0.0
 41
1.0
 50
0.0
 71
0
 42
2.5
  3
OpenSans-Light.ttf
  4

  0
STYLE
  5
42
330
5
100
AcDbSymbolTableRecord
100
AcDbTextStyleTableRecord
  2
OpenSans-Light-Italic
 70
0
 40
0.0
 41
1.0
 50
0.0
 71
0
 42
2.5
  3
OpenSans-LightItalic.ttf
  4

  0
STYLE
  5
43
330
5
100
AcDbSymbolTableRecord
100
AcDbTextStyleTableRecord
  2
OpenSans
 70
0
 40
0.0
 41
1.0
 50
0.0
 71
0
 42
2.5
  3
OpenSans-Regular.ttf
  4

  0
STYLE
  5
44
330
5
100
AcDbSymbolTableRecord
100
AcDbTextStyleTableRecord
  2
OpenSans-Italic
 70
0
 40
0.0
 41
1.0
 50
0.0
 71
0
 42
2.5
  3
OpenSans-Italic.ttf
  4

  0
STYLE
  5
45
330
5
100
AcDbSymbolTableRecord
100
AcDbTextStyleTableRecord
  2
OpenSans-SemiBold
 70
0
 40
0.0
 41
1.0
 50
0.0
 71
0
 42
2.5
  3
OpenSans-SemiBold.ttf
  4

  0
STYLE
  5
46
330
5
100
AcDbSymbolTableRecord
100
AcDbTextStyleTableRecord
  2
OpenSans-SemiBoldItalic
 70
0
 40
0.0
 41
1.0
 50
0.0
 71
0
 42
2.5
  3
OpenSans-SemiBoldItalic.ttf
  4

  0
STYLE
  5
47
330
5
100
AcDbSymbolTableRecord
100
AcDbTextStyleTableRecord
  2
OpenSans-Bold
 70
0
 40
0.0
 41
1.0
 50
0.0
 71
0
 42
2.5
  3
OpenSans-Bold.ttf
  4

  0
STYLE
  5
48
330
5
100
AcDbSymbolTableRecord
100
AcDbTextStyleTableRecord
  2
OpenSans-BoldItalic
 70
0
 40
0.0
 41
1.0
 50
0.0
 71
0
 42
2.5
  3
OpenSans-BoldItalic.ttf
  4

  0
STYLE
  5
49
330
5
100
AcDbSymbolTableRecord
100
AcDbTextStyleTableRecord
  2
OpenSans-ExtraBold
 70
0
 40
0.0
 41
1.0
 50
0.0
 71
0
 42
2.5
  3
OpenSans-ExtraBold.ttf
  4

  0
STYLE
  5
4A
330
5
100
AcDbSymbolTableRecord
100
AcDbTextStyleTableRecord
  2
OpenSans-ExtraBoldItalic
 70
0
 40
0.0
 41
1.0
 50
0.0
 71
0
 42
2.5
  3
OpenSans-ExtraBoldItalic.ttf
  4

  0
STYLE
  5
4B
330
5
100
AcDbSymbolTableRecord
100
AcDbTextStyleTableRecord
  2
OpenSansCondensed-Bold
 70
0
 40
0.0
 41
1.0
 50
0.0
 71
0
 42
2.5
  3
OpenSansCondensed-Bold.ttf
  4

  0
STYLE
  5
4C
330
5
100
AcDbSymbolTableRecord
100
AcDbTextStyleTableRecord
  2
OpenSansCondensed-Light
 70
0
 40
0.0
 41
1.0
 50
0.0
 71
0
 42
2.5
  3
OpenSansCondensed-Light.ttf
  4

  0
STYLE
  5
4D
330
5
100
AcDbSymbolTableRecord
100
AcDbTextStyleTableRecord
  2
OpenSansCondensed-Italic
 70
0
 40
0.0
 41
1.0
 50
0.0
 71
0
 42
2.5
  3
OpenSansCondensed-LightItalic.ttf
  4

  0
STYLE
  5
4E
330
5
100
AcDbSymbolTableRecord
100
AcDbTextStyleTableRecord
  2
LiberationSans
 70
0
 40
0.0
 41
1.0
 50
0.0
 71
0
 42
2.5
  3
LiberationSans-Regular.ttf
  4

  0
STYLE
  5
4F
330
5
100
AcDbSymbolTableRecord
100
AcDbTextStyleTableRecord
  2
LiberationSans-Bold
 70
0
 40
0.0
 41
1.0
 50
0.0
 71
0
 42
2.5
  3
LiberationSans-Bold.ttf
  4

  0
STYLE
  5
50
330
5
100
AcDbSymbolTableRecord
100
AcDbTextStyleTableRecord
  2
LiberationSans-BoldItalic
 70
0
 40
0.0
 41
1.0
 50
0.0
 71
0
 42
2.5
  3
LiberationSans-BoldItalic.ttf
  4

  0
STYLE
  5
51
330
5
100
AcDbSymbolTableRecord
100
AcDbTextStyleTableRecord
  2
LiberationSans-Italic
 70
0
 40
0.0
 41
1.0
 50
0.0
 71
0
 42
2.5
  3
LiberationSans-Italic.ttf
  4

  0
STYLE
  5
52
330
5
100
AcDbSymbolTableRecord
100
AcDbTextStyleTableRecord
  2
LiberationSerif
 70
0
 40
0.0
 41
1.0
 50
0.0
 71
0
 42
2.5
  3
LiberationSerif-Regular.ttf
  4

  0
STYLE
  5
53
330
5
100
AcDbSymbolTableRecord
100
AcDbTextStyleTableRecord
  2
LiberationSerif-Bold
 70
0
 40
0.0
 41
1.0
 50
0.0
 71
0
 42
2.5
  3
LiberationSerif-Bold.ttf
  4

  0
STYLE
  5
54
330
5
100
AcDbSymbolTableRecord
100
AcDbTextStyleTableRecord
  2
LiberationSerif-BoldItalic
 70
0
 40
0.0
 41
1.0
 50
0.0
 71
0
 42
2.5
  3
LiberationSerif-BoldItalic.ttf
  4

  0
STYLE
  5
55
330
5
100
AcDbSymbolTableRecord
100
AcDbTextStyleTableRecord
  2
LiberationSerif-Italic
 70
0
 40
0.0
 41
1.0
 50
0.0
 71
0
 42
2.5
  3
LiberationSerif-Italic.ttf
  4

  0
STYLE
  5
56
330
5
100
AcDbSymbolTableRecord
100
AcDbTextStyleTableRecord
  2
LiberationMono
 70
0
 40
0.0
 41
1.0
 50
0.0
 71
0
 42
2.5
  3
LiberationMono-Regular.ttf
  4

  0
STYLE
  5
57
330
5
100
AcDbSymbolTableRecord
100
AcDbTextStyleTableRecord
  2
LiberationMono-Bold
 70
0
 40
0.0
 41
1.0
 50
0.0
 71
0
 42
2.5
  3
LiberationMono-Bold.ttf
  4

  0
STYLE
  5
58
330
5
100
AcDbSymbolTableRecord
100
AcDbTextStyleTableRecord
  2
LiberationMono-BoldItalic
 70
0
 40
0.0
 41
1.0
 50
0.0
 71
0
 42
2.5
  3
LiberationMono-BoldItalic.ttf
  4

  0
STYLE
  5
59
330
5
100
AcDbSymbolTableRecord
100
AcDbTextStyleTableRecord
  2
LiberationMono-Italic
 70
0
 40
0.0
 41
1.0
 50
0.0
 71
0
 42
2.5
  3
LiberationMono-Italic.ttf
  4

  0
ENDTAB
  0
TABLE
  2
VIEW
  5
7
330
0
100
AcDbSymbolTable
 70
0
  0
ENDTAB
  0
TABLE
  2
UCS
  5
6
330
0
100
AcDbSymbolTable
 70
0
  0
ENDTAB
  0
TABLE
  2
APPID
  5
3
330
0
100
AcDbSymbolTable
 70
3
  0
APPID
  5
2A
330
3
100
AcDbSymbolTableRecord
100
AcDbRegAppTableRecord
  2
ACAD
 70
0
  0
APPID
  5
15A
330
3
100
AcDbSymbolTableRecord
100
AcDbRegAppTableRecord
  2
HATCHBACKGROUNDCOLOR
 70
0
  0
APPID
  5
15B
330
3
100
AcDbSymbolTableRecord
100
AcDbRegAppTableRecord
  2
EZDXF
 70
0
  0
ENDTAB
  0
TABLE
  2
DIMSTYLE
  5
4
330
0
100
AcDbSymbolTable
 70
12
100
AcDbDimStyleTable
  0
DIMSTYLE
105
2B
330
4
100
AcDbSymbolTableRecord
100
AcDbDimStyleTableRecord
  2
Standard
 70
0
 40
1.0
 41
2.5
 42
0.625
 43
3.75
 44
1.25
 45
0.0
 46
0.0
 47
0.0
 48
0.0
 49
2.5
140
2.5
141
2.5
142
0.0
143
0.03937007874
144
1.0
145
0.0
146
1.0
147
0.625
148
0.0
 69
0
 70
0
 71
0
 72
0
 73
0
 74
0
 75
0
 76
0
 77
1
 78
8
 79
3
170
0
171
3
172
1
173
0
174
0
175
0
176
0
177
0
178
0
179
2
271
2
272
2
273
2
274
3
275
0
276
0
277
2
278
44
279
0
280
0
281
0
282
0
283
0
284
8
285
0
286
0
288
0
289
3
290
0
371
-2
372
-2
  0
DIMSTYLE
105
73
330
4
100
AcDbSymbolTableRecord
100
AcDbDimStyleTableRecord
  2
EZDXF
 70
0
 40
1.0
 41
0.175
 42
0.125
 43
3.75
 44
0.375
 45
0.0
 46
0.0
 47
0.0
 48
0.0
 49
2.5
140
0.25
141
2.5
142
0.0
143
0.03937007874
144
100.0
145
0.0
146
0.5
147
0.1
148
0.0
 69
0
 70
0
 71
0
 72
0
 73
0
 74
0
 75
0
 76
0
 77
1
 78
12
 79
3
170
0
171
3
172
1
173
0
174
0
175
0
176
0
177
0
178
0
179
2
271
2
272
2
273
2
274
3
275
0
276
0
277
2
278
46
279
2
280
0
281
0
282
0
283
0
284
8
285
0
286
0
288
1
289
3
290
0
340
4C
342
74
371
-2
372
-2
  0
DIMSTYLE
105
7C
330
4
100
AcDbSymbolTableRecord
100
AcDbDimStyleTableRecord
  2
EZ_M_100_H25_CM
 70
0
 40
1.0
 41
0.25
 42
0.125
 43
3.75
 44
0.375
 45
0.0
 46
0.0
 47
0.0
 48
0.0
 49
2.5
140
0.25
141
2.5
142
0.125
143
0.03937007874
144
100.0
145
0.0
146
0.5
147
0.1
148
0.0
 69
0
 70
0
 71
0
 72
0
 73
0
 74
0
 75
0
 76
0
 77
1
 78
12
 79
3
170
0
171
3
172
1
173
0
174
0
175
0
176
0
177
0
178
0
179
2
271
2
272
2
273
2
274
3
275
0
276
0
277
2
278
46
279
2
280
0
281
0
282
0
283
0
284
8
285
0
286
0
288
1
289
3
290
0
340
4C
371
-2
372
-2
  0
DIMSTYLE
105
7D
330
4
100
AcDbSymbolTableRecord
100
AcDbDimStyleTableRecord
  2
EZ_M_50_H25_CM
 70
0
 40
1.0
 41
0.125
 42
0.0625
 43
3.75
 44
0.1875
 45
0.0
 46
0.0
 47
0.0
 48
0.0
 49
2.5
140
0.125
141
2.5
142
0.0625
143
0.03937007874
144
100.0
145
0.0
146
0.5
147
0.05
148
0.0
 69
0
 70
0
 71
0
 72
0
 73
0
 74
0
 75
0
 76
0
 77
1
 78
12
 79
3
170
0
171
3
172
1
173
0
174
0
175
0
176
0
177
0
178
0
179
2
271
2
272
2
273
2
274
3
275
0
276
0
277
2
278
46
279
2
280
0
281
0
282
0
283
0
284
8
285
0
286
0
288
1
289
3
290
0
340
4C
371
-2
372
-2
  0
DIMSTYLE
105
7E
330
4
100
AcDbSymbolTableRecord
100
AcDbDimStyleTableRecord
  2
EZ_M_25_H25_CM
 70
0
 40
1.0
 41
0.0625
 42
0.03125
 43
3.75
 44
0.09375
 45
0.0
 46
0.0
 47
0.0
 48
0.0
 49
2.5
140
0.0625
141
2.5
142
0.03125
143
0.03937007874
144
100.0
145
0.0
146
0.5
147
0.025
148
0.0
 69
0
 70
0
 71
0
 72
0
 73
0
 74
0
 75
0
 76
0
 77
1
 78
12
 79
3
170
0
171
3
172
1
173
0
174
0
175
0
176
0
177
0
178
0
179
2
271
2
272
2
273
2
274
3
275
0
276
0
277
2
278
46
279
2
280
0
281
0
282
0
283
0
284
8
285
0
286
0
288
1
289
3
290
0
340
4C
371
-2
372
-2
  0
DIMSTYLE
105
7F
330
4
100
AcDbSymbolTableRecord
100
AcDbDimStyleTableRecord
  2
EZ_M_20_H25_CM
 70
0
 40
1.0
 41
0.05
 42
0.025
 43
3.75
 44
0.07500000000000001
 45
0.0
 46
0.0
 47
0.0
 48
0.0
 49
2.5
140
0.05
141
2.5
142
0.025
143
0.03937007874
144
100.0
145
0.0
146
0.5
147
0.020000000000000004
148
0.0
 69
0
 70
0
 71
0
 72
0
 73
0
 74
0
 75
0
 76
0
 77
1
 78
12
 79
3
170
0
171
3
172
1
173
0
174
0
175
0
176
0
177
0
178
0
179
2
271
2
272
2
273
2
274
3
275
0
276
0
277
2
278
46
279
2
280
0
281
0
282
0
283
0
284
8
285
0
286
0
288
1
289
3
290
0
340
4C
371
-2
372
-2
  0
DIMSTYLE
105
80
330
4
100
AcDbSymbolTableRecord
100
AcDbDimStyleTableRecord
  2
EZ_M_10_H25_CM
 70
0
 40
1.0
 41
0.025
 42
0.0125
 43
3.75
 44
0.037500000000000006
 45
0.0
 46
0.0
 47
0.0
 48
0.0
 49
2.5
140
0.025
141
2.5
142
0.0125
143
0.03937007874
144
100.0
145
0.0
146
0.5
147
0.010000000000000002
148
0.0
 69
0
 70
0
 71
0
 72
0
 73
0
 74
0
 75
0
 76
0
 77
1
 78
12
 79
3
170
0
171
3
172
1
173
0
174
0
175
0
176
0
177
0
178
0
179
2
271
2
272
2
273
2
274
3
275
0
276
0
277
2
278
46
279
2
280
0
281
0
282
0
283
0
284
8
285
0
286
0
288
1
289
3
290
0
340
4C
371
-2
372
-2
  0
DIMSTYLE
105
81
330
4
100
AcDbSymbolTableRecord
100
AcDbDimStyleTableRecord
  2
EZ_M_5_H25_CM
 70
0
 40
1.0
 41
0.0125
 42
0.00625
 43
3.75
 44
0.018750000000000003
 45
0.0
 46
0.0
 47
0.0
 48
0.0
 49
2.5
140
0.0125
141
2.5
142
0.00625
143
0.03937007874
144
100.0
145
0.0
146
0.5
147
0.005000000000000001
148
0.0
 69
0
 70
0
 71
0
 72
0
 73
0
 74
0
 75
0
 76
0
 77
1
 78
12
 79
3
170
0
171
3
172
1
173
0
174
0
175
0
176
0
177
0
178
0
179
2
271
2
272
2
273
2
274
3
275
0
276
0
277
2
278
46
279
2
280
0
281
0
282
0
283
0
284
8
285
0
286
0
288
1
289
3
290
0
340
4C
371
-2
372
-2
  0
DIMSTYLE
105
82
330
4
100
AcDbSymbolTableRecord
100
AcDbDimStyleTableRecord
  2
EZ_M_1_H25_CM
 70
0
 40
1.0
 41
0.0025
 42
0.00125
 43
3.75
 44
0.00375
 45
0.0
 46
0.0
 47
0.0
 48
0.0
 49
2.5
140
0.0025
141
2.5
142
0.00125
143
0.03937007874
144
100.0
145
0.0
146
0.5
147
0.001
148
0.0
 69
0
 70
0
 71
0
 72
0
 73
0
 74
0
 75
0
 76
0
 77
1
 78
12
 79
3
170
0
171
3
172
1
173
0
174
0
175
0
176
0
177
0
178
0
179
2
271
2
272
2
273
2
274
3
275
0
276
0
277
2
278
46
279
2
280
0
281
0
282
0
283
0
284
8
285
0
286
0
288
1
289
3
290
0
340
4C
371
-2
372
-2
  0
DIMSTYLE
105
83
330
4
100
AcDbSymbolTableRecord
100
AcDbDimStyleTableRecord
  2
EZ_RADIUS
 70
0
 40
1.0
 41
0.25
 42
0.125
 43
3.75
 44
0.375
 45
0.0
 46
0.0
 47
0.0
 48
0.0
 49
2.5
140
0.25
141
0.0
142
0.0
143
0.03937007874
144
100.0
145
0.0
146
0.5
147
0.1
148
0.0
 69
0
 70
0
 71
0
 72
0
 73
0
 74
0
 75
0
 76
0
 77
1
 78
12
 79
3
170
0
171
3
172
0
173
0
174
0
175
0
176
0
177
0
178
0
179
2
271
2
272
2
273
2
274
3
275
0
276
0
277
2
278
46
279
1
280
0
281
0
282
0
283
0
284
8
285
0
286
0
288
1
289
3
290
0
340
4C
342
84
371
-2
372
-2
  0
DIMSTYLE
105
88
330
4
100
AcDbSymbolTableRecord
100
AcDbDimStyleTableRecord
  2
EZ_RADIUS_INSIDE
 70
0
 40
1.0
 41
0.25
 42
0.125
 43
3.75
 44
0.375
 45
0.0
 46
0.0
 47
0.0
 48
0.0
 49
2.5
140
0.25
141
0.0
142
0.0
143
0.03937007874
144
100.0
145
0.0
146
0.5
147
0.1
148
0.0
 69
0
 70
0
 71
0
 72
0
 73
0
 74
0
 75
0
 76
0
 77
0
 78
12
 79
3
170
0
171
3
172
0
173
0
174
1
175
0
176
0
177
0
178
0
179
2
271
2
272
2
273
2
274
3
275
0
276
0
277
2
278
46
279
0
280
0
281
0
282
0
283
0
284
8
285
0
286
0
288
1
289
0
290
0
340
4C
342
84
371
-2
372
-2
  0
DIMSTYLE
105
89
330
4
100
AcDbSymbolTableRecord
100
AcDbDimStyleTableRecord
  2
EZ_CURVED
 70
0
 40
1.0
 41
0.25
 42
0.125
 43
3.75
 44
0.375
 45
0.0
 46
0.0
 47
0.0
 48
0.0
 49
2.5
140
0.25
141
2.5
142
0.0
143
0.03937007874
144
100.0
145
0.0
146
0.5
147
0.1
148
0.0
 69
0
 70
0
 71
0
 72
0
 73
0
 74
0
 75
0
 76
0
 77
1
 78
12
 79
2
 90
2
170
0
171
3
172
1
173
0
174
0
175
0
176
0
177
0
178
0
179
2
271
2
272
2
273
2
274
3
275
0
276
0
277
2
278
46
279
2
280
0
281
0
282
0
283
0
284
8
285
0
286
0
288
1
289
3
290
0
340
4C
371
-2
372
-2
  0
ENDTAB
  0
TABLE
  2
BLOCK_RECORD
  5
9
330
0
100
AcDbSymbolTable
 70
5
  0
BLOCK_RECORD
  5
17
330
9
100
AcDbSymbolTableRecord
100
AcDbBlockTableRecord
  2
*Model_Space
340
1A
 70
0
280
1
281
0
  0
BLOCK_RECORD
  5
1B
330
9
100
AcDbSymbolTableRecord
100
AcDbBlockTableRecord
  2
*Paper_Space
340
1E
 70
0
280
1
281
0
  0
BLOCK_RECORD
  5
74
330
9
100
AcDbSymbolTableRecord
100
AcDbBlockTableRecord
  2
_ARCHTICK
340
0
 70
0
280
1
281
0
  0
BLOCK_RECORD
  5
78
330
9
100
AcDbSymbolTableRecord
100
AcDbBlockTableRecord
  2
_CLOSEDFILLED
340
0
 70
0
280
1
281
0
  0
BLOCK_RECORD
  5
84
330
9
100
AcDbSymbolTableRecord
100
AcDbBlockTableRecord
  2
_CLOSEDBLANK
340
0
 70
0
280
1
281
0
  0
ENDTAB
  0
ENDSEC
  0
SECTION
  2
BLOCKS
  0
BLOCK
  5
18
330
17
100
AcDbEntity
  8
0
100
AcDbBlockBegin
  2
*Model_Space
 70
0
 10
0.0
 20
0.0
 30
0.0
  3
*Model_Space
  1

  0
ENDBLK
  5
19
330
17
100
AcDbEntity
  8
0
100
AcDbBlockEnd
  0
BLOCK
  5
1C
330
1B
100
AcDbEntity
  8
0
100
AcDbBlockBegin
  2
*Paper_Space
 70
0
 10
0.0
 20
0.0
 30
0.0
  3
*Paper_Space
  1

  0
ENDBLK
  5
1D
330
1B
100
AcDbEntity
  8
0
100
AcDbBlockEnd
  0
BLOCK
  5
75
330
74
100
AcDbEntity
  8
0
100
AcDbBlockBegin
  2
_ARCHTICK
 70
0
 10
0.0
 20
0.0
 30
0.0
  3
_ARCHTICK
  1

  0
LWPOLYLINE
  5
77
330
74
100
AcDbEntity
  8
0
  6
BYBLOCK
 62
0
100
AcDbPolyline
 90
2
 70
0
 43
0.15
 10
-0.5
 20
-0.5
 10
0.5
 20
0.5
  0
ENDBLK
  5
76
330
74
100
AcDbEntity
  8
0
100
AcDbBlockEnd
  0
BLOCK
  5
79
330
78
100
AcDbEntity
  8
0
100
AcDbBlockBegin
  2
_CLOSEDFILLED
 70
0
 10
0.0
 20
0.0
 30
0.0
  3
_CLOSEDFILLED
  1

  0
SOLID
  5
7B
330
78
100
AcDbEntity
  8
0
  6
BYBLOCK
 62
0
100
AcDbTrace
 10
-1.0
 20
0.16439898372402537
 30
0.0
 11
0.0
 21
0.0
 31
0.0
 12
-1.0
 22
-0.16439898372402537
 32
0.0
 13
-1.0
 23
-0.16439898372402537
 33
0.0
  0
ENDBLK
  5
7A
330
78
100
AcDbEntity
  8
0
100
AcDbBlockEnd
  0
BLOCK
  5
85
330
84
100
AcDbEntity
  8
0
100
AcDbBlockBegin
  2
_CLOSEDBLANK
 70
0
 10
0.0
 20
0.0
 30
0.0
  3
_CLOSEDBLANK
  1

  0
LWPOLYLINE
  5
87
330
84
100
AcDbEntity
  8
0
  6
BYBLOCK
 62
0
100
AcDbPolyline
 90
3
 70
1
 10
-1.0
 20
0.16439898372402537
 10
0.0
 20
0.0
 10
-1.0
 20
-0.16439898372402537
  0
ENDBLK
  5
86
330
84
100
AcDbEntity
  8
0
100
AcDbBlockEnd
  0
ENDSEC
  0
SECTION
  2
ENTITIES
  0
LWPOLYLINE
  5
8A
330
17
100
AcDbEntity
  8
0
100
AcDbPolyline
 90
4
 70
1
 10
15.0114
 20
3.81
 10
15.0114
 20
0.3302
 10
16.9926
 20
0.3302
 10
16.9926
 20
3.81
  0
LWPOLYLINE
  5
8B
330
17
100
AcDbEntity
  8
0
100
AcDbPolyline
 90
4
 70
1
 10
1.3461999999999998
 20
3.81
 10
1.3461999999999998
 20
0.3302
 10
3.3274
 20
0.3302
 10
3.3274
 20
3.81
  0
LWPOLYLINE
  5
8C
330
17
100
AcDbEntity
  8
0
100
AcDbPolyline
 90
16
 70
1
 10
20.1422
 20
6.6293999999999995
 10
19.4056
 20
6.324599999999999
 10
19.05
 20
5.9436
 10
18.796
 20
5.4102
 10
18.796
 20
4.6482
 10
19.1008
 20
4.0386
 10
19.558
 20
3.6321999999999997
 10
20.1676
 20
3.429
 10
20.573999999999998
 20
3.429
 10
21.1328
 20
3.6068
 10
21.615399999999998
 20
4.013199999999999
 10
21.9456
 20
4.6735999999999995
 10
21.9456
 20
5.384799999999999
 10
21.8186
 20
5.7404
 10
21.336
 20
6.324599999999999
 10
20.802599999999998
 20
6.5786
  0
LWPOLYLINE
  5
8D
330
17
100
AcDbEntity
  8
0
100
AcDbPolyline
 90
4
 70
1
 10
12.3444
 20
10.9474
 10
12.3444
 20
7.4676
 10
13.512799999999999
 20
7.4676
 10
13.512799999999999
 20
10.9474
  0
LWPOLYLINE
  5
8E
330
17
100
AcDbEntity
  8
0
100
AcDbPolyline
 90
4
 70
1
 10
9.829799999999999
 20
10.9474
 10
9.829799999999999
 20
7.4676
 10
10.998199999999999
 20
7.4676
 10
10.998199999999999
 20
10.9474
  0
LWPOLYLINE
  5
8F
330
17
100
AcDbEntity
  8
0
100
AcDbPolyline
 90
4
 70
1
 10
7.340599999999999
 20
10.9474
 10
7.340599999999999
 20
7.4676
 10
8.509
 20
7.4676
 10
8.509
 20
10.9474
  0
LWPOLYLINE
  5
90
330
17
100
AcDbEntity
  8
0
100
AcDbPolyline
 90
4
 70
1
 10
4.826
 20
10.9474
 10
4.826
 20
7.4676
 10
5.9944
 20
7.4676
 10
5.9944
 20
10.9474
  0
LWPOLYLINE
  5
91
330
17
100
AcDbEntity
  8
0
100
AcDbPolyline
 90
16
 70
1
 10
10.033
 20
12.9286
 10
9.9568
 20
12.7762
 10
9.9568
 20
12.1158
 10
10.0076
 20
12.065
 10
10.033
 20
11.937999999999999
 10
10.134599999999999
 20
11.8364
 10
10.2616
 20
11.811
 10
10.3124
 20
11.7602
 10
11.150599999999999
 20
11.7602
 10
11.4046
 20
11.937999999999999
 10
11.43
 20
12.0396
 10
11.5062
 20
12.1158
 10
11.5062
 20
12.7762
 10
11.302999999999999
 20
13.030199999999999
 10
11.176
 20
13.106399999999999
 10
10.286999999999999
 20
13.106399999999999
  0
LWPOLYLINE
  5
92
330
17
100
AcDbEntity
  8
0
100
AcDbPolyline
 90
16
 70
1
 10
7.1882
 20
12.9286
 10
7.112
 20
12.7762
 10
7.112
 20
12.1158
 10
7.1628
 20
12.065
 10
7.1882
 20
11.937999999999999
 10
7.2898
 20
11.8364
 10
7.416799999999999
 20
11.811
 10
7.4676
 20
11.7602
 10
8.3058
 20
11.7602
 10
8.5598
 20
11.937999999999999
 10
8.5852
 20
12.0396
 10
8.6614
 20
12.1158
 10
8.6614
 20
12.7762
 10
8.4582
 20
13.030199999999999
 10
8.331199999999999
 20
13.106399999999999
 10
7.4422
 20
13.106399999999999
  0
LWPOLYLINE
  5
93
330
17
100
AcDbEntity
  8
0
100
AcDbPolyline
 90
12
 70
1
 10
4.9276
 20
13.3858
 10
4.7244
 20
13.182599999999999
 10
4.7244
 20
12.3698
 10
4.7752
 20
12.318999999999999
 10
4.7752
 20
12.2682
 10
4.952999999999999
 20
12.1412
 10
5.334
 20
12.1412
 10
5.384799999999999
 20
12.192
 10
5.4356
 20
12.192
 10
5.5626
 20
12.3698
 10
5.5626
 20
13.182599999999999
 10
5.3594
 20
13.3858
  0
LWPOLYLINE
  5
94
330
17
100
AcDbEntity
  8
0
100
AcDbPolyline
 90
12
 70
1
 10
3.048
 20
13.3858
 10
2.8447999999999998
 20
13.182599999999999
 10
2.8447999999999998
 20
12.3698
 10
2.8956
 20
12.318999999999999
 10
2.8956
 20
12.2682
 10
3.0734
 20
12.1412
 10
3.4543999999999997
 20
12.1412
 10
3.5052
 20
12.192
 10
3.556
 20
12.192
 10
3.683
 20
12.3698
 10
3.683
 20
13.182599999999999
 10
3.4798
 20
13.3858
  0
LWPOLYLINE
  5
95
330
17
100
AcDbEntity
  8
0
100
AcDbPolyline
 90
12
 70
1
 10
15.544799999999999
 20
15.24
 10
15.5194
 20
15.214599999999999
 10
15.494
 20
15.214599999999999
 10
15.4432
 20
15.138399999999999
 10
15.4432
 20
14.3764
 10
15.494
 20
14.3002
 10
15.5702
 20
14.274799999999999
 10
15.5956
 20
14.3002
 10
15.620999999999999
 20
14.3002
 10
15.6718
 20
14.3764
 10
15.6718
 20
15.138399999999999
 10
15.620999999999999
 20
15.214599999999999
  0
LWPOLYLINE
  5
96
330
17
100
AcDbEntity
  8
0
100
AcDbPolyline
 90
12
 70
1
 10
14.8844
 20
15.24
 10
14.859
 20
15.214599999999999
 10
14.833599999999999
 20
15.214599999999999
 10
14.7828
 20
15.138399999999999
 10
14.7828
 20
14.3764
 10
14.833599999999999
 20
14.3002
 10
14.909799999999999
 20
14.274799999999999
 10
14.9352
 20
14.3002
 10
14.9606
 20
14.3002
 10
15.0114
 20
14.3764
 10
15.0114
 20
15.138399999999999
 10
14.9606
 20
15.214599999999999
  0
LWPOLYLINE
  5
97
330
17
100
AcDbEntity
  8
0
100
AcDbPolyline
 90
12
 70
1
 10
14.2494
 20
15.24
 10
14.224
 20
15.214599999999999
 10
14.198599999999999
 20
15.214599999999999
 10
14.1478
 20
15.138399999999999
 10
14.1478
 20
14.3764
 10
14.198599999999999
 20
14.3002
 10
14.274799999999999
 20
14.274799999999999
 10
14.3002
 20
14.3002
 10
14.3256
 20
14.3002
 10
14.3764
 20
14.3764
 10
14.3764
 20
15.138399999999999
 10
14.3256
 20
15.214599999999999
  0
LWPOLYLINE
  5
98
330
17
100
AcDbEntity
  8
0
100
AcDbPolyline
 90
12
 70
1
 10
5.3086
 20
15.24
 10
5.2832
 20
15.214599999999999
 10
5.2578
 20
15.214599999999999
 10
5.207
 20
15.138399999999999
 10
5.207
 20
14.3764
 10
5.2578
 20
14.3002
 10
5.334
 20
14.274799999999999
 10
5.3594
 20
14.3002
 10
5.384799999999999
 20
14.3002
 10
5.4356
 20
14.3764
 10
5.4356
 20
15.138399999999999
 10
5.384799999999999
 20
15.214599999999999
  0
LWPOLYLINE
  5
99
330
17
100
AcDbEntity
  8
0
100
AcDbPolyline
 90
12
 70
1
 10
4.6482
 20
15.24
 10
4.6228
 20
15.214599999999999
 10
4.5973999999999995
 20
15.214599999999999
 10
4.5466
 20
15.138399999999999
 10
4.5466
 20
14.3764
 10
4.5973999999999995
 20
14.3002
 10
4.6735999999999995
 20
14.274799999999999
 10
4.699
 20
14.3002
 10
4.7244
 20
14.3002
 10
4.7752
 20
14.3764
 10
4.7752
 20
15.138399999999999
 10
4.7244
 20
15.214599999999999
  0
LWPOLYLINE
  5
9A
330
17
100
AcDbEntity
  8
0
100
AcDbPolyline
 90
12
 70
1
 10
3.9878
 20
15.24
 10
3.9623999999999997
 20
15.214599999999999
 10
3.937
 20
15.214599999999999
 10
3.8861999999999997
 20
15.138399999999999
 10
3.8861999999999997
 20
14.3764
 10
3.937
 20
14.3002
 10
4.013199999999999
 20
14.274799999999999
 10
4.0386
 20
14.3002
 10
4.064
 20
14.3002
 10
4.1148
 20
14.3764
 10
4.1148
 20
15.138399999999999
 10
4.064
 20
15.214599999999999
  0
LWPOLYLINE
  5
9B
330
17
100
AcDbEntity
  8
0
100
AcDbPolyline
 90
4
 70
1
 10
13.462
 20
15.3162
 10
13.462
 20
14.2494
 10
13.741399999999999
 20
14.2494
 10
13.741399999999999
 20
15.3162
  0
LWPOLYLINE
  5
9C
330
17
100
AcDbEntity
  8
0
100
AcDbPolyline
 90
4
 70
1
 10
3.2258
 20
15.3162
 10
3.2258
 20
14.2494
 10
3.5052
 20
14.2494
 10
3.5052
 20
15.3162
  0
LWPOLYLINE
  5
9D
330
17
100
AcDbEntity
  8
0
100
AcDbPolyline
 90
16
 70
1
 10
10.033
 20
15.773399999999999
 10
9.9568
 20
15.620999999999999
 10
9.9568
 20
14.9606
 10
10.0076
 20
14.909799999999999
 10
10.033
 20
14.7828
 10
10.134599999999999
 20
14.681199999999999
 10
10.2616
 20
14.6558
 10
10.3124
 20
14.604999999999999
 10
11.150599999999999
 20
14.604999999999999
 10
11.4046
 20
14.7828
 10
11.43
 20
14.8844
 10
11.5062
 20
14.9606
 10
11.5062
 20
15.620999999999999
 10
11.302999999999999
 20
15.875
 10
11.176
 20
15.9512
 10
10.286999999999999
 20
15.9512
  0
LWPOLYLINE
  5
9E
330
17
100
AcDbEntity
  8
0
100
AcDbPolyline
 90
16
 70
1
 10
7.1882
 20
15.773399999999999
 10
7.112
 20
15.620999999999999
 10
7.112
 20
14.9606
 10
7.1628
 20
14.909799999999999
 10
7.1882
 20
14.7828
 10
7.2898
 20
14.681199999999999
 10
7.416799999999999
 20
14.6558
 10
7.4676
 20
14.604999999999999
 10
8.3058
 20
14.604999999999999
 10
8.5598
 20
14.7828
 10
8.5852
 20
14.8844
 10
8.6614
 20
14.9606
 10
8.6614
 20
15.620999999999999
 10
8.4582
 20
15.875
 10
8.331199999999999
 20
15.9512
 10
7.4422
 20
15.9512
  0
LWPOLYLINE
  5
9F
330
17
100
AcDbEntity
  8
0
100
AcDbPolyline
 90
8
 70
1
 10
11.302999999999999
 20
19.304
 10
11.176
 20
19.2024
 10
11.176
 20
17.9832
 10
11.302999999999999
 20
17.856199999999998
 10
11.5824
 20
17.856199999999998
 10
11.709399999999999
 20
17.9832
 10
11.709399999999999
 20
19.2024
 10
11.6078
 20
19.304
  0
LWPOLYLINE
  5
A0
330
17
100
AcDbEntity
  8
0
100
AcDbPolyline
 90
8
 70
1
 10
10.3124
 20
19.304
 10
10.1854
 20
19.2024
 10
10.1854
 20
17.9832
 10
10.3124
 20
17.856199999999998
 10
10.5918
 20
17.856199999999998
 10
10.7188
 20
17.9832
 10
10.7188
 20
19.2024
 10
10.6172
 20
19.304
  0
LWPOLYLINE
  5
A1
330
17
100
AcDbEntity
  8
0
100
AcDbPolyline
 90
8
 70
1
 10
9.3218
 20
19.304
 10
9.194799999999999
 20
19.2024
 10
9.194799999999999
 20
17.9832
 10
9.3218
 20
17.856199999999998
 10
9.6012
 20
17.856199999999998
 10
9.7282
 20
17.9832
 10
9.7282
 20
19.2024
 10
9.6266
 20
19.304
  0
LWPOLYLINE
  5
A2
330
17
100
AcDbEntity
  8
0
100
AcDbPolyline
 90
8
 70
1
 10
8.3058
 20
19.304
 10
8.178799999999999
 20
19.2024
 10
8.178799999999999
 20
17.9832
 10
8.3058
 20
17.856199999999998
 10
8.5852
 20
17.856199999999998
 10
8.7122
 20
17.9832
 10
8.7122
 20
19.2024
 10
8.6106
 20
19.304
  0
LWPOLYLINE
  5
A3
330
17
100
AcDbEntity
  8
0
100
AcDbPolyline
 90
8
 70
1
 10
7.3152
 20
19.304
 10
7.1882
 20
19.2024
 10
7.1882
 20
17.9832
 10
7.3152
 20
17.856199999999998
 10
7.5946
 20
17.856199999999998
 10
7.7216
 20
17.9832
 10
7.7216
 20
19.2024
 10
7.62
 20
19.304
  0
LWPOLYLINE
  5
A4
330
17
100
AcDbEntity
  8
0
100
AcDbPolyline
 90
12
 70
1
 10
15.544799999999999
 20
21.4122
 10
15.5194
 20
21.386799999999997
 10
15.494
 20
21.386799999999997
 10
15.4432
 20
21.3106
 10
15.4432
 20
20.5486
 10
15.494
 20
20.4724
 10
15.5702
 20
20.447
 10
15.5956
 20
20.4724
 10
15.620999999999999
 20
20.4724
 10
15.6718
 20
20.5486
 10
15.6718
 20
21.3106
 10
15.620999999999999
 20
21.386799999999997
  0
LWPOLYLINE
  5
A5
330
17
100
AcDbEntity
  8
0
100
AcDbPolyline
 90
12
 70
1
 10
14.8844
 20
21.4122
 10
14.859
 20
21.386799999999997
 10
14.833599999999999
 20
21.386799999999997
 10
14.7828
 20
21.3106
 10
14.7828
 20
20.5486
 10
14.833599999999999
 20
20.4724
 10
14.909799999999999
 20
20.447
 10
14.9352
 20
20.4724
 10
14.9606
 20
20.4724
 10
15.0114
 20
20.5486
 10
15.0114
 20
21.3106
 10
14.9606
 20
21.386799999999997
  0
LWPOLYLINE
  5
A6
330
17
100
AcDbEntity
  8
0
100
AcDbPolyline
 90
12
 70
1
 10
14.2494
 20
21.4122
 10
14.224
 20
21.386799999999997
 10
14.198599999999999
 20
21.386799999999997
 10
14.1478
 20
21.3106
 10
14.1478
 20
20.5486
 10
14.198599999999999
 20
20.4724
 10
14.274799999999999
 20
20.447
 10
14.3002
 20
20.4724
 10
14.3256
 20
20.4724
 10
14.3764
 20
20.5486
 10
14.3764
 20
21.3106
 10
14.3256
 20
21.386799999999997
  0
LWPOLYLINE
  5
A7
330
17
100
AcDbEntity
  8
0
100
AcDbPolyline
 90
12
 70
1
 10
13.588999999999999
 20
21.4122
 10
13.5636
 20
21.386799999999997
 10
13.5382
 20
21.386799999999997
 10
13.4874
 20
21.3106
 10
13.4874
 20
20.5486
 10
13.5382
 20
20.4724
 10
13.6144
 20
20.447
 10
13.6398
 20
20.4724
 10
13.665199999999999
 20
20.4724
 10
13.716
 20
20.5486
 10
13.716
 20
21.3106
 10
13.665199999999999
 20
21.386799999999997
  0
LWPOLYLINE
  5
A8
330
17
100
AcDbEntity
  8
0
100
AcDbPolyline
 90
12
 70
1
 10
5.3086
 20
21.4122
 10
5.2832
 20
21.386799999999997
 10
5.2578
 20
21.386799999999997
 10
5.207
 20
21.3106
 10
5.207
 20
20.5486
 10
5.2578
 20
20.4724
 10
5.334
 20
20.447
 10
5.3594
 20
20.4724
 10
5.384799999999999
 20
20.4724
 10
5.4356
 20
20.5486
 10
5.4356
 20
21.3106
 10
5.384799999999999
 20
21.386799999999997
  0
LWPOLYLINE
  5
A9
330
17
100
AcDbEntity
  8
0
100
AcDbPolyline
 90
12
 70
1
 10
4.6482
 20
21.4122
 10
4.6228
 20
21.386799999999997
 10
4.5973999999999995
 20
21.386799999999997
 10
4.5466
 20
21.3106
 10
4.5466
 20
20.5486
 10
4.5973999999999995
 20
20.4724
 10
4.6735999999999995
 20
20.447
 10
4.699
 20
20.4724
 10
4.7244
 20
20.4724
 10
4.7752
 20
20.5486
 10
4.7752
 20
21.3106
 10
4.7244
 20
21.386799999999997
  0
LWPOLYLINE
  5
AA
330
17
100
AcDbEntity
  8
0
100
AcDbPolyline
 90
12
 70
1
 10
3.9878
 20
21.4122
 10
3.9623999999999997
 20
21.386799999999997
 10
3.937
 20
21.386799999999997
 10
3.8861999999999997
 20
21.3106
 10
3.8861999999999997
 20
20.5486
 10
3.937
 20
20.4724
 10
4.013199999999999
 20
20.447
 10
4.0386
 20
20.4724
 10
4.064
 20
20.4724
 10
4.1148
 20
20.5486
 10
4.1148
 20
21.3106
 10
4.064
 20
21.386799999999997
  0
LWPOLYLINE
  5
AB
330
17
100
AcDbEntity
  8
0
100
AcDbPolyline
 90
12
 70
1
 10
3.3528
 20
21.4122
 10
3.3274
 20
21.386799999999997
 10
3.302
 20
21.386799999999997
 10
3.2512
 20
21.3106
 10
3.2512
 20
20.5486
 10
3.302
 20
20.4724
 10
3.3781999999999996
 20
20.447
 10
3.4036
 20
20.4724
 10
3.429
 20
20.4724
 10
3.4798
 20
20.5486
 10
3.4798
 20
21.3106
 10
3.429
 20
21.386799999999997
  0
LWPOLYLINE
  5
AC
330
17
100
AcDbEntity
  8
0
100
AcDbPolyline
 90
4
 70
1
 10
7.874
 20
22.352
 10
7.874
 20
20.066
 10
11.049
 20
20.066
 10
11.049
 20
22.352
  0
LWPOLYLINE
  5
AD
330
17
100
AcDbEntity
  8
0
100
AcDbPolyline
 90
12
 70
1
 10
15.392399999999999
 20
23.7744
 10
15.1892
 20
23.571199999999997
 10
15.1892
 20
22.758399999999998
 10
15.24
 20
22.7076
 10
15.24
 20
22.6568
 10
15.4178
 20
22.529799999999998
 10
15.7988
 20
22.529799999999998
 10
15.849599999999999
 20
22.5806
 10
15.9004
 20
22.5806
 10
16.0274
 20
22.758399999999998
 10
16.0274
 20
23.571199999999997
 10
15.8242
 20
23.7744
  0
LWPOLYLINE
  5
AE
330
17
100
AcDbEntity
  8
0
100
AcDbPolyline
 90
12
 70
1
 10
13.4874
 20
23.7744
 10
13.2842
 20
23.571199999999997
 10
13.2842
 20
22.758399999999998
 10
13.334999999999999
 20
22.7076
 10
13.334999999999999
 20
22.6568
 10
13.512799999999999
 20
22.529799999999998
 10
13.893799999999999
 20
22.529799999999998
 10
13.9446
 20
22.5806
 10
13.9954
 20
22.5806
 10
14.122399999999999
 20
22.758399999999998
 10
14.122399999999999
 20
23.571199999999997
 10
13.9192
 20
23.7744
  0
LWPOLYLINE
  5
AF
330
17
100
AcDbEntity
  8
0
100
AcDbPolyline
 90
12
 70
1
 10
5.0546
 20
23.7744
 10
4.8514
 20
23.571199999999997
 10
4.8514
 20
22.758399999999998
 10
4.9022
 20
22.7076
 10
4.9022
 20
22.6568
 10
5.08
 20
22.529799999999998
 10
5.460999999999999
 20
22.529799999999998
 10
5.5118
 20
22.5806
 10
5.5626
 20
22.5806
 10
5.6895999999999995
 20
22.758399999999998
 10
5.6895999999999995
 20
23.571199999999997
 10
5.4864
 20
23.7744
  0
LWPOLYLINE
  5
B0
330
17
100
AcDbEntity
  8
0
100
AcDbPolyline
 90
12
 70
1
 10
3.1496
 20
23.7744
 10
2.9463999999999997
 20
23.571199999999997
 10
2.9463999999999997
 20
22.758399999999998
 10
2.9972
 20
22.7076
 10
2.9972
 20
22.6568
 10
3.175
 20
22.529799999999998
 10
3.556
 20
22.529799999999998
 10
3.6068
 20
22.5806
 10
3.6576
 20
22.5806
 10
3.7845999999999997
 20
22.758399999999998
 10
3.7845999999999997
 20
23.571199999999997
 10
3.5814
 20
23.7744
  0
LWPOLYLINE
  5
B1
330
17
100
AcDbEntity
  8
0
100
AcDbPolyline
 90
11
 70
1
 10
20.269199999999998
 20
24.0538
 10
19.4818
 20
23.6728
 10
19.0246
 20
22.8092
 10
18.9992
 20
14.5796
 10
19.4818
 20
13.4874
 10
20.1422
 20
13.1318
 10
20.726399999999998
 20
13.106399999999999
 10
21.5138
 20
13.4874
 10
21.971
 20
14.350999999999999
 10
21.971
 20
22.8092
 10
21.386799999999997
 20
23.7744
  0
LWPOLYLINE
  5
B2
330
17
100
AcDbEntity
  8
0
100
AcDbPolyline
 90
12
 70
1
 10
31.165799999999997
 20
24.104599999999998
 10
30.9626
 20
23.9014
 10
30.9626
 20
23.0886
 10
31.013399999999997
 20
23.0378
 10
31.013399999999997
 20
22.987
 10
31.1912
 20
22.86
 10
31.5722
 20
22.86
 10
31.622999999999998
 20
22.9108
 10
31.6738
 20
22.9108
 10
31.8008
 20
23.0886
 10
31.8008
 20
23.9014
 10
31.5976
 20
24.104599999999998
  0
LWPOLYLINE
  5
B3
330
17
100
AcDbEntity
  8
0
100
AcDbPolyline
 90
12
 70
1
 10
29.2608
 20
24.104599999999998
 10
29.057599999999997
 20
23.9014
 10
29.057599999999997
 20
23.0886
 10
29.1084
 20
23.0378
 10
29.1084
 20
22.987
 10
29.286199999999997
 20
22.86
 10
29.667199999999998
 20
22.86
 10
29.718
 20
22.9108
 10
29.7688
 20
22.9108
 10
29.895799999999998
 20
23.0886
 10
29.895799999999998
 20
23.9014
 10
29.6926
 20
24.104599999999998
  0
LWPOLYLINE
  5
B4
330
17
100
AcDbEntity
  8
0
100
AcDbPolyline
 90
8
 70
1
 10
11.302999999999999
 20
24.5872
 10
11.176
 20
24.485599999999998
 10
11.176
 20
23.266399999999997
 10
11.302999999999999
 20
23.1394
 10
11.5824
 20
23.1394
 10
11.709399999999999
 20
23.266399999999997
 10
11.709399999999999
 20
24.485599999999998
 10
11.6078
 20
24.5872
  0
LWPOLYLINE
  5
B5
330
17
100
AcDbEntity
  8
0
100
AcDbPolyline
 90
8
 70
1
 10
10.3124
 20
24.5872
 10
10.1854
 20
24.485599999999998
 10
10.1854
 20
23.266399999999997
 10
10.3124
 20
23.1394
 10
10.5918
 20
23.1394
 10
10.7188
 20
23.266399999999997
 10
10.7188
 20
24.485599999999998
 10
10.6172
 20
24.5872
  0
LWPOLYLINE
  5
B6
330
17
100
AcDbEntity
  8
0
100
AcDbPolyline
 90
8
 70
1
 10
9.3218
 20
24.5872
 10
9.194799999999999
 20
24.485599999999998
 10
9.194799999999999
 20
23.266399999999997
 10
9.3218
 20
23.1394
 10
9.6012
 20
23.1394
 10
9.7282
 20
23.266399999999997
 10
9.7282
 20
24.485599999999998
 10
9.6266
 20
24.5872
  0
LWPOLYLINE
  5
B7
330
17
100
AcDbEntity
  8
0
100
AcDbPolyline
 90
8
 70
1
 10
8.3058
 20
24.5872
 10
8.178799999999999
 20
24.485599999999998
 10
8.178799999999999
 20
23.266399999999997
 10
8.3058
 20
23.1394
 10
8.5852
 20
23.1394
 10
8.7122
 20
23.266399999999997
 10
8.7122
 20
24.485599999999998
 10
8.6106
 20
24.5872
  0
LWPOLYLINE
  5
B8
330
17
100
AcDbEntity
  8
0
100
AcDbPolyline
 90
8
 70
1
 10
7.3152
 20
24.5872
 10
7.1882
 20
24.485599999999998
 10
7.1882
 20
23.266399999999997
 10
7.3152
 20
23.1394
 10
7.5946
 20
23.1394
 10
7.7216
 20
23.266399999999997
 10
7.7216
 20
24.485599999999998
 10
7.62
 20
24.5872
  0
LWPOLYLINE
  5
B9
330
17
100
AcDbEntity
  8
0
100
AcDbPolyline
 90
11
 70
1
 10
14.9352
 20
25.4
 10
14.9352
 20
24.9936
 10
14.985999999999999
 20
24.9428
 10
14.985999999999999
 20
24.892
 10
15.1638
 20
24.765
 10
15.9512
 20
24.765
 10
16.1798
 20
24.9936
 10
16.1798
 20
25.4
 10
15.9766
 20
25.603199999999998
 10
15.138399999999999
 20
25.603199999999998
 10
15.0114
 20
25.526999999999997
  0
LWPOLYLINE
  5
BA
330
17
100
AcDbEntity
  8
0
100
AcDbPolyline
 90
11
 70
1
 10
13.1572
 20
25.4
 10
13.1572
 20
24.9936
 10
13.208
 20
24.9428
 10
13.208
 20
24.892
 10
13.3858
 20
24.765
 10
14.1732
 20
24.765
 10
14.4018
 20
24.9936
 10
14.4018
 20
25.4
 10
14.198599999999999
 20
25.603199999999998
 10
13.3604
 20
25.603199999999998
 10
13.2334
 20
25.526999999999997
  0
LWPOLYLINE
  5
BB
330
17
100
AcDbEntity
  8
0
100
AcDbPolyline
 90
11
 70
1
 10
4.699
 20
25.4
 10
4.699
 20
24.9936
 10
4.7498
 20
24.9428
 10
4.7498
 20
24.892
 10
4.9276
 20
24.765
 10
5.715
 20
24.765
 10
5.9436
 20
24.9936
 10
5.9436
 20
25.4
 10
5.7404
 20
25.603199999999998
 10
4.9022
 20
25.603199999999998
 10
4.7752
 20
25.526999999999997
  0
LWPOLYLINE
  5
BC
330
17
100
AcDbEntity
  8
0
100
AcDbPolyline
 90
11
 70
1
 10
2.794
 20
25.4
 10
2.794
 20
24.9936
 10
2.8447999999999998
 20
24.9428
 10
2.8447999999999998
 20
24.892
 10
3.0225999999999997
 20
24.765
 10
3.81
 20
24.765
 10
4.0386
 20
24.9936
 10
4.0386
 20
25.4
 10
3.8354
 20
25.603199999999998
 10
2.9972
 20
25.603199999999998
 10
2.8702
 20
25.526999999999997
  0
LWPOLYLINE
  5
BD
330
17
100
AcDbEntity
  8
0
100
AcDbPolyline
 90
11
 70
1
 10
31.089599999999997
 20
25.450799999999997
 10
31.089599999999997
 20
25.0444
 10
31.1404
 20
24.9936
 10
31.1404
 20
24.9428
 10
31.318199999999997
 20
24.8158
 10
32.105599999999995
 20
24.8158
 10
32.334199999999996
 20
25.0444
 10
32.334199999999996
 20
25.450799999999997
 10
32.131
 20
25.654
 10
31.2928
 20
25.654
 10
31.165799999999997
 20
25.5778
  0
LWPOLYLINE
  5
BE
330
17
100
AcDbEntity
  8
0
100
AcDbPolyline
 90
11
 70
1
 10
28.8544
 20
25.450799999999997
 10
28.8544
 20
25.0444
 10
28.905199999999997
 20
24.9936
 10
28.905199999999997
 20
24.9428
 10
29.083
 20
24.8158
 10
29.8704
 20
24.8158
 10
30.099
 20
25.0444
 10
30.099
 20
25.450799999999997
 10
29.895799999999998
 20
25.654
 10
29.057599999999997
 20
25.654
 10
28.9306
 20
25.5778
  0
LWPOLYLINE
  5
BF
330
17
100
AcDbEntity
  8
0
100
AcDbPolyline
 90
11
 70
1
 10
26.7208
 20
25.450799999999997
 10
26.7208
 20
25.0444
 10
26.7716
 20
24.9936
 10
26.7716
 20
24.9428
 10
26.949399999999997
 20
24.8158
 10
27.7368
 20
24.8158
 10
27.9654
 20
25.0444
 10
27.9654
 20
25.450799999999997
 10
27.7622
 20
25.654
 10
26.924
 20
25.654
 10
26.797
 20
25.5778
  0
LWPOLYLINE
  5
C0
330
17
100
AcDbEntity
  8
0
100
AcDbPolyline
 90
4
 70
1
 10
33.8836
 20
26.136599999999998
 10
33.8836
 20
24.511
 10
37.0586
 20
24.511
 10
37.0586
 20
26.136599999999998
  0
LWPOLYLINE
  5
C1
330
17
100
AcDbEntity
  8
0
100
AcDbPolyline
 90
12
 70
1
 10
11.2014
 20
27.1272
 10
10.998199999999999
 20
26.924
 10
10.998199999999999
 20
26.1112
 10
11.049
 20
26.060399999999998
 10
11.049
 20
26.0096
 10
11.226799999999999
 20
25.8826
 10
11.6078
 20
25.8826
 10
11.6586
 20
25.9334
 10
11.709399999999999
 20
25.9334
 10
11.8364
 20
26.1112
 10
11.8364
 20
26.924
 10
11.633199999999999
 20
27.1272
  0
LWPOLYLINE
  5
C2
330
17
100
AcDbEntity
  8
0
100
AcDbPolyline
 90
12
 70
1
 10
9.2964
 20
27.1272
 10
9.0932
 20
26.924
 10
9.0932
 20
26.1112
 10
9.144
 20
26.060399999999998
 10
9.144
 20
26.0096
 10
9.3218
 20
25.8826
 10
9.7028
 20
25.8826
 10
9.753599999999999
 20
25.9334
 10
9.8044
 20
25.9334
 10
9.9314
 20
26.1112
 10
9.9314
 20
26.924
 10
9.7282
 20
27.1272
  0
LWPOLYLINE
  5
C3
330
17
100
AcDbEntity
  8
0
100
AcDbPolyline
 90
11
 70
1
 10
14.9352
 20
27.305
 10
14.9352
 20
26.8986
 10
14.985999999999999
 20
26.8478
 10
14.985999999999999
 20
26.797
 10
15.1638
 20
26.669999999999998
 10
15.9512
 20
26.669999999999998
 10
16.1798
 20
26.8986
 10
16.1798
 20
27.305
 10
15.9766
 20
27.5082
 10
15.138399999999999
 20
27.5082
 10
15.0114
 20
27.432
  0
LWPOLYLINE
  5
C4
330
17
100
AcDbEntity
  8
0
100
AcDbPolyline
 90
11
 70
1
 10
13.1572
 20
27.305
 10
13.1572
 20
26.8986
 10
13.208
 20
26.8478
 10
13.208
 20
26.797
 10
13.3858
 20
26.669999999999998
 10
14.1732
 20
26.669999999999998
 10
14.4018
 20
26.8986
 10
14.4018
 20
27.305
 10
14.198599999999999
 20
27.5082
 10
13.3604
 20
27.5082
 10
13.2334
 20
27.432
  0
LWPOLYLINE
  5
C5
330
17
100
AcDbEntity
  8
0
100
AcDbPolyline
 90
11
 70
1
 10
4.699
 20
27.305
 10
4.699
 20
26.8986
 10
4.7498
 20
26.8478
 10
4.7498
 20
26.797
 10
4.9276
 20
26.669999999999998
 10
5.715
 20
26.669999999999998
 10
5.9436
 20
26.8986
 10
5.9436
 20
27.305
 10
5.7404
 20
27.5082
 10
4.9022
 20
27.5082
 10
4.7752
 20
27.432
  0
LWPOLYLINE
  5
C6
330
17
100
AcDbEntity
  8
0
100
AcDbPolyline
 90
11
 70
1
 10
2.794
 20
27.305
 10
2.794
 20
26.8986
 10
2.8447999999999998
 20
26.8478
 10
2.8447999999999998
 20
26.797
 10
3.0225999999999997
 20
26.669999999999998
 10
3.81
 20
26.669999999999998
 10
4.0386
 20
26.8986
 10
4.0386
 20
27.305
 10
3.8354
 20
27.5082
 10
2.9972
 20
27.5082
 10
2.8702
 20
27.432
  0
LWPOLYLINE
  5
C7
330
17
100
AcDbEntity
  8
0
100
AcDbPolyline
 90
11
 70
1
 10
31.089599999999997
 20
27.3558
 10
31.089599999999997
 20
26.949399999999997
 10
31.1404
 20
26.8986
 10
31.1404
 20
26.8478
 10
31.318199999999997
 20
26.7208
 10
32.105599999999995
 20
26.7208
 10
32.334199999999996
 20
26.949399999999997
 10
32.334199999999996
 20
27.3558
 10
32.131
 20
27.558999999999997
 10
31.2928
 20
27.558999999999997
 10
31.165799999999997
 20
27.482799999999997
  0
LWPOLYLINE
  5
C8
330
17
100
AcDbEntity
  8
0
100
AcDbPolyline
 90
11
 70
1
 10
28.8544
 20
27.3558
 10
28.8544
 20
26.949399999999997
 10
28.905199999999997
 20
26.8986
 10
28.905199999999997
 20
26.8478
 10
29.083
 20
26.7208
 10
29.8704
 20
26.7208
 10
30.099
 20
26.949399999999997
 10
30.099
 20
27.3558
 10
29.895799999999998
 20
27.558999999999997
 10
29.057599999999997
 20
27.558999999999997
 10
28.9306
 20
27.482799999999997
  0
LWPOLYLINE
  5
C9
330
17
100
AcDbEntity
  8
0
100
AcDbPolyline
 90
11
 70
1
 10
26.7208
 20
27.3558
 10
26.7208
 20
26.949399999999997
 10
26.7716
 20
26.8986
 10
26.7716
 20
26.8478
 10
26.949399999999997
 20
26.7208
 10
27.7368
 20
26.7208
 10
27.9654
 20
26.949399999999997
 10
27.9654
 20
27.3558
 10
27.7622
 20
27.558999999999997
 10
26.924
 20
27.558999999999997
 10
26.797
 20
27.482799999999997
  0
LWPOLYLINE
  5
CA
330
17
100
AcDbEntity
  8
0
100
AcDbPolyline
 90
14
 70
1
 10
30.226
 20
29.4132
 10
30.124399999999998
 20
29.3116
 10
30.124399999999998
 20
28.6004
 10
30.1752
 20
28.549599999999998
 10
30.1752
 20
28.5242
 10
30.200599999999998
 20
28.5242
 10
30.2514
 20
28.473399999999998
 10
30.429199999999998
 20
28.473399999999998
 10
30.48
 20
28.5242
 10
30.505399999999998
 20
28.5242
 10
30.505399999999998
 20
28.549599999999998
 10
30.5562
 20
28.6004
 10
30.5562
 20
29.3116
 10
30.4546
 20
29.4132
  0
LWPOLYLINE
  5
CB
330
17
100
AcDbEntity
  8
0
100
AcDbPolyline
 90
14
 70
1
 10
29.286199999999997
 20
29.4132
 10
29.1846
 20
29.3116
 10
29.1846
 20
28.6004
 10
29.2354
 20
28.549599999999998
 10
29.2354
 20
28.5242
 10
29.2608
 20
28.5242
 10
29.3116
 20
28.473399999999998
 10
29.4894
 20
28.473399999999998
 10
29.5402
 20
28.5242
 10
29.5656
 20
28.5242
 10
29.5656
 20
28.549599999999998
 10
29.6164
 20
28.6004
 10
29.6164
 20
29.3116
 10
29.514799999999997
 20
29.4132
  0
LWPOLYLINE
  5
CC
330
17
100
AcDbEntity
  8
0
100
AcDbPolyline
 90
14
 70
1
 10
28.3464
 20
29.4132
 10
28.244799999999998
 20
29.3116
 10
28.244799999999998
 20
28.6004
 10
28.2956
 20
28.549599999999998
 10
28.2956
 20
28.5242
 10
28.320999999999998
 20
28.5242
 10
28.3718
 20
28.473399999999998
 10
28.549599999999998
 20
28.473399999999998
 10
28.6004
 20
28.5242
 10
28.625799999999998
 20
28.5242
 10
28.625799999999998
 20
28.549599999999998
 10
28.6766
 20
28.6004
 10
28.6766
 20
29.3116
 10
28.575
 20
29.4132
  0
LWPOLYLINE
  5
CD
330
17
100
AcDbEntity
  8
0
100
AcDbPolyline
 90
11
 70
1
 10
31.622999999999998
 20
29.464
 10
31.622999999999998
 20
29.057599999999997
 10
31.6738
 20
29.0068
 10
31.6738
 20
28.956
 10
31.851599999999998
 20
28.828999999999997
 10
32.638999999999996
 20
28.828999999999997
 10
32.867599999999996
 20
29.057599999999997
 10
32.867599999999996
 20
29.464
 10
32.6644
 20
29.667199999999998
 10
31.8262
 20
29.667199999999998
 10
31.699199999999998
 20
29.590999999999998
  0
LWPOLYLINE
  5
CE
330
17
100
AcDbEntity
  8
0
100
AcDbPolyline
 90
11
 70
1
 10
25.9334
 20
29.464
 10
25.9334
 20
29.057599999999997
 10
25.984199999999998
 20
29.0068
 10
25.984199999999998
 20
28.956
 10
26.162
 20
28.828999999999997
 10
26.949399999999997
 20
28.828999999999997
 10
27.177999999999997
 20
29.057599999999997
 10
27.177999999999997
 20
29.464
 10
26.9748
 20
29.667199999999998
 10
26.136599999999998
 20
29.667199999999998
 10
26.0096
 20
29.590999999999998
  0
LWPOLYLINE
  5
CF
330
17
100
AcDbEntity
  8
0
100
AcDbPolyline
 90
13
 70
1
 10
2.7685999999999997
 20
30.0228
 10
2.7432
 20
29.9466
 10
2.7432
 20
29.3878
 10
2.7685999999999997
 20
29.3116
 10
2.8702
 20
29.209999999999997
 10
2.9463999999999997
 20
29.1846
 10
3.8608
 20
29.1846
 10
3.937
 20
29.209999999999997
 10
4.0386
 20
29.3116
 10
4.0893999999999995
 20
29.438599999999997
 10
4.0893999999999995
 20
29.9466
 10
3.8608
 20
30.1752
 10
2.9718
 20
30.1752
  0
LWPOLYLINE
  5
D0
330
17
100
AcDbEntity
  8
0
100
AcDbPolyline
 90
13
 70
1
 10
15.2654
 20
30.048199999999998
 10
15.24
 20
29.971999999999998
 10
15.24
 20
29.4132
 10
15.2654
 20
29.337
 10
15.366999999999999
 20
29.2354
 10
15.4432
 20
29.209999999999997
 10
16.357599999999998
 20
29.209999999999997
 10
16.433799999999998
 20
29.2354
 10
16.5354
 20
29.337
 10
16.586199999999998
 20
29.464
 10
16.586199999999998
 20
29.971999999999998
 10
16.357599999999998
 20
30.200599999999998
 10
15.468599999999999
 20
30.200599999999998
  0
LWPOLYLINE
  5
D1
330
17
100
AcDbEntity
  8
0
100
AcDbPolyline
 90
11
 70
1
 10
31.622999999999998
 20
31.369
 10
31.622999999999998
 20
30.9626
 10
31.6738
 20
30.9118
 10
31.6738
 20
30.860999999999997
 10
31.851599999999998
 20
30.733999999999998
 10
32.638999999999996
 20
30.733999999999998
 10
32.867599999999996
 20
30.9626
 10
32.867599999999996
 20
31.369
 10
32.6644
 20
31.5722
 10
31.8262
 20
31.5722
 10
31.699199999999998
 20
31.496
  0
LWPOLYLINE
  5
D2
330
17
100
AcDbEntity
  8
0
100
AcDbPolyline
 90
11
 70
1
 10
25.9334
 20
31.369
 10
25.9334
 20
30.9626
 10
25.984199999999998
 20
30.9118
 10
25.984199999999998
 20
30.860999999999997
 10
26.162
 20
30.733999999999998
 10
26.949399999999997
 20
30.733999999999998
 10
27.177999999999997
 20
30.9626
 10
27.177999999999997
 20
31.369
 10
26.9748
 20
31.5722
 10
26.136599999999998
 20
31.5722
 10
26.0096
 20
31.496
  0
LWPOLYLINE
  5
D3
330
17
100
AcDbEntity
  8
0
100
AcDbPolyline
 90
14
 70
1
 10
30.226
 20
31.8262
 10
30.124399999999998
 20
31.7246
 10
30.124399999999998
 20
31.013399999999997
 10
30.1752
 20
30.9626
 10
30.1752
 20
30.937199999999997
 10
30.200599999999998
 20
30.937199999999997
 10
30.2514
 20
30.8864
 10
30.429199999999998
 20
30.8864
 10
30.48
 20
30.937199999999997
 10
30.505399999999998
 20
30.937199999999997
 10
30.505399999999998
 20
30.9626
 10
30.5562
 20
31.013399999999997
 10
30.5562
 20
31.7246
 10
30.4546
 20
31.8262
  0
LWPOLYLINE
  5
D4
330
17
100
AcDbEntity
  8
0
100
AcDbPolyline
 90
14
 70
1
 10
28.3464
 20
31.8262
 10
28.244799999999998
 20
31.7246
 10
28.244799999999998
 20
31.013399999999997
 10
28.2956
 20
30.9626
 10
28.2956
 20
30.937199999999997
 10
28.320999999999998
 20
30.937199999999997
 10
28.3718
 20
30.8864
 10
28.549599999999998
 20
30.8864
 10
28.6004
 20
30.937199999999997
 10
28.625799999999998
 20
30.937199999999997
 10
28.625799999999998
 20
30.9626
 10
28.6766
 20
31.013399999999997
 10
28.6766
 20
31.7246
 10
28.575
 20
31.8262
  0
LWPOLYLINE
  5
D5
330
17
100
AcDbEntity
  8
0
100
AcDbPolyline
 90
4
 70
1
 10
33.8836
 20
32.0802
 10
33.8836
 20
30.4546
 10
37.0586
 20
30.4546
 10
37.0586
 20
32.0802
  0
LWPOLYLINE
  5
D6
330
17
100
AcDbEntity
  8
0
100
AcDbPolyline
 90
13
 70
1
 10
2.7685999999999997
 20
32.3088
 10
2.7432
 20
32.2326
 10
2.7432
 20
31.6738
 10
2.7685999999999997
 20
31.5976
 10
2.8702
 20
31.496
 10
2.9463999999999997
 20
31.470599999999997
 10
3.8608
 20
31.470599999999997
 10
3.937
 20
31.496
 10
4.0386
 20
31.5976
 10
4.0893999999999995
 20
31.7246
 10
4.0893999999999995
 20
32.2326
 10
3.8608
 20
32.4612
 10
2.9718
 20
32.4612
  0
LWPOLYLINE
  5
D7
330
17
100
AcDbEntity
  8
0
100
AcDbPolyline
 90
13
 70
1
 10
15.2654
 20
32.334199999999996
 10
15.24
 20
32.257999999999996
 10
15.24
 20
31.699199999999998
 10
15.2654
 20
31.622999999999998
 10
15.366999999999999
 20
31.5214
 10
15.4432
 20
31.496
 10
16.357599999999998
 20
31.496
 10
16.433799999999998
 20
31.5214
 10
16.5354
 20
31.622999999999998
 10
16.586199999999998
 20
31.75
 10
16.586199999999998
 20
32.257999999999996
 10
16.357599999999998
 20
32.486599999999996
 10
15.468599999999999
 20
32.486599999999996
  0
LWPOLYLINE
  5
D8
330
17
100
AcDbEntity
  8
0
100
AcDbPolyline
 90
13
 70
1
 10
11.3284
 20
32.334199999999996
 10
11.3284
 20
31.6738
 10
11.4046
 20
31.496
 10
11.5062
 20
31.394399999999997
 10
11.684
 20
31.318199999999997
 10
13.030199999999999
 20
31.318199999999997
 10
13.182599999999999
 20
31.394399999999997
 10
13.3858
 20
31.6738
 10
13.3858
 20
32.334199999999996
 10
13.2842
 20
32.486599999999996
 10
13.0556
 20
32.6644
 10
11.6586
 20
32.6644
 10
11.5062
 20
32.5882
  0
LWPOLYLINE
  5
D9
330
17
100
AcDbEntity
  8
0
100
AcDbPolyline
 90
16
 70
1
 10
8.026399999999999
 20
32.6644
 10
7.9756
 20
32.512
 10
7.9756
 20
31.877
 10
8.026399999999999
 20
31.7246
 10
8.102599999999999
 20
31.6484
 10
8.2296
 20
31.622999999999998
 10
8.2804
 20
31.5722
 10
9.017
 20
31.5722
 10
9.2456
 20
31.7246
 10
9.3218
 20
31.877
 10
9.3218
 20
32.5374
 10
9.1694
 20
32.7406
 10
9.042399999999999
 20
32.8168
 10
8.2804
 20
32.8168
 10
8.2296
 20
32.766
 10
8.102599999999999
 20
32.7406
  0
LWPOLYLINE
  5
DA
330
17
100
AcDbEntity
  8
0
100
AcDbPolyline
 90
16
 70
1
 10
5.2324
 20
32.6644
 10
5.1815999999999995
 20
32.512
 10
5.1815999999999995
 20
31.877
 10
5.2324
 20
31.7246
 10
5.3086
 20
31.6484
 10
5.4356
 20
31.622999999999998
 10
5.4864
 20
31.5722
 10
6.223
 20
31.5722
 10
6.4516
 20
31.7246
 10
6.5278
 20
31.877
 10
6.5278
 20
32.5374
 10
6.3754
 20
32.7406
 10
6.2484
 20
32.8168
 10
5.4864
 20
32.8168
 10
5.4356
 20
32.766
 10
5.3086
 20
32.7406
  0
LWPOLYLINE
  5
DB
330
17
100
AcDbEntity
  8
0
100
AcDbPolyline
 90
11
 70
1
 10
25.9334
 20
32.893
 10
25.9334
 20
32.486599999999996
 10
25.984199999999998
 20
32.4358
 10
25.984199999999998
 20
32.385
 10
26.162
 20
32.257999999999996
 10
26.949399999999997
 20
32.257999999999996
 10
27.177999999999997
 20
32.486599999999996
 10
27.177999999999997
 20
32.893
 10
26.9748
 20
33.096199999999996
 10
26.136599999999998
 20
33.096199999999996
 10
26.0096
 20
33.019999999999996
  0
LWPOLYLINE
  5
DC
330
17
100
AcDbEntity
  8
0
100
AcDbPolyline
 90
12
 70
1
 10
29.9974
 20
33.9344
 10
29.7942
 20
33.7312
 10
29.7942
 20
32.9184
 10
29.845
 20
32.867599999999996
 10
29.845
 20
32.8168
 10
30.0228
 20
32.6898
 10
30.4038
 20
32.6898
 10
30.4546
 20
32.7406
 10
30.505399999999998
 20
32.7406
 10
30.6324
 20
32.9184
 10
30.6324
 20
33.7312
 10
30.429199999999998
 20
33.9344
  0
LWPOLYLINE
  5
DD
330
17
100
AcDbEntity
  8
0
100
AcDbPolyline
 90
12
 70
1
 10
28.092399999999998
 20
33.9344
 10
27.8892
 20
33.7312
 10
27.8892
 20
32.9184
 10
27.939999999999998
 20
32.867599999999996
 10
27.939999999999998
 20
32.8168
 10
28.1178
 20
32.6898
 10
28.4988
 20
32.6898
 10
28.549599999999998
 20
32.7406
 10
28.6004
 20
32.7406
 10
28.7274
 20
32.9184
 10
28.7274
 20
33.7312
 10
28.5242
 20
33.9344
  0
LWPOLYLINE
  5
DE
330
17
100
AcDbEntity
  8
0
100
AcDbPolyline
 90
12
 70
1
 10
36.093399999999995
 20
34.29
 10
35.8902
 20
34.0868
 10
35.8902
 20
33.274
 10
35.940999999999995
 20
33.2232
 10
35.940999999999995
 20
33.172399999999996
 10
36.1188
 20
33.0454
 10
36.4998
 20
33.0454
 10
36.550599999999996
 20
33.096199999999996
 10
36.6014
 20
33.096199999999996
 10
36.7284
 20
33.274
 10
36.7284
 20
34.0868
 10
36.5252
 20
34.29
  0
LWPOLYLINE
  5
DF
330
17
100
AcDbEntity
  8
0
100
AcDbPolyline
 90
12
 70
1
 10
34.2138
 20
34.29
 10
34.0106
 20
34.0868
 10
34.0106
 20
33.274
 10
34.0614
 20
33.2232
 10
34.0614
 20
33.172399999999996
 10
34.2392
 20
33.0454
 10
34.6202
 20
33.0454
 10
34.671
 20
33.096199999999996
 10
34.7218
 20
33.096199999999996
 10
34.8488
 20
33.274
 10
34.8488
 20
34.0868
 10
34.6456
 20
34.29
  0
LWPOLYLINE
  5
E0
330
17
100
AcDbEntity
  8
0
100
AcDbPolyline
 90
11
 70
1
 10
8.4328
 20
34.7218
 10
8.4328
 20
34.3154
 10
8.4836
 20
34.2646
 10
8.4836
 20
34.2138
 10
8.6614
 20
34.0868
 10
9.4488
 20
34.0868
 10
9.6774
 20
34.3154
 10
9.6774
 20
34.7218
 10
9.4742
 20
34.925
 10
8.636
 20
34.925
 10
8.509
 20
34.8488
  0
LWPOLYLINE
  5
E1
330
17
100
AcDbEntity
  8
0
100
AcDbPolyline
 90
11
 70
1
 10
2.794
 20
34.7218
 10
2.794
 20
34.3154
 10
2.8447999999999998
 20
34.2646
 10
2.8447999999999998
 20
34.2138
 10
3.0225999999999997
 20
34.0868
 10
3.81
 20
34.0868
 10
4.0386
 20
34.3154
 10
4.0386
 20
34.7218
 10
3.8354
 20
34.925
 10
2.9972
 20
34.925
 10
2.8702
 20
34.8488
  0
LWPOLYLINE
  5
E2
330
17
100
AcDbEntity
  8
0
100
AcDbPolyline
 90
13
 70
1
 10
7.0611999999999995
 20
34.9504
 10
6.984999999999999
 20
34.8996
 10
6.9596
 20
34.8488
 10
6.9596
 20
33.909
 10
6.984999999999999
 20
33.8836
 10
6.984999999999999
 20
33.8328
 10
7.0358
 20
33.8328
 10
7.0611999999999995
 20
33.8074
 10
7.3152
 20
33.8074
 10
7.366
 20
33.8328
 10
7.4422
 20
33.9344
 10
7.4422
 20
34.8488
 10
7.340599999999999
 20
34.9504
  0
LWPOLYLINE
  5
E3
330
17
100
AcDbEntity
  8
0
100
AcDbPolyline
 90
13
 70
1
 10
6.1213999999999995
 20
34.9504
 10
6.0451999999999995
 20
34.8996
 10
6.0198
 20
34.8488
 10
6.0198
 20
33.909
 10
6.0451999999999995
 20
33.8836
 10
6.0451999999999995
 20
33.8328
 10
6.096
 20
33.8328
 10
6.1213999999999995
 20
33.8074
 10
6.3754
 20
33.8074
 10
6.4262
 20
33.8328
 10
6.5024
 20
33.9344
 10
6.5024
 20
34.8488
 10
6.400799999999999
 20
34.9504
  0
LWPOLYLINE
  5
E4
330
17
100
AcDbEntity
  8
0
100
AcDbPolyline
 90
13
 70
1
 10
5.1562
 20
34.9504
 10
5.08
 20
34.8996
 10
5.0546
 20
34.8488
 10
5.0546
 20
33.909
 10
5.08
 20
33.8836
 10
5.08
 20
33.8328
 10
5.1308
 20
33.8328
 10
5.1562
 20
33.8074
 10
5.4102
 20
33.8074
 10
5.460999999999999
 20
33.8328
 10
5.5371999999999995
 20
33.9344
 10
5.5371999999999995
 20
34.8488
 10
5.4356
 20
34.9504
  0
LWPOLYLINE
  5
E5
330
17
100
AcDbEntity
  8
0
100
AcDbPolyline
 90
11
 70
1
 10
25.9334
 20
34.798
 10
25.9334
 20
34.3916
 10
25.984199999999998
 20
34.3408
 10
25.984199999999998
 20
34.29
 10
26.162
 20
34.163
 10
26.949399999999997
 20
34.163
 10
27.177999999999997
 20
34.3916
 10
27.177999999999997
 20
34.798
 10
26.9748
 20
35.0012
 10
26.136599999999998
 20
35.0012
 10
26.0096
 20
34.925
  0
LWPOLYLINE
  5
E6
330
17
100
AcDbEntity
  8
0
100
AcDbPolyline
 90
11
 70
1
 10
36.1188
 20
35.814
 10
36.1188
 20
35.6108
 10
36.169599999999996
 20
35.559999999999995
 10
36.169599999999996
 20
35.5346
 10
36.195
 20
35.5346
 10
36.245799999999996
 20
35.483799999999995
 10
36.931599999999996
 20
35.483799999999995
 10
37.0586
 20
35.6108
 10
37.0586
 20
35.814
 10
36.957
 20
35.9156
 10
36.2204
 20
35.9156
  0
LWPOLYLINE
  5
E7
330
17
100
AcDbEntity
  8
0
100
AcDbPolyline
 90
11
 70
1
 10
33.705799999999996
 20
35.814
 10
33.705799999999996
 20
35.6108
 10
33.7566
 20
35.559999999999995
 10
33.7566
 20
35.5346
 10
33.782
 20
35.5346
 10
33.8328
 20
35.483799999999995
 10
34.5186
 20
35.483799999999995
 10
34.6456
 20
35.6108
 10
34.6456
 20
35.814
 10
34.544
 20
35.9156
 10
33.8074
 20
35.9156
  0
LWPOLYLINE
  5
E8
330
17
100
AcDbEntity
  8
0
100
AcDbPolyline
 90
11
 70
1
 10
31.699199999999998
 20
35.712399999999995
 10
31.699199999999998
 20
35.306
 10
31.75
 20
35.2552
 10
31.75
 20
35.2044
 10
31.927799999999998
 20
35.0774
 10
32.715199999999996
 20
35.0774
 10
32.943799999999996
 20
35.306
 10
32.943799999999996
 20
35.712399999999995
 10
32.7406
 20
35.9156
 10
31.9024
 20
35.9156
 10
31.775399999999998
 20
35.8394
  0
LWPOLYLINE
  5
E9
330
17
100
AcDbEntity
  8
0
100
AcDbPolyline
 90
12
 70
1
 10
30.048199999999998
 20
35.9664
 10
29.845
 20
35.7632
 10
29.845
 20
34.9504
 10
29.895799999999998
 20
34.8996
 10
29.895799999999998
 20
34.8488
 10
30.0736
 20
34.7218
 10
30.4546
 20
34.7218
 10
30.505399999999998
 20
34.7726
 10
30.5562
 20
34.7726
 10
30.6832
 20
34.9504
 10
30.6832
 20
35.7632
 10
30.48
 20
35.9664
  0
LWPOLYLINE
  5
EA
330
17
100
AcDbEntity
  8
0
100
AcDbPolyline
 90
12
 70
1
 10
28.168599999999998
 20
35.9664
 10
27.9654
 20
35.7632
 10
27.9654
 20
34.9504
 10
28.016199999999998
 20
34.8996
 10
28.016199999999998
 20
34.8488
 10
28.194
 20
34.7218
 10
28.575
 20
34.7218
 10
28.625799999999998
 20
34.7726
 10
28.6766
 20
34.7726
 10
28.8036
 20
34.9504
 10
28.8036
 20
35.7632
 10
28.6004
 20
35.9664
  0
LWPOLYLINE
  5
EB
330
17
100
AcDbEntity
  8
0
100
AcDbPolyline
 90
13
 70
1
 10
11.3284
 20
36.1442
 10
11.3284
 20
35.483799999999995
 10
11.4046
 20
35.306
 10
11.5062
 20
35.2044
 10
11.684
 20
35.1282
 10
13.030199999999999
 20
35.1282
 10
13.182599999999999
 20
35.2044
 10
13.3858
 20
35.483799999999995
 10
13.3858
 20
36.1442
 10
13.2842
 20
36.2966
 10
13.0556
 20
36.474399999999996
 10
11.6586
 20
36.474399999999996
 10
11.5062
 20
36.398199999999996
  0
LWPOLYLINE
  5
EC
330
17
100
AcDbEntity
  8
0
100
AcDbPolyline
 90
11
 70
1
 10
8.4328
 20
36.626799999999996
 10
8.4328
 20
36.2204
 10
8.4836
 20
36.169599999999996
 10
8.4836
 20
36.1188
 10
8.6614
 20
35.9918
 10
9.4488
 20
35.9918
 10
9.6774
 20
36.2204
 10
9.6774
 20
36.626799999999996
 10
9.4742
 20
36.83
 10
8.636
 20
36.83
 10
8.509
 20
36.7538
  0
LWPOLYLINE
  5
ED
330
17
100
AcDbEntity
  8
0
100
AcDbPolyline
 90
11
 70
1
 10
2.794
 20
36.626799999999996
 10
2.794
 20
36.2204
 10
2.8447999999999998
 20
36.169599999999996
 10
2.8447999999999998
 20
36.1188
 10
3.0225999999999997
 20
35.9918
 10
3.81
 20
35.9918
 10
4.0386
 20
36.2204
 10
4.0386
 20
36.626799999999996
 10
3.8354
 20
36.83
 10
2.9972
 20
36.83
 10
2.8702
 20
36.7538
  0
LWPOLYLINE
  5
EE
330
17
100
AcDbEntity
  8
0
100
AcDbPolyline
 90
11
 70
1
 10
33.705799999999996
 20
36.7538
 10
33.705799999999996
 20
36.550599999999996
 10
33.7566
 20
36.4998
 10
33.7566
 20
36.474399999999996
 10
33.782
 20
36.474399999999996
 10
33.8328
 20
36.4236
 10
34.5186
 20
36.4236
 10
34.6456
 20
36.550599999999996
 10
34.6456
 20
36.7538
 10
34.544
 20
36.855399999999996
 10
33.8074
 20
36.855399999999996
  0
LWPOLYLINE
  5
EF
330
17
100
AcDbEntity
  8
0
100
AcDbPolyline
 90
13
 70
1
 10
7.0611999999999995
 20
37.1094
 10
6.984999999999999
 20
37.0586
 10
6.9596
 20
37.007799999999996
 10
6.9596
 20
36.068
 10
6.984999999999999
 20
36.0426
 10
6.984999999999999
 20
35.9918
 10
7.0358
 20
35.9918
 10
7.0611999999999995
 20
35.9664
 10
7.3152
 20
35.9664
 10
7.366
 20
35.9918
 10
7.4422
 20
36.093399999999995
 10
7.4422
 20
37.007799999999996
 10
7.340599999999999
 20
37.1094
  0
LWPOLYLINE
  5
F0
330
17
100
AcDbEntity
  8
0
100
AcDbPolyline
 90
13
 70
1
 10
6.1213999999999995
 20
37.1094
 10
6.0451999999999995
 20
37.0586
 10
6.0198
 20
37.007799999999996
 10
6.0198
 20
36.068
 10
6.0451999999999995
 20
36.0426
 10
6.0451999999999995
 20
35.9918
 10
6.096
 20
35.9918
 10
6.1213999999999995
 20
35.9664
 10
6.3754
 20
35.9664
 10
6.4262
 20
35.9918
 10
6.5024
 20
36.093399999999995
 10
6.5024
 20
37.007799999999996
 10
6.400799999999999
 20
37.1094
  0
LWPOLYLINE
  5
F1
330
17
100
AcDbEntity
  8
0
100
AcDbPolyline
 90
13
 70
1
 10
5.1562
 20
37.1094
 10
5.08
 20
37.0586
 10
5.0546
 20
37.007799999999996
 10
5.0546
 20
36.068
 10
5.08
 20
36.0426
 10
5.08
 20
35.9918
 10
5.1308
 20
35.9918
 10
5.1562
 20
35.9664
 10
5.4102
 20
35.9664
 10
5.460999999999999
 20
35.9918
 10
5.5371999999999995
 20
36.093399999999995
 10
5.5371999999999995
 20
37.007799999999996
 10
5.4356
 20
37.1094
  0
LWPOLYLINE
  5
F2
330
17
100
AcDbEntity
  8
0
100
AcDbPolyline
 90
11
 70
1
 10
31.699199999999998
 20
37.592
 10
31.699199999999998
 20
37.1856
 10
31.75
 20
37.1348
 10
31.75
 20
37.083999999999996
 10
31.927799999999998
 20
36.957
 10
32.715199999999996
 20
36.957
 10
32.943799999999996
 20
37.1856
 10
32.943799999999996
 20
37.592
 10
32.7406
 20
37.7952
 10
31.9024
 20
37.7952
 10
31.775399999999998
 20
37.719
  0
LWPOLYLINE
  5
F3
330
17
100
AcDbEntity
  8
0
100
AcDbPolyline
 90
11
 70
1
 10
36.1188
 20
37.719
 10
36.1188
 20
37.5158
 10
36.169599999999996
 20
37.464999999999996
 10
36.169599999999996
 20
37.4396
 10
36.195
 20
37.4396
 10
36.245799999999996
 20
37.388799999999996
 10
36.931599999999996
 20
37.388799999999996
 10
37.0586
 20
37.5158
 10
37.0586
 20
37.719
 10
36.957
 20
37.8206
 10
36.2204
 20
37.8206
  0
LWPOLYLINE
  5
F4
330
17
100
AcDbEntity
  8
0
100
AcDbPolyline
 90
11
 70
1
 10
33.705799999999996
 20
37.719
 10
33.705799999999996
 20
37.5158
 10
33.7566
 20
37.464999999999996
 10
33.7566
 20
37.4396
 10
33.782
 20
37.4396
 10
33.8328
 20
37.388799999999996
 10
34.5186
 20
37.388799999999996
 10
34.6456
 20
37.5158
 10
34.6456
 20
37.719
 10
34.544
 20
37.8206
 10
33.8074
 20
37.8206
  0
LWPOLYLINE
  5
F5
330
17
100
AcDbEntity
  8
0
100
AcDbPolyline
 90
12
 70
1
 10
30.048199999999998
 20
38.227
 10
29.845
 20
38.0238
 10
29.845
 20
37.211
 10
29.895799999999998
 20
37.160199999999996
 10
29.895799999999998
 20
37.1094
 10
30.0736
 20
36.9824
 10
30.4546
 20
36.9824
 10
30.505399999999998
 20
37.0332
 10
30.5562
 20
37.0332
 10
30.6832
 20
37.211
 10
30.6832
 20
38.0238
 10
30.48
 20
38.227
  0
LWPOLYLINE
  5
F6
330
17
100
AcDbEntity
  8
0
100
AcDbPolyline
 90
12
 70
1
 10
28.168599999999998
 20
38.227
 10
27.9654
 20
38.0238
 10
27.9654
 20
37.211
 10
28.016199999999998
 20
37.160199999999996
 10
28.016199999999998
 20
37.1094
 10
28.194
 20
36.9824
 10
28.575
 20
36.9824
 10
28.625799999999998
 20
37.0332
 10
28.6766
 20
37.0332
 10
28.8036
 20
37.211
 10
28.8036
 20
38.0238
 10
28.6004
 20
38.227
  0
LWPOLYLINE
  5
F7
330
17
100
AcDbEntity
  8
0
100
AcDbPolyline
 90
11
 70
1
 10
8.8138
 20
38.989
 10
8.8138
 20
38.5826
 10
8.8646
 20
38.5318
 10
8.8646
 20
38.481
 10
9.042399999999999
 20
38.354
 10
9.829799999999999
 20
38.354
 10
10.058399999999999
 20
38.5826
 10
10.058399999999999
 20
38.989
 10
9.8552
 20
39.1922
 10
9.017
 20
39.1922
 10
8.889999999999999
 20
39.116
  0
LWPOLYLINE
  5
F8
330
17
100
AcDbEntity
  8
0
100
AcDbPolyline
 90
11
 70
1
 10
6.7818
 20
38.989
 10
6.7818
 20
38.5826
 10
6.832599999999999
 20
38.5318
 10
6.832599999999999
 20
38.481
 10
7.0104
 20
38.354
 10
7.7978
 20
38.354
 10
8.026399999999999
 20
38.5826
 10
8.026399999999999
 20
38.989
 10
7.8232
 20
39.1922
 10
6.984999999999999
 20
39.1922
 10
6.858
 20
39.116
  0
LWPOLYLINE
  5
F9
330
17
100
AcDbEntity
  8
0
100
AcDbPolyline
 90
11
 70
1
 10
11.7602
 20
39.0652
 10
11.7602
 20
38.6588
 10
11.811
 20
38.608
 10
11.811
 20
38.5572
 10
11.9888
 20
38.4302
 10
12.7762
 20
38.4302
 10
13.0048
 20
38.6588
 10
13.0048
 20
39.0652
 10
12.801599999999999
 20
39.2684
 10
11.9634
 20
39.2684
 10
11.8364
 20
39.1922
  0
LWPOLYLINE
  5
FA
330
17
100
AcDbEntity
  8
0
100
AcDbPolyline
 90
11
 70
1
 10
4.7752
 20
39.0652
 10
4.7752
 20
38.6588
 10
4.826
 20
38.608
 10
4.826
 20
38.5572
 10
5.0038
 20
38.4302
 10
5.7912
 20
38.4302
 10
6.0198
 20
38.6588
 10
6.0198
 20
39.0652
 10
5.816599999999999
 20
39.2684
 10
4.9784
 20
39.2684
 10
4.8514
 20
39.1922
  0
LWPOLYLINE
  5
FB
330
17
100
AcDbEntity
  8
0
100
AcDbPolyline
 90
11
 70
1
 10
2.7432
 20
39.0652
 10
2.7432
 20
38.6588
 10
2.794
 20
38.608
 10
2.794
 20
38.5572
 10
2.9718
 20
38.4302
 10
3.7592
 20
38.4302
 10
3.9878
 20
38.6588
 10
3.9878
 20
39.0652
 10
3.7845999999999997
 20
39.2684
 10
2.9463999999999997
 20
39.2684
 10
2.8194
 20
39.1922
  0
LWPOLYLINE
  5
FC
330
17
100
AcDbEntity
  8
0
100
AcDbPolyline
 90
12
 70
1
 10
32.2072
 20
39.319199999999995
 10
32.029399999999995
 20
39.1414
 10
32.029399999999995
 20
38.5826
 10
32.0802
 20
38.5318
 10
32.0802
 20
38.481
 10
32.2326
 20
38.3794
 10
32.562799999999996
 20
38.3794
 10
32.6136
 20
38.4302
 10
32.6644
 20
38.4302
 10
32.766
 20
38.5826
 10
32.766
 20
39.1414
 10
32.5882
 20
39.319199999999995
  0
LWPOLYLINE
  5
FD
330
17
100
AcDbEntity
  8
0
100
AcDbPolyline
 90
12
 70
1
 10
36.093399999999995
 20
40.2082
 10
35.8902
 20
40.004999999999995
 10
35.8902
 20
39.1922
 10
35.940999999999995
 20
39.1414
 10
35.940999999999995
 20
39.090599999999995
 10
36.1188
 20
38.9636
 10
36.4998
 20
38.9636
 10
36.550599999999996
 20
39.014399999999995
 10
36.6014
 20
39.014399999999995
 10
36.7284
 20
39.1922
 10
36.7284
 20
40.004999999999995
 10
36.5252
 20
40.2082
  0
LWPOLYLINE
  5
FE
330
17
100
AcDbEntity
  8
0
100
AcDbPolyline
 90
12
 70
1
 10
34.2138
 20
40.2082
 10
34.0106
 20
40.004999999999995
 10
34.0106
 20
39.1922
 10
34.0614
 20
39.1414
 10
34.0614
 20
39.090599999999995
 10
34.2392
 20
38.9636
 10
34.6202
 20
38.9636
 10
34.671
 20
39.014399999999995
 10
34.7218
 20
39.014399999999995
 10
34.8488
 20
39.1922
 10
34.8488
 20
40.004999999999995
 10
34.6456
 20
40.2082
  0
LWPOLYLINE
  5
FF
330
17
100
AcDbEntity
  8
0
100
AcDbPolyline
 90
12
 70
1
 10
29.9974
 20
40.2082
 10
29.7942
 20
40.004999999999995
 10
29.7942
 20
39.1922
 10
29.845
 20
39.1414
 10
29.845
 20
39.090599999999995
 10
30.0228
 20
38.9636
 10
30.4038
 20
38.9636
 10
30.4546
 20
39.014399999999995
 10
30.505399999999998
 20
39.014399999999995
 10
30.6324
 20
39.1922
 10
30.6324
 20
40.004999999999995
 10
30.429199999999998
 20
40.2082
  0
LWPOLYLINE
  5
100
330
17
100
AcDbEntity
  8
0
100
AcDbPolyline
 90
12
 70
1
 10
28.092399999999998
 20
40.2082
 10
27.8892
 20
40.004999999999995
 10
27.8892
 20
39.1922
 10
27.939999999999998
 20
39.1414
 10
27.939999999999998
 20
39.090599999999995
 10
28.1178
 20
38.9636
 10
28.4988
 20
38.9636
 10
28.549599999999998
 20
39.014399999999995
 10
28.6004
 20
39.014399999999995
 10
28.7274
 20
39.1922
 10
28.7274
 20
40.004999999999995
 10
28.5242
 20
40.2082
  0
LWPOLYLINE
  5
101
330
17
100
AcDbEntity
  8
0
100
AcDbPolyline
 90
11
 70
1
 10
8.8138
 20
40.894
 10
8.8138
 20
40.4876
 10
8.8646
 20
40.4368
 10
8.8646
 20
40.385999999999996
 10
9.042399999999999
 20
40.259
 10
9.829799999999999
 20
40.259
 10
10.058399999999999
 20
40.4876
 10
10.058399999999999
 20
40.894
 10
9.8552
 20
41.0972
 10
9.017
 20
41.0972
 10
8.889999999999999
 20
41.021
  0
LWPOLYLINE
  5
102
330
17
100
AcDbEntity
  8
0
100
AcDbPolyline
 90
11
 70
1
 10
6.7818
 20
40.894
 10
6.7818
 20
40.4876
 10
6.832599999999999
 20
40.4368
 10
6.832599999999999
 20
40.385999999999996
 10
7.0104
 20
40.259
 10
7.7978
 20
40.259
 10
8.026399999999999
 20
40.4876
 10
8.026399999999999
 20
40.894
 10
7.8232
 20
41.0972
 10
6.984999999999999
 20
41.0972
 10
6.858
 20
41.021
  0
LWPOLYLINE
  5
103
330
17
100
AcDbEntity
  8
0
100
AcDbPolyline
 90
11
 70
1
 10
11.7602
 20
40.9702
 10
11.7602
 20
40.5638
 10
11.811
 20
40.513
 10
11.811
 20
40.462199999999996
 10
11.9888
 20
40.3352
 10
12.7762
 20
40.3352
 10
13.0048
 20
40.5638
 10
13.0048
 20
40.9702
 10
12.801599999999999
 20
41.1734
 10
11.9634
 20
41.1734
 10
11.8364
 20
41.0972
  0
LWPOLYLINE
  5
104
330
17
100
AcDbEntity
  8
0
100
AcDbPolyline
 90
11
 70
1
 10
4.7752
 20
40.9702
 10
4.7752
 20
40.5638
 10
4.826
 20
40.513
 10
4.826
 20
40.462199999999996
 10
5.0038
 20
40.3352
 10
5.7912
 20
40.3352
 10
6.0198
 20
40.5638
 10
6.0198
 20
40.9702
 10
5.816599999999999
 20
41.1734
 10
4.9784
 20
41.1734
 10
4.8514
 20
41.0972
  0
LWPOLYLINE
  5
105
330
17
100
AcDbEntity
  8
0
100
AcDbPolyline
 90
11
 70
1
 10
2.7432
 20
40.9702
 10
2.7432
 20
40.5638
 10
2.794
 20
40.513
 10
2.794
 20
40.462199999999996
 10
2.9718
 20
40.3352
 10
3.7592
 20
40.3352
 10
3.9878
 20
40.5638
 10
3.9878
 20
40.9702
 10
3.7845999999999997
 20
41.1734
 10
2.9463999999999997
 20
41.1734
 10
2.8194
 20
41.0972
  0
LWPOLYLINE
  5
106
330
17
100
AcDbEntity
  8
0
100
AcDbPolyline
 90
12
 70
1
 10
32.2072
 20
42.1132
 10
32.029399999999995
 20
41.9354
 10
32.029399999999995
 20
41.376599999999996
 10
32.0802
 20
41.3258
 10
32.0802
 20
41.275
 10
32.2326
 20
41.1734
 10
32.562799999999996
 20
41.1734
 10
32.6136
 20
41.224199999999996
 10
32.6644
 20
41.224199999999996
 10
32.766
 20
41.376599999999996
 10
32.766
 20
41.9354
 10
32.5882
 20
42.1132
  0
LWPOLYLINE
  5
107
330
17
100
AcDbEntity
  8
0
100
AcDbPolyline
 90
12
 70
1
 10
36.093399999999995
 20
42.1386
 10
35.8902
 20
41.9354
 10
35.8902
 20
41.1226
 10
35.940999999999995
 20
41.071799999999996
 10
35.940999999999995
 20
41.021
 10
36.1188
 20
40.894
 10
36.4998
 20
40.894
 10
36.550599999999996
 20
40.9448
 10
36.6014
 20
40.9448
 10
36.7284
 20
41.1226
 10
36.7284
 20
41.9354
 10
36.5252
 20
42.1386
  0
LWPOLYLINE
  5
108
330
17
100
AcDbEntity
  8
0
100
AcDbPolyline
 90
12
 70
1
 10
34.2138
 20
42.1386
 10
34.0106
 20
41.9354
 10
34.0106
 20
41.1226
 10
34.0614
 20
41.071799999999996
 10
34.0614
 20
41.021
 10
34.2392
 20
40.894
 10
34.6202
 20
40.894
 10
34.671
 20
40.9448
 10
34.7218
 20
40.9448
 10
34.8488
 20
41.1226
 10
34.8488
 20
41.9354
 10
34.6456
 20
42.1386
  0
LWPOLYLINE
  5
109
330
17
100
AcDbEntity
  8
0
100
AcDbPolyline
 90
11
 70
1
 10
20.2184
 20
42.1894
 10
19.431
 20
41.8084
 10
18.9738
 20
40.9448
 10
18.9484
 20
32.715199999999996
 10
19.431
 20
31.622999999999998
 10
20.0914
 20
31.2674
 10
20.6756
 20
31.241999999999997
 10
21.462999999999997
 20
31.622999999999998
 10
21.920199999999998
 20
32.486599999999996
 10
21.920199999999998
 20
40.9448
 10
21.336
 20
41.91
  0
LWPOLYLINE
  5
10A
330
17
100
AcDbEntity
  8
0
100
AcDbPolyline
 90
12
 70
1
 10
29.9974
 20
42.2148
 10
29.7942
 20
42.0116
 10
29.7942
 20
41.1988
 10
29.845
 20
41.147999999999996
 10
29.845
 20
41.0972
 10
30.0228
 20
40.9702
 10
30.4038
 20
40.9702
 10
30.4546
 20
41.021
 10
30.505399999999998
 20
41.021
 10
30.6324
 20
41.1988
 10
30.6324
 20
42.0116
 10
30.429199999999998
 20
42.2148
  0
LWPOLYLINE
  5
10B
330
17
100
AcDbEntity
  8
0
100
AcDbPolyline
 90
12
 70
1
 10
28.092399999999998
 20
42.2148
 10
27.8892
 20
42.0116
 10
27.8892
 20
41.1988
 10
27.939999999999998
 20
41.147999999999996
 10
27.939999999999998
 20
41.0972
 10
28.1178
 20
40.9702
 10
28.4988
 20
40.9702
 10
28.549599999999998
 20
41.021
 10
28.6004
 20
41.021
 10
28.7274
 20
41.1988
 10
28.7274
 20
42.0116
 10
28.5242
 20
42.2148
  0
LWPOLYLINE
  5
10C
330
17
100
AcDbEntity
  8
0
100
AcDbPolyline
 90
15
 70
1
 10
32.257999999999996
 20
44.5008
 10
32.1564
 20
44.3992
 10
32.131
 20
44.323
 10
32.131
 20
43.4086
 10
32.1564
 20
43.3324
 10
32.257999999999996
 20
43.230799999999995
 10
32.334199999999996
 20
43.2054
 10
32.893
 20
43.2054
 10
32.9692
 20
43.230799999999995
 10
33.0708
 20
43.3324
 10
33.1216
 20
43.459399999999995
 10
33.1216
 20
44.323
 10
32.893
 20
44.5516
 10
32.3596
 20
44.5516
 10
32.3088
 20
44.5008
  0
LWPOLYLINE
  5
10D
330
17
100
AcDbEntity
  8
0
100
AcDbPolyline
 90
15
 70
1
 10
29.971999999999998
 20
44.5008
 10
29.8704
 20
44.3992
 10
29.845
 20
44.323
 10
29.845
 20
43.4086
 10
29.8704
 20
43.3324
 10
29.971999999999998
 20
43.230799999999995
 10
30.048199999999998
 20
43.2054
 10
30.607
 20
43.2054
 10
30.6832
 20
43.230799999999995
 10
30.784799999999997
 20
43.3324
 10
30.8356
 20
43.459399999999995
 10
30.8356
 20
44.323
 10
30.607
 20
44.5516
 10
30.0736
 20
44.5516
 10
30.0228
 20
44.5008
  0
LWPOLYLINE
  5
10E
330
17
100
AcDbEntity
  8
0
100
AcDbPolyline
 90
4
 70
1
 10
0.7111999999999999
 20
45.364399999999996
 10
0.7111999999999999
 20
43.7896
 10
3.683
 20
43.7896
 10
3.683
 20
45.364399999999996
  0
LWPOLYLINE
  5
10F
330
17
100
AcDbEntity
  8
0
100
AcDbPolyline
 90
12
 70
1
 10
22.1234
 20
46.4312
 10
21.920199999999998
 20
46.228
 10
21.920199999999998
 20
45.4152
 10
21.971
 20
45.364399999999996
 10
21.971
 20
45.3136
 10
22.148799999999998
 20
45.1866
 10
22.529799999999998
 20
45.1866
 10
22.5806
 20
45.2374
 10
22.6314
 20
45.2374
 10
22.758399999999998
 20
45.4152
 10
22.758399999999998
 20
46.228
 10
22.5552
 20
46.4312
  0
LWPOLYLINE
  5
110
330
17
100
AcDbEntity
  8
0
100
AcDbPolyline
 90
12
 70
1
 10
20.2184
 20
46.4312
 10
20.0152
 20
46.228
 10
20.0152
 20
45.4152
 10
20.066
 20
45.364399999999996
 10
20.066
 20
45.3136
 10
20.2438
 20
45.1866
 10
20.6248
 20
45.1866
 10
20.6756
 20
45.2374
 10
20.726399999999998
 20
45.2374
 10
20.8534
 20
45.4152
 10
20.8534
 20
46.228
 10
20.650199999999998
 20
46.4312
  0
LWPOLYLINE
  5
111
330
17
100
AcDbEntity
  8
0
100
AcDbPolyline
 90
13
 70
1
 10
24.9682
 20
46.4312
 10
24.9428
 20
46.355
 10
24.9428
 20
45.7962
 10
24.9682
 20
45.72
 10
25.0698
 20
45.6184
 10
25.145999999999997
 20
45.592999999999996
 10
26.060399999999998
 20
45.592999999999996
 10
26.136599999999998
 20
45.6184
 10
26.2382
 20
45.72
 10
26.288999999999998
 20
45.847
 10
26.288999999999998
 20
46.355
 10
26.060399999999998
 20
46.5836
 10
25.1714
 20
46.5836
  0
LWPOLYLINE
  5
112
330
17
100
AcDbEntity
  8
0
100
AcDbPolyline
 90
11
 70
1
 10
28.0416
 20
46.7106
 10
28.0416
 20
46.3042
 10
28.092399999999998
 20
46.2534
 10
28.092399999999998
 20
46.2026
 10
28.2702
 20
46.0756
 10
29.057599999999997
 20
46.0756
 10
29.286199999999997
 20
46.3042
 10
29.286199999999997
 20
46.7106
 10
29.083
 20
46.913799999999995
 10
28.244799999999998
 20
46.913799999999995
 10
28.1178
 20
46.837599999999995
  0
LWPOLYLINE
  5
113
330
17
100
AcDbEntity
  8
0
100
AcDbPolyline
 90
4
 70
1
 10
37.1094
 20
47.370999999999995
 10
37.1094
 20
45.7962
 10
40.081199999999995
 20
45.7962
 10
40.081199999999995
 20
47.370999999999995
  0
LWPOLYLINE
  5
114
330
17
100
AcDbEntity
  8
0
100
AcDbPolyline
 90
12
 70
1
 10
22.1234
 20
48.285399999999996
 10
21.920199999999998
 20
48.0822
 10
21.920199999999998
 20
47.2694
 10
21.971
 20
47.218599999999995
 10
21.971
 20
47.1678
 10
22.148799999999998
 20
47.0408
 10
22.529799999999998
 20
47.0408
 10
22.5806
 20
47.0916
 10
22.6314
 20
47.0916
 10
22.758399999999998
 20
47.2694
 10
22.758399999999998
 20
48.0822
 10
22.5552
 20
48.285399999999996
  0
LWPOLYLINE
  5
115
330
17
100
AcDbEntity
  8
0
100
AcDbPolyline
 90
12
 70
1
 10
20.2184
 20
48.285399999999996
 10
20.0152
 20
48.0822
 10
20.0152
 20
47.2694
 10
20.066
 20
47.218599999999995
 10
20.066
 20
47.1678
 10
20.2438
 20
47.0408
 10
20.6248
 20
47.0408
 10
20.6756
 20
47.0916
 10
20.726399999999998
 20
47.0916
 10
20.8534
 20
47.2694
 10
20.8534
 20
48.0822
 10
20.650199999999998
 20
48.285399999999996
  0
LWPOLYLINE
  5
116
330
17
100
AcDbEntity
  8
0
100
AcDbPolyline
 90
12
 70
1
 10
14.5542
 20
48.285399999999996
 10
14.350999999999999
 20
48.0822
 10
14.350999999999999
 20
47.2694
 10
14.4018
 20
47.218599999999995
 10
14.4018
 20
47.1678
 10
14.5796
 20
47.0408
 10
14.9606
 20
47.0408
 10
15.0114
 20
47.0916
 10
15.062199999999999
 20
47.0916
 10
15.1892
 20
47.2694
 10
15.1892
 20
48.0822
 10
14.985999999999999
 20
48.285399999999996
  0
LWPOLYLINE
  5
117
330
17
100
AcDbEntity
  8
0
100
AcDbPolyline
 90
12
 70
1
 10
12.649199999999999
 20
48.285399999999996
 10
12.446
 20
48.0822
 10
12.446
 20
47.2694
 10
12.4968
 20
47.218599999999995
 10
12.4968
 20
47.1678
 10
12.6746
 20
47.0408
 10
13.0556
 20
47.0408
 10
13.106399999999999
 20
47.0916
 10
13.1572
 20
47.0916
 10
13.2842
 20
47.2694
 10
13.2842
 20
48.0822
 10
13.081
 20
48.285399999999996
  0
LWPOLYLINE
  5
118
330
17
100
AcDbEntity
  8
0
100
AcDbPolyline
 90
4
 70
1
 10
4.0893999999999995
 20
48.742599999999996
 10
4.0893999999999995
 20
47.5742
 10
9.0678
 20
47.5742
 10
9.0678
 20
48.742599999999996
  0
LWPOLYLINE
  5
119
330
17
100
AcDbEntity
  8
0
100
AcDbPolyline
 90
11
 70
1
 10
28.0416
 20
48.6156
 10
28.0416
 20
48.209199999999996
 10
28.092399999999998
 20
48.1584
 10
28.092399999999998
 20
48.1076
 10
28.2702
 20
47.980599999999995
 10
29.057599999999997
 20
47.980599999999995
 10
29.286199999999997
 20
48.209199999999996
 10
29.286199999999997
 20
48.6156
 10
29.083
 20
48.818799999999996
 10
28.244799999999998
 20
48.818799999999996
 10
28.1178
 20
48.742599999999996
  0
LWPOLYLINE
  5
11A
330
17
100
AcDbEntity
  8
0
100
AcDbPolyline
 90
13
 70
1
 10
24.9682
 20
48.7172
 10
24.9428
 20
48.641
 10
24.9428
 20
48.0822
 10
24.9682
 20
48.006
 10
25.0698
 20
47.904399999999995
 10
25.145999999999997
 20
47.879
 10
26.060399999999998
 20
47.879
 10
26.136599999999998
 20
47.904399999999995
 10
26.2382
 20
48.006
 10
26.288999999999998
 20
48.132999999999996
 10
26.288999999999998
 20
48.641
 10
26.060399999999998
 20
48.8696
 10
25.1714
 20
48.8696
  0
LWPOLYLINE
  5
11B
330
17
100
AcDbEntity
  8
0
100
AcDbPolyline
 90
12
 70
1
 10
22.1234
 20
50.1904
 10
21.920199999999998
 20
49.9872
 10
21.920199999999998
 20
49.1744
 10
21.971
 20
49.123599999999996
 10
21.971
 20
49.0728
 10
22.148799999999998
 20
48.9458
 10
22.529799999999998
 20
48.9458
 10
22.5806
 20
48.9966
 10
22.6314
 20
48.9966
 10
22.758399999999998
 20
49.1744
 10
22.758399999999998
 20
49.9872
 10
22.5552
 20
50.1904
  0
LWPOLYLINE
  5
11C
330
17
100
AcDbEntity
  8
0
100
AcDbPolyline
 90
12
 70
1
 10
20.2184
 20
50.1904
 10
20.0152
 20
49.9872
 10
20.0152
 20
49.1744
 10
20.066
 20
49.123599999999996
 10
20.066
 20
49.0728
 10
20.2438
 20
48.9458
 10
20.6248
 20
48.9458
 10
20.6756
 20
48.9966
 10
20.726399999999998
 20
48.9966
 10
20.8534
 20
49.1744
 10
20.8534
 20
49.9872
 10
20.650199999999998
 20
50.1904
  0
LWPOLYLINE
  5
11D
330
17
100
AcDbEntity
  8
0
100
AcDbPolyline
 90
4
 70
1
 10
14.224
 20
50.596799999999995
 10
14.224
 20
49.9618
 10
15.5956
 20
49.9618
 10
15.5956
 20
50.596799999999995
  0
LWPOLYLINE
  5
11E
330
17
100
AcDbEntity
  8
0
100
AcDbPolyline
 90
4
 70
1
 10
31.699199999999998
 20
50.749199999999995
 10
31.699199999999998
 20
49.580799999999996
 10
36.6776
 20
49.580799999999996
 10
36.6776
 20
50.749199999999995
  0
LWPOLYLINE
  5
11F
330
17
100
AcDbEntity
  8
0
100
AcDbPolyline
 90
4
 70
1
 10
4.0893999999999995
 20
51.2318
 10
4.0893999999999995
 20
50.0634
 10
9.0678
 20
50.0634
 10
9.0678
 20
51.2318
  0
LWPOLYLINE
  5
120
330
17
100
AcDbEntity
  8
0
100
AcDbPolyline
 90
20
 70
1
 10
21.9456
 20
52.1462
 10
21.767799999999998
 20
52.0192
 10
21.6662
 20
51.8668
 10
21.6662
 20
51.206399999999995
 10
21.717
 20
51.1556
 10
21.717
 20
51.0794
 10
21.767799999999998
 20
51.0032
 10
21.843999999999998
 20
50.9524
 10
21.920199999999998
 20
50.9524
 10
21.971
 20
50.901599999999995
 10
22.5044
 20
50.901599999999995
 10
22.5552
 20
50.9524
 10
22.6314
 20
50.9524
 10
22.7076
 20
51.0032
 10
22.758399999999998
 20
51.0794
 10
22.758399999999998
 20
51.1556
 10
22.8092
 20
51.206399999999995
 10
22.8092
 20
51.8668
 10
22.7076
 20
52.0192
 10
22.529799999999998
 20
52.1462
  0
LWPOLYLINE
  5
121
330
17
100
AcDbEntity
  8
0
100
AcDbPolyline
 90
20
 70
1
 10
20.2438
 20
52.1462
 10
20.066
 20
52.0192
 10
19.964399999999998
 20
51.8668
 10
19.964399999999998
 20
51.206399999999995
 10
20.0152
 20
51.1556
 10
20.0152
 20
51.0794
 10
20.066
 20
51.0032
 10
20.1422
 20
50.9524
 10
20.2184
 20
50.9524
 10
20.269199999999998
 20
50.901599999999995
 10
20.802599999999998
 20
50.901599999999995
 10
20.8534
 20
50.9524
 10
20.9296
 20
50.9524
 10
21.0058
 20
51.0032
 10
21.0566
 20
51.0794
 10
21.0566
 20
51.1556
 10
21.1074
 20
51.206399999999995
 10
21.1074
 20
51.8668
 10
21.0058
 20
52.0192
 10
20.828
 20
52.1462
  0
LWPOLYLINE
  5
122
330
17
100
AcDbEntity
  8
0
100
AcDbPolyline
 90
8
 70
1
 10
28.1178
 20
52.324
 10
28.092399999999998
 20
52.2986
 10
28.092399999999998
 20
51.8414
 10
28.1432
 20
51.7906
 10
28.168599999999998
 20
51.7906
 10
28.2194
 20
51.8414
 10
28.2194
 20
52.2986
 10
28.194
 20
52.324
  0
LWPOLYLINE
  5
123
330
17
100
AcDbEntity
  8
0
100
AcDbPolyline
 90
8
 70
1
 10
27.711399999999998
 20
52.324
 10
27.686
 20
52.2986
 10
27.686
 20
51.8414
 10
27.7368
 20
51.7906
 10
27.7622
 20
51.7906
 10
27.813
 20
51.8414
 10
27.813
 20
52.2986
 10
27.787599999999998
 20
52.324
  0
LWPOLYLINE
  5
124
330
17
100
AcDbEntity
  8
0
100
AcDbPolyline
 90
8
 70
1
 10
27.305
 20
52.324
 10
27.2796
 20
52.2986
 10
27.2796
 20
51.8414
 10
27.330399999999997
 20
51.7906
 10
27.3558
 20
51.7906
 10
27.406599999999997
 20
51.8414
 10
27.406599999999997
 20
52.2986
 10
27.3812
 20
52.324
  0
LWPOLYLINE
  5
125
330
17
100
AcDbEntity
  8
0
100
AcDbPolyline
 90
8
 70
1
 10
26.8986
 20
52.324
 10
26.8732
 20
52.2986
 10
26.8732
 20
51.8414
 10
26.924
 20
51.7906
 10
26.949399999999997
 20
51.7906
 10
27.0002
 20
51.8414
 10
27.0002
 20
52.2986
 10
26.9748
 20
52.324
  0
LWPOLYLINE
  5
126
330
17
100
AcDbEntity
  8
0
100
AcDbPolyline
 90
8
 70
1
 10
26.517599999999998
 20
52.324
 10
26.4922
 20
52.2986
 10
26.4922
 20
51.8414
 10
26.543
 20
51.7906
 10
26.5684
 20
51.7906
 10
26.6192
 20
51.8414
 10
26.6192
 20
52.2986
 10
26.593799999999998
 20
52.324
  0
LWPOLYLINE
  5
127
330
17
100
AcDbEntity
  8
0
100
AcDbPolyline
 90
8
 70
1
 10
26.1112
 20
52.324
 10
26.0858
 20
52.2986
 10
26.0858
 20
51.8414
 10
26.136599999999998
 20
51.7906
 10
26.162
 20
51.7906
 10
26.212799999999998
 20
51.8414
 10
26.212799999999998
 20
52.2986
 10
26.1874
 20
52.324
  0
LWPOLYLINE
  5
128
330
17
100
AcDbEntity
  8
0
100
AcDbPolyline
 90
8
 70
1
 10
25.7048
 20
52.324
 10
25.679399999999998
 20
52.2986
 10
25.679399999999998
 20
51.8414
 10
25.7302
 20
51.7906
 10
25.755599999999998
 20
51.7906
 10
25.8064
 20
51.8414
 10
25.8064
 20
52.2986
 10
25.781
 20
52.324
  0
LWPOLYLINE
  5
129
330
17
100
AcDbEntity
  8
0
100
AcDbPolyline
 90
8
 70
1
 10
25.298399999999997
 20
52.324
 10
25.273
 20
52.2986
 10
25.273
 20
51.8414
 10
25.3238
 20
51.7906
 10
25.3492
 20
51.7906
 10
25.4
 20
51.8414
 10
25.4
 20
52.2986
 10
25.374599999999997
 20
52.324
  0
LWPOLYLINE
  5
12A
330
17
100
AcDbEntity
  8
0
100
AcDbPolyline
 90
12
 70
1
 10
10.3886
 20
52.2224
 10
10.3886
 20
51.308
 10
10.845799999999999
 20
50.825399999999995
 10
13.0556
 20
50.825399999999995
 10
13.512799999999999
 20
51.282599999999995
 10
13.5382
 20
51.4604
 10
15.620999999999999
 20
51.4604
 10
15.620999999999999
 20
52.0954
 10
13.5382
 20
52.0954
 10
13.512799999999999
 20
52.2478
 10
13.081
 20
52.6796
 10
10.845799999999999
 20
52.6796
  0
LWPOLYLINE
  5
12B
330
17
100
AcDbEntity
  8
0
100
AcDbPolyline
 90
8
 70
1
 10
28.473399999999998
 20
52.6796
 10
28.473399999999998
 20
52.6288
 10
28.5242
 20
52.577999999999996
 10
28.956
 20
52.577999999999996
 10
29.0068
 20
52.6288
 10
29.0068
 20
52.6796
 10
28.981399999999997
 20
52.705
 10
28.4988
 20
52.705
  0
LWPOLYLINE
  5
12C
330
17
100
AcDbEntity
  8
0
100
AcDbPolyline
 90
8
 70
1
 10
24.485599999999998
 20
52.6796
 10
24.485599999999998
 20
52.6288
 10
24.5364
 20
52.577999999999996
 10
24.9682
 20
52.577999999999996
 10
25.019
 20
52.6288
 10
25.019
 20
52.6796
 10
24.9936
 20
52.705
 10
24.511
 20
52.705
  0
LWPOLYLINE
  5
12D
330
17
100
AcDbEntity
  8
0
100
AcDbPolyline
 90
8
 70
1
 10
28.473399999999998
 20
53.086
 10
28.473399999999998
 20
53.035199999999996
 10
28.5242
 20
52.9844
 10
28.956
 20
52.9844
 10
29.0068
 20
53.035199999999996
 10
29.0068
 20
53.086
 10
28.981399999999997
 20
53.111399999999996
 10
28.4988
 20
53.111399999999996
  0
LWPOLYLINE
  5
12E
330
17
100
AcDbEntity
  8
0
100
AcDbPolyline
 90
8
 70
1
 10
24.485599999999998
 20
53.086
 10
24.485599999999998
 20
53.035199999999996
 10
24.5364
 20
52.9844
 10
24.9682
 20
52.9844
 10
25.019
 20
53.035199999999996
 10
25.019
 20
53.086
 10
24.9936
 20
53.111399999999996
 10
24.511
 20
53.111399999999996
  0
LWPOLYLINE
  5
12F
330
17
100
AcDbEntity
  8
0
100
AcDbPolyline
 90
4
 70
1
 10
31.699199999999998
 20
53.2384
 10
31.699199999999998
 20
52.07
 10
36.6776
 20
52.07
 10
36.6776
 20
53.2384
  0
LWPOLYLINE
  5
130
330
17
100
AcDbEntity
  8
0
100
AcDbPolyline
 90
8
 70
1
 10
28.473399999999998
 20
53.492399999999996
 10
28.473399999999998
 20
53.4416
 10
28.5242
 20
53.3908
 10
28.956
 20
53.3908
 10
29.0068
 20
53.4416
 10
29.0068
 20
53.492399999999996
 10
28.981399999999997
 20
53.5178
 10
28.4988
 20
53.5178
  0
LWPOLYLINE
  5
131
330
17
100
AcDbEntity
  8
0
100
AcDbPolyline
 90
8
 70
1
 10
24.485599999999998
 20
53.492399999999996
 10
24.485599999999998
 20
53.4416
 10
24.5364
 20
53.3908
 10
24.9682
 20
53.3908
 10
25.019
 20
53.4416
 10
25.019
 20
53.492399999999996
 10
24.9936
 20
53.5178
 10
24.511
 20
53.5178
  0
LWPOLYLINE
  5
132
330
17
100
AcDbEntity
  8
0
100
AcDbPolyline
 90
4
 70
1
 10
14.224
 20
53.594
 10
14.224
 20
52.958999999999996
 10
15.5956
 20
52.958999999999996
 10
15.5956
 20
53.594
  0
LWPOLYLINE
  5
133
330
17
100
AcDbEntity
  8
0
100
AcDbPolyline
 90
4
 70
1
 10
4.0893999999999995
 20
53.7464
 10
4.0893999999999995
 20
52.577999999999996
 10
9.0678
 20
52.577999999999996
 10
9.0678
 20
53.7464
  0
LWPOLYLINE
  5
134
330
17
100
AcDbEntity
  8
0
100
AcDbPolyline
 90
8
 70
1
 10
28.473399999999998
 20
53.898799999999994
 10
28.473399999999998
 20
53.848
 10
28.5242
 20
53.7972
 10
28.956
 20
53.7972
 10
29.0068
 20
53.848
 10
29.0068
 20
53.898799999999994
 10
28.981399999999997
 20
53.9242
 10
28.4988
 20
53.9242
  0
LWPOLYLINE
  5
135
330
17
100
AcDbEntity
  8
0
100
AcDbPolyline
 90
8
 70
1
 10
24.485599999999998
 20
53.898799999999994
 10
24.485599999999998
 20
53.848
 10
24.5364
 20
53.7972
 10
24.9682
 20
53.7972
 10
25.019
 20
53.848
 10
25.019
 20
53.898799999999994
 10
24.9936
 20
53.9242
 10
24.511
 20
53.9242
  0
LWPOLYLINE
  5
136
330
17
100
AcDbEntity
  8
0
100
AcDbPolyline
 90
20
 70
1
 10
21.9456
 20
54.229
 10
21.767799999999998
 20
54.102
 10
21.6662
 20
53.9496
 10
21.6662
 20
53.2892
 10
21.717
 20
53.2384
 10
21.717
 20
53.1622
 10
21.767799999999998
 20
53.086
 10
21.843999999999998
 20
53.035199999999996
 10
21.920199999999998
 20
53.035199999999996
 10
21.971
 20
52.9844
 10
22.5044
 20
52.9844
 10
22.5552
 20
53.035199999999996
 10
22.6314
 20
53.035199999999996
 10
22.7076
 20
53.086
 10
22.758399999999998
 20
53.1622
 10
22.758399999999998
 20
53.2384
 10
22.8092
 20
53.2892
 10
22.8092
 20
53.9496
 10
22.7076
 20
54.102
 10
22.529799999999998
 20
54.229
  0
LWPOLYLINE
  5
137
330
17
100
AcDbEntity
  8
0
100
AcDbPolyline
 90
20
 70
1
 10
20.2438
 20
54.229
 10
20.066
 20
54.102
 10
19.964399999999998
 20
53.9496
 10
19.964399999999998
 20
53.2892
 10
20.0152
 20
53.2384
 10
20.0152
 20
53.1622
 10
20.066
 20
53.086
 10
20.1422
 20
53.035199999999996
 10
20.2184
 20
53.035199999999996
 10
20.269199999999998
 20
52.9844
 10
20.802599999999998
 20
52.9844
 10
20.8534
 20
53.035199999999996
 10
20.9296
 20
53.035199999999996
 10
21.0058
 20
53.086
 10
21.0566
 20
53.1622
 10
21.0566
 20
53.2384
 10
21.1074
 20
53.2892
 10
21.1074
 20
53.9496
 10
21.0058
 20
54.102
 10
20.828
 20
54.229
  0
LWPOLYLINE
  5
138
330
17
100
AcDbEntity
  8
0
100
AcDbPolyline
 90
8
 70
1
 10
28.473399999999998
 20
54.279799999999994
 10
28.473399999999998
 20
54.229
 10
28.5242
 20
54.1782
 10
28.956
 20
54.1782
 10
29.0068
 20
54.229
 10
29.0068
 20
54.279799999999994
 10
28.981399999999997
 20
54.3052
 10
28.4988
 20
54.3052
  0
LWPOLYLINE
  5
139
330
17
100
AcDbEntity
  8
0
100
AcDbPolyline
 90
8
 70
1
 10
24.485599999999998
 20
54.279799999999994
 10
24.485599999999998
 20
54.229
 10
24.5364
 20
54.1782
 10
24.9682
 20
54.1782
 10
25.019
 20
54.229
 10
25.019
 20
54.279799999999994
 10
24.9936
 20
54.3052
 10
24.511
 20
54.3052
  0
LWPOLYLINE
  5
13A
330
17
100
AcDbEntity
  8
0
100
AcDbPolyline
 90
8
 70
1
 10
28.473399999999998
 20
54.6862
 10
28.473399999999998
 20
54.6354
 10
28.5242
 20
54.584599999999995
 10
28.956
 20
54.584599999999995
 10
29.0068
 20
54.6354
 10
29.0068
 20
54.6862
 10
28.981399999999997
 20
54.7116
 10
28.4988
 20
54.7116
  0
LWPOLYLINE
  5
13B
330
17
100
AcDbEntity
  8
0
100
AcDbPolyline
 90
8
 70
1
 10
24.485599999999998
 20
54.6862
 10
24.485599999999998
 20
54.6354
 10
24.5364
 20
54.584599999999995
 10
24.9682
 20
54.584599999999995
 10
25.019
 20
54.6354
 10
25.019
 20
54.6862
 10
24.9936
 20
54.7116
 10
24.511
 20
54.7116
  0
LWPOLYLINE
  5
13C
330
17
100
AcDbEntity
  8
0
100
AcDbPolyline
 90
8
 70
1
 10
28.473399999999998
 20
55.0926
 10
28.473399999999998
 20
55.041799999999995
 10
28.5242
 20
54.991
 10
28.956
 20
54.991
 10
29.0068
 20
55.041799999999995
 10
29.0068
 20
55.0926
 10
28.981399999999997
 20
55.117999999999995
 10
28.4988
 20
55.117999999999995
  0
LWPOLYLINE
  5
13D
330
17
100
AcDbEntity
  8
0
100
AcDbPolyline
 90
8
 70
1
 10
24.485599999999998
 20
55.0926
 10
24.485599999999998
 20
55.041799999999995
 10
24.5364
 20
54.991
 10
24.9682
 20
54.991
 10
25.019
 20
55.041799999999995
 10
25.019
 20
55.0926
 10
24.9936
 20
55.117999999999995
 10
24.511
 20
55.117999999999995
  0
LWPOLYLINE
  5
13E
330
17
100
AcDbEntity
  8
0
100
AcDbPolyline
 90
4
 70
1
 10
25.4254
 20
55.372
 10
25.4254
 20
52.705
 10
28.092399999999998
 20
52.705
 10
28.092399999999998
 20
55.372
  0
LWPOLYLINE
  5
13F
330
17
100
AcDbEntity
  8
0
100
AcDbPolyline
 90
8
 70
1
 10
28.473399999999998
 20
55.498999999999995
 10
28.473399999999998
 20
55.4482
 10
28.5242
 20
55.3974
 10
28.956
 20
55.3974
 10
29.0068
 20
55.4482
 10
29.0068
 20
55.498999999999995
 10
28.981399999999997
 20
55.5244
 10
28.4988
 20
55.5244
  0
LWPOLYLINE
  5
140
330
17
100
AcDbEntity
  8
0
100
AcDbPolyline
 90
8
 70
1
 10
24.485599999999998
 20
55.498999999999995
 10
24.485599999999998
 20
55.4482
 10
24.5364
 20
55.3974
 10
24.9682
 20
55.3974
 10
25.019
 20
55.4482
 10
25.019
 20
55.498999999999995
 10
24.9936
 20
55.5244
 10
24.511
 20
55.5244
  0
LWPOLYLINE
  5
141
330
17
100
AcDbEntity
  8
0
100
AcDbPolyline
 90
4
 70
1
 10
31.699199999999998
 20
55.753
 10
31.699199999999998
 20
54.584599999999995
 10
36.6776
 20
54.584599999999995
 10
36.6776
 20
55.753
  0
LWPOLYLINE
  5
142
330
17
100
AcDbEntity
  8
0
100
AcDbPolyline
 90
12
 70
1
 10
22.1234
 20
56.1594
 10
21.920199999999998
 20
55.956199999999995
 10
21.920199999999998
 20
55.1434
 10
21.971
 20
55.0926
 10
21.971
 20
55.041799999999995
 10
22.148799999999998
 20
54.9148
 10
22.529799999999998
 20
54.9148
 10
22.5806
 20
54.965599999999995
 10
22.6314
 20
54.965599999999995
 10
22.758399999999998
 20
55.1434
 10
22.758399999999998
 20
55.956199999999995
 10
22.5552
 20
56.1594
  0
LWPOLYLINE
  5
143
330
17
100
AcDbEntity
  8
0
100
AcDbPolyline
 90
12
 70
1
 10
20.2184
 20
56.1594
 10
20.0152
 20
55.956199999999995
 10
20.0152
 20
55.1434
 10
20.066
 20
55.0926
 10
20.066
 20
55.041799999999995
 10
20.2438
 20
54.9148
 10
20.6248
 20
54.9148
 10
20.6756
 20
54.965599999999995
 10
20.726399999999998
 20
54.965599999999995
 10
20.8534
 20
55.1434
 10
20.8534
 20
55.956199999999995
 10
20.650199999999998
 20
56.1594
  0
LWPOLYLINE
  5
144
330
17
100
AcDbEntity
  8
0
100
AcDbPolyline
 90
4
 70
1
 10
4.0893999999999995
 20
56.2356
 10
4.0893999999999995
 20
55.0672
 10
9.0678
 20
55.0672
 10
9.0678
 20
56.2356
  0
LWPOLYLINE
  5
145
330
17
100
AcDbEntity
  8
0
100
AcDbPolyline
 90
8
 70
1
 10
28.1178
 20
56.3118
 10
28.092399999999998
 20
56.2864
 10
28.092399999999998
 20
55.8292
 10
28.1432
 20
55.7784
 10
28.168599999999998
 20
55.7784
 10
28.2194
 20
55.8292
 10
28.2194
 20
56.2864
 10
28.194
 20
56.3118
  0
LWPOLYLINE
  5
146
330
17
100
AcDbEntity
  8
0
100
AcDbPolyline
 90
8
 70
1
 10
27.711399999999998
 20
56.3118
 10
27.686
 20
56.2864
 10
27.686
 20
55.8292
 10
27.7368
 20
55.7784
 10
27.7622
 20
55.7784
 10
27.813
 20
55.8292
 10
27.813
 20
56.2864
 10
27.787599999999998
 20
56.3118
  0
LWPOLYLINE
  5
147
330
17
100
AcDbEntity
  8
0
100
AcDbPolyline
 90
8
 70
1
 10
27.305
 20
56.3118
 10
27.2796
 20
56.2864
 10
27.2796
 20
55.8292
 10
27.330399999999997
 20
55.7784
 10
27.3558
 20
55.7784
 10
27.406599999999997
 20
55.8292
 10
27.406599999999997
 20
56.2864
 10
27.3812
 20
56.3118
  0
LWPOLYLINE
  5
148
330
17
100
AcDbEntity
  8
0
100
AcDbPolyline
 90
8
 70
1
 10
26.8986
 20
56.3118
 10
26.8732
 20
56.2864
 10
26.8732
 20
55.8292
 10
26.924
 20
55.7784
 10
26.949399999999997
 20
55.7784
 10
27.0002
 20
55.8292
 10
27.0002
 20
56.2864
 10
26.9748
 20
56.3118
  0
LWPOLYLINE
  5
149
330
17
100
AcDbEntity
  8
0
100
AcDbPolyline
 90
8
 70
1
 10
26.517599999999998
 20
56.3118
 10
26.4922
 20
56.2864
 10
26.4922
 20
55.8292
 10
26.543
 20
55.7784
 10
26.5684
 20
55.7784
 10
26.6192
 20
55.8292
 10
26.6192
 20
56.2864
 10
26.593799999999998
 20
56.3118
  0
LWPOLYLINE
  5
14A
330
17
100
AcDbEntity
  8
0
100
AcDbPolyline
 90
8
 70
1
 10
26.1112
 20
56.3118
 10
26.0858
 20
56.2864
 10
26.0858
 20
55.8292
 10
26.136599999999998
 20
55.7784
 10
26.162
 20
55.7784
 10
26.212799999999998
 20
55.8292
 10
26.212799999999998
 20
56.2864
 10
26.1874
 20
56.3118
  0
LWPOLYLINE
  5
14B
330
17
100
AcDbEntity
  8
0
100
AcDbPolyline
 90
8
 70
1
 10
25.7048
 20
56.3118
 10
25.679399999999998
 20
56.2864
 10
25.679399999999998
 20
55.8292
 10
25.7302
 20
55.7784
 10
25.755599999999998
 20
55.7784
 10
25.8064
 20
55.8292
 10
25.8064
 20
56.2864
 10
25.781
 20
56.3118
  0
LWPOLYLINE
  5
14C
330
17
100
AcDbEntity
  8
0
100
AcDbPolyline
 90
8
 70
1
 10
25.298399999999997
 20
56.3118
 10
25.273
 20
56.2864
 10
25.273
 20
55.8292
 10
25.3238
 20
55.7784
 10
25.3492
 20
55.7784
 10
25.4
 20
55.8292
 10
25.4
 20
56.2864
 10
25.374599999999997
 20
56.3118
  0
LWPOLYLINE
  5
14D
330
17
100
AcDbEntity
  8
0
100
AcDbPolyline
 90
12
 70
1
 10
14.5542
 20
56.794399999999996
 10
14.350999999999999
 20
56.5912
 10
14.350999999999999
 20
55.7784
 10
14.4018
 20
55.727599999999995
 10
14.4018
 20
55.6768
 10
14.5796
 20
55.5498
 10
14.9606
 20
55.5498
 10
15.0114
 20
55.6006
 10
15.062199999999999
 20
55.6006
 10
15.1892
 20
55.7784
 10
15.1892
 20
56.5912
 10
14.985999999999999
 20
56.794399999999996
  0
LWPOLYLINE
  5
14E
330
17
100
AcDbEntity
  8
0
100
AcDbPolyline
 90
12
 70
1
 10
12.649199999999999
 20
56.794399999999996
 10
12.446
 20
56.5912
 10
12.446
 20
55.7784
 10
12.4968
 20
55.727599999999995
 10
12.4968
 20
55.6768
 10
12.6746
 20
55.5498
 10
13.0556
 20
55.5498
 10
13.106399999999999
 20
55.6006
 10
13.1572
 20
55.6006
 10
13.2842
 20
55.7784
 10
13.2842
 20
56.5912
 10
13.081
 20
56.794399999999996
  0
LWPOLYLINE
  5
14F
330
17
100
AcDbEntity
  8
0
100
AcDbPolyline
 90
4
 70
1
 10
31.699199999999998
 20
58.2422
 10
31.699199999999998
 20
57.0738
 10
36.6776
 20
57.0738
 10
36.6776
 20
58.2422
  0
LWPOLYLINE
  5
150
330
17
100
AcDbEntity
  8
0
100
AcDbPolyline
 90
4
 70
1
 10
4.0893999999999995
 20
58.7502
 10
4.0893999999999995
 20
57.5818
 10
9.0678
 20
57.5818
 10
9.0678
 20
58.7502
  0
LWPOLYLINE
  5
151
330
17
100
AcDbEntity
  8
0
100
AcDbPolyline
 90
11
 70
1
 10
27.305
 20
59.715399999999995
 10
27.305
 20
59.309
 10
27.3558
 20
59.258199999999995
 10
27.3558
 20
59.2074
 10
27.5336
 20
59.0804
 10
28.320999999999998
 20
59.0804
 10
28.549599999999998
 20
59.309
 10
28.549599999999998
 20
59.715399999999995
 10
28.3464
 20
59.9186
 10
27.5082
 20
59.9186
 10
27.3812
 20
59.8424
  0
LWPOLYLINE
  5
152
330
17
100
AcDbEntity
  8
0
100
AcDbPolyline
 90
11
 70
1
 10
24.9428
 20
59.715399999999995
 10
24.9428
 20
59.309
 10
24.9936
 20
59.258199999999995
 10
24.9936
 20
59.2074
 10
25.1714
 20
59.0804
 10
25.9588
 20
59.0804
 10
26.1874
 20
59.309
 10
26.1874
 20
59.715399999999995
 10
25.984199999999998
 20
59.9186
 10
25.145999999999997
 20
59.9186
 10
25.019
 20
59.8424
  0
LWPOLYLINE
  5
153
330
17
100
AcDbEntity
  8
0
100
AcDbPolyline
 90
11
 70
1
 10
27.305
 20
61.6204
 10
27.305
 20
61.214
 10
27.3558
 20
61.163199999999996
 10
27.3558
 20
61.1124
 10
27.5336
 20
60.9854
 10
28.320999999999998
 20
60.9854
 10
28.549599999999998
 20
61.214
 10
28.549599999999998
 20
61.6204
 10
28.3464
 20
61.8236
 10
27.5082
 20
61.8236
 10
27.3812
 20
61.7474
  0
LWPOLYLINE
  5
154
330
17
100
AcDbEntity
  8
0
100
AcDbPolyline
 90
11
 70
1
 10
24.9428
 20
61.6204
 10
24.9428
 20
61.214
 10
24.9936
 20
61.163199999999996
 10
24.9936
 20
61.1124
 10
25.1714
 20
60.9854
 10
25.9588
 20
60.9854
 10
26.1874
 20
61.214
 10
26.1874
 20
61.6204
 10
25.984199999999998
 20
61.8236
 10
25.145999999999997
 20
61.8236
 10
25.019
 20
61.7474
  0
LWPOLYLINE
  5
155
330
17
100
AcDbEntity
  8
0
100
AcDbPolyline
 90
4
 70
1
 10
37.1094
 20
62.026799999999994
 10
37.1094
 20
60.452
 10
40.081199999999995
 20
60.452
 10
40.081199999999995
 20
62.026799999999994
  0
LWPOLYLINE
  5
156
330
17
100
AcDbEntity
  8
0
100
AcDbPolyline
 90
4
 70
1
 10
0.7111999999999999
 20
62.5094
 10
0.7111999999999999
 20
60.934599999999996
 10
3.683
 20
60.934599999999996
 10
3.683
 20
62.5094
  0
LWPOLYLINE
  5
157
330
17
100
AcDbEntity
  8
0
100
AcDbPolyline
 90
16
 70
1
 10
20.040599999999998
 20
62.611
 10
19.583399999999997
 20
62.4332
 10
19.05
 20
61.950599999999994
 10
18.796
 20
61.417199999999994
 10
18.796
 20
60.6552
 10
19.1008
 20
60.0456
 10
19.507199999999997
 20
59.6646
 10
20.1676
 20
59.436
 10
20.573999999999998
 20
59.436
 10
21.2598
 20
59.69
 10
21.691599999999998
 20
60.1218
 10
21.9456
 20
60.6552
 10
21.9456
 20
61.391799999999996
 10
21.6662
 20
61.976
 10
21.2344
 20
62.3824
 10
20.701
 20
62.611
  0
LWPOLYLINE
  5
158
330
17
100
AcDbEntity
  8
0
100
AcDbPolyline
 90
6
 70
1
 10
40.2844
 20
65.8622
 10
40.5638
 20
0.4826
 10
0.508
 20
0.15239999999999998
 10
0.0254
 20
64.9986
 10
0.1016
 20
0.5841999999999999
 10
40.5638
 20
0.4826
  0
LWPOLYLINE
  5
159
330
17
100
AcDbEntity
  8
0
100
AcDbPolyline
 90
4
 70
1
 10
0.0254
 20
65.04939999999999
 10
0.7874
 20
66.0146
 10
39.700199999999995
 20
66.0146
 10
0.7874
 20
66.0146
  0
ENDSEC
  0
SECTION
  2
OBJECTS
  0
DICTIONARY
  5
A
330
0
100
AcDbDictionary
280
0
281
1
  3
ACAD_COLOR
350
B
  3
ACAD_GROUP
350
C
  3
ACAD_LAYOUT
350
D
  3
ACAD_MATERIAL
350
E
  3
ACAD_MLEADERSTYLE
350
F
  3
ACAD_MLINESTYLE
350
10
  3
ACAD_PLOTSETTINGS
350
11
  3
ACAD_PLOTSTYLENAME
350
12
  3
ACAD_SCALELIST
350
14
  3
ACAD_TABLESTYLE
350
15
  3
ACAD_VISUALSTYLE
350
16
  3
EZDXF_META
350
2D
  0
DICTIONARY
  5
B
330
A
100
AcDbDictionary
280
0
281
1
  0
DICTIONARY
  5
C
330
A
100
AcDbDictionary
280
0
281
1
  0
DICTIONARY
  5
D
330
A
100
AcDbDictionary
280
0
281
1
  3
Model
350
1A
  3
Layout1
350
1E
  0
DICTIONARY
  5
E
330
A
100
AcDbDictionary
280
0
281
1
  3
ByBlock
350
1F
  3
ByLayer
350
20
  3
Global
350
21
  0
DICTIONARY
  5
F
330
A
100
AcDbDictionary
280
0
281
1
  3
Standard
350
2C
  0
DICTIONARY
  5
10
330
A
100
AcDbDictionary
280
0
281
1
  3
Standard
350
22
  0
DICTIONARY
  5
11
330
A
100
AcDbDictionary
280
0
281
1
  0
ACDBDICTIONARYWDFLT
  5
12
330
A
100
AcDbDictionary
280
0
281
1
  3
Normal
350
13
100
AcDbDictionaryWithDefault
340
13
  0
ACDBPLACEHOLDER
  5
13
330
12
  0
DICTIONARY
  5
14
330
A
100
AcDbDictionary
280
0
281
1
  0
DICTIONARY
  5
15
330
A
100
AcDbDictionary
280
0
281
1
  0
DICTIONARY
  5
16
330
A
100
AcDbDictionary
280
0
281
1
  3
2dWireframe
350
5A
  3
Basic
350
5B
  3
Brighten
350
5C
  3
ColorChange
350
5D
  3
Conceptual
350
5E
  3
Dim
350
5F
  3
EdgeColorOff
350
60
  3
Facepattern
350
61
  3
Flat
350
62
  3
FlatWithEdges
350
63
  3
Gouraud
350
64
  3
GouraudWithEdges
350
65
  3
Hidden
350
66
  3
JitterOff
350
67
  3
Linepattern
350
68
  3
Modeling
350
69
  3
OverhangOff
350
6A
  3
Realistic
350
6B
  3
Shaded
350
6C
  3
Shaded with edges
350
6D
  3
Shades of Gray
350
6E
  3
Sketchy
350
6F
  3
Thicken
350
70
  3
Wireframe
350
71
  3
X-Ray
350
72
  0
LAYOUT
  5
1A
330
D
100
AcDbPlotSettings
  1

  4
A3
  6

 40
7.5
 41
20.0
 42
7.5
 43
20.0
 44
420.0
 45
297.0
 46
0.0
 47
0.0
 48
0.0
 49
0.0
140
0.0
141
0.0
142
1.0
143
1.0
 70
1024
 72
1
 73
0
 74
5
  7

 75
16
 76
0
 77
2
 78
300
147
1.0
148
0.0
149
0.0
100
AcDbLayout
  1
Model
 70
1
 71
0
 10
0.0
 20
0.0
 11
420.0
 21
297.0
 12
0.0
 22
0.0
 32
0.0
 14
1e+20
 24
1e+20
 34
1e+20
 15
-1e+20
 25
-1e+20
 35
-1e+20
146
0.0
 13
0.0
 23
0.0
 33
0.0
 16
1.0
 26
0.0
 36
0.0
 17
0.0
 27
1.0
 37
0.0
 76
1
330
17
  0
LAYOUT
  5
1E
330
D
100
AcDbPlotSettings
  1

  4
A3
  6

 40
7.5
 41
20.0
 42
7.5
 43
20.0
 44
420.0
 45
297.0
 46
0.0
 47
0.0
 48
0.0
 49
0.0
140
0.0
141
0.0
142
1.0
143
1.0
 70
0
 72
1
 73
0
 74
5
  7

 75
16
 76
0
 77
2
 78
300
147
1.0
148
0.0
149
0.0
100
AcDbLayout
  1
Layout1
 70
1
 71
1
 10
0.0
 20
0.0
 11
420.0
 21
297.0
 12
0.0
 22
0.0
 32
0.0
 14
1e+20
 24
1e+20
 34
1e+20
 15
-1e+20
 25
-1e+20
 35
-1e+20
146
0.0
 13
0.0
 23
0.0
 33
0.0
 16
1.0
 26
0.0
 36
0.0
 17
0.0
 27
1.0
 37
0.0
 76
1
330
1B
  0
MATERIAL
  5
1F
102
{ACAD_REACTORS
330
E
102
}
330
E
100
AcDbMaterial
  1
ByBlock
  2

 70
0
 40
1.0
 71
1
 41
1.0
 91
-1023410177
 42
1.0
 72
1
  3

 73
1
 74
1
 75
1
 44
0.5
 73
0
 45
1.0
 46
1.0
 77
1
  4

 78
1
 79
1
170
1
 48
1.0
171
1
  6

172
1
173
1
174
1
140
1.0
141
1.0
175
1
  7

176
1
177
1
178
1
143
1.0
179
1
  8

270
1
271
1
272
1
145
1.0
146
1.0
273
1
  9

274
1
275
1
276
1
 42
1.0
 72
1
  3

 73
1
 74
1
 75
1
 94
63
  0
MATERIAL
  5
20
102
{ACAD_REACTORS
330
E
102
}
330
E
100
AcDbMaterial
  1
ByLayer
  2

 70
0
 40
1.0
 71
1
 41
1.0
 91
-1023410177
 42
1.0
 72
1
  3

 73
1
 74
1
 75
1
 44
0.5
 73
0
 45
1.0
 46
1.0
 77
1
  4

 78
1
 79
1
170
1
 48
1.0
171
1
  6

172
1
173
1
174
1
140
1.0
141
1.0
175
1
  7

176
1
177
1
178
1
143
1.0
179
1
  8

270
1
271
1
272
1
145
1.0
146
1.0
273
1
  9

274
1
275
1
276
1
 42
1.0
 72
1
  3

 73
1
 74
1
 75
1
 94
63
  0
MATERIAL
  5
21
102
{ACAD_REACTORS
330
E
102
}
330
E
100
AcDbMaterial
  1
Global
  2

 70
0
 40
1.0
 71
1
 41
1.0
 91
-1023410177
 42
1.0
 72
1
  3

 73
1
 74
1
 75
1
 44
0.5
 73
0
 45
1.0
 46
1.0
 77
1
  4

 78
1
 79
1
170
1
 48
1.0
171
1
  6

172
1
173
1
174
1
140
1.0
141
1.0
175
1
  7

176
1
177
1
178
1
143
1.0
179
1
  8

270
1
271
1
272
1
145
1.0
146
1.0
273
1
  9

274
1
275
1
276
1
 42
1.0
 72
1
  3

 73
1
 74
1
 75
1
 94
63
  0
MLINESTYLE
  5
22
102
{ACAD_REACTORS
330
10
102
}
330
10
100
AcDbMlineStyle
  2
Standard
 70
0
  3

 62
256
 51
90.0
 52
90.0
 71
2
 49
0.5
 62
256
  6
BYLAYER
 49
-0.5
 62
256
  6
BYLAYER
  0
MLEADERSTYLE
  5
2C
102
{ACAD_REACTORS
330
F
102
}
330
F
100
AcDbMLeaderStyle
179
2
170
2
171
1
172
0
 90
2
 40
0.0
 41
0.0
173
1
 91
-1056964608
 92
-2
290
1
 42
2.0
291
1
 43
8.0
  3
Standard
 44
4.0
300

342
29
174
1
175
1
176
0
178
1
 93
-1056964608
 45
4.0
292
0
297
0
 46
4.0
 94
-1056964608
 47
1.0
 49
1.0
140
1.0
294
1
141
0.0
177
0
142
1.0
295
0
296
0
143
3.75
271
0
272
9
273
9
  0
DICTIONARY
  5
2D
330
A
100
AcDbDictionary
281
1
  3
CREATED_BY_EZDXF
350
2E
  3
WRITTEN_BY_EZDXF
350
15C
  0
DICTIONARYVAR
  5
2E
330
2D
100
DictionaryVariables
280
0
  1
1.3.4 @ 2026-01-12T05:34:16.113932+00:00
  0
VISUALSTYLE
  5
5A
102
{ACAD_REACTORS
330
16
102
}
330
16
100
AcDbVisualStyle
  2
2dWireframe
 70
4
177
3
291
0
 70
58
 90
2
176
1
 90
2
176
1
 90
0
176
1
 90
0
176
1
 40
0.6
176
1
 40
30.0
176
1
 62
7
420
16777215
176
1
 90
1
176
1
 90
4
176
1
 62
7
176
1
 62
257
176
1
 90
1
176
1
 90
1
176
1
 40
1.0
176
1
 90
8
176
1
 62
7
176
1
 40
1.0
176
1
 90
1
176
1
 90
6
176
1
 90
2
176
1
 62
7
176
1
 90
5
176
1
 90
0
176
1
 90
0
176
1
290
0
176
1
 90
1
176
1
 40
0.0
176
1
 90
0
176
1
290
1
176
1
290
1
176
1
290
0
176
1
290
0
176
1
290
0
176
1
290
0
176
1
290
0
176
1
290
0
176
1
290
0
176
1
 90
50
176
1
 40
0.0
176
1
 40
1.0
176
1
 90
0
176
1
 62
18
420
0
176
1
 90
50
176
1
 90
3
176
1
 62
5
420
255
176
1
290
0
176
1
 90
50
176
1
 90
50
176
1
 90
50
176
1
290
0
176
1
 90
50
176
1
 62
256
176
0
 40
1.0
176
0
 90
2
176
1
  1
strokes_ogs.tif
176
1
290
0
176
1
 40
1.0
176
1
 40
1.0
176
1
  0
VISUALSTYLE
  5
5B
102
{ACAD_REACTORS
330
16
102
}
330
16
100
AcDbVisualStyle
  2
Basic
 70
7
177
3
291
1
 70
58
 90
2
176
1
 90
2
176
1
 90
0
176
1
 90
1
176
1
 40
0.6
176
1
 40
30.0
176
1
 62
7
420
16777215
176
1
 90
1
176
1
 90
4
176
1
 62
7
176
1
 62
257
176
1
 90
1
176
1
 90
1
176
1
 40
1.0
176
1
 90
8
176
1
 62
7
176
1
 40
1.0
176
1
 90
1
176
1
 90
6
176
1
 90
2
176
1
 62
7
176
1
 90
5
176
1
 90
0
176
1
 90
0
176
1
290
0
176
1
 90
1
176
1
 40
0.0
176
1
 90
0
176
1
290
0
176
1
290
1
176
1
290
1
176
1
290
0
176
1
290
0
176
1
290
0
176
1
290
0
176
1
290
0
176
1
290
0
176
1
 90
50
176
1
 40
0.0
176
1
 40
1.0
176
1
 90
0
176
1
 62
18
420
0
176
1
 90
50
176
1
 90
3
176
1
 62
5
420
255
176
1
290
0
176
1
 90
50
176
1
 90
50
176
1
 90
50
176
1
290
0
176
1
 90
50
176
1
 62
256
176
0
 40
1.0
176
0
 90
2
176
1
  1
strokes_ogs.tif
176
1
290
0
176
1
 40
1.0
176
1
 40
1.0
176
1
  0
VISUALSTYLE
  5
5C
102
{ACAD_REACTORS
330
16
102
}
330
16
100
AcDbVisualStyle
  2
Brighten
 70
12
177
3
291
1
 70
58
 90
2
176
1
 90
2
176
1
 90
0
176
1
 90
2
176
1
 40
0.6
176
1
 40
30.0
176
1
 62
7
420
16777215
176
1
 90
1
176
1
 90
4
176
1
 62
7
176
1
 62
257
176
1
 90
1
176
1
 90
1
176
1
 40
1.0
176
1
 90
8
176
1
 62
7
176
1
 40
1.0
176
1
 90
1
176
1
 90
6
176
1
 90
2
176
1
 62
7
176
1
 90
5
176
1
 90
0
176
1
 90
0
176
1
290
0
176
1
 90
1
176
1
 40
0.0
176
1
 90
0
176
1
290
0
176
1
290
1
176
1
290
1
176
1
290
0
176
1
290
0
176
1
290
0
176
1
290
0
176
1
290
0
176
1
290
0
176
1
 90
50
176
1
 40
0.0
176
1
 40
1.0
176
1
 90
0
176
1
 62
18
420
0
176
1
 90
50
176
1
 90
3
176
1
 62
5
420
255
176
1
290
0
176
1
 90
50
176
1
 90
50
176
1
 90
50
176
1
290
0
176
1
 90
50
176
1
 62
256
176
0
 40
1.0
176
0
 90
2
176
1
  1
strokes_ogs.tif
176
1
290
0
176
1
 40
1.0
176
1
 40
1.0
176
1
  0
VISUALSTYLE
  5
5D
102
{ACAD_REACTORS
330
16
102
}
330
16
100
AcDbVisualStyle
  2
ColorChange
 70
16
177
3
291
1
 70
58
 90
2
176
1
 90
2
176
1
 90
0
176
1
 90
2
176
1
 40
0.6
176
1
 40
30.0
176
1
 62
7
420
16777215
176
1
 90
1
176
1
 90
4
176
1
 62
7
176
1
 62
257
176
1
 90
1
176
1
 90
1
176
1
 40
1.0
176
1
 90
8
176
1
 62
7
176
1
 40
1.0
176
1
 90
1
176
1
 90
6
176
1
 90
2
176
1
 62
7
176
1
 90
5
176
1
 90
0
176
1
 90
0
176
1
290
0
176
1
 90
1
176
1
 40
0.0
176
1
 90
0
176
1
290
0
176
1
290
1
176
1
290
1
176
1
290
0
176
1
290
0
176
1
290
0
176
1
290
0
176
1
290
0
176
1
290
0
176
1
 90
50
176
1
 40
0.0
176
1
 40
1.0
176
1
 90
0
176
1
 62
18
420
0
176
1
 90
50
176
1
 90
3
176
1
 62
5
420
255
176
1
290
0
176
1
 90
50
176
1
 90
50
176
1
 90
50
176
1
290
0
176
1
 90
50
176
1
 62
256
176
0
 40
1.0
176
0
 90
2
176
1
  1
strokes_ogs.tif
176
1
290
0
176
1
 40
1.0
176
1
 40
1.0
176
1
  0
VISUALSTYLE
  5
5E
102
{ACAD_REACTORS
330
16
102
}
330
16
100
AcDbVisualStyle
  2
Conceptual
 70
9
177
3
291
0
 70
58
 90
2
176
1
 90
2
176
1
 90
0
176
1
 90
3
176
1
 40
0.6
176
1
 40
30.0
176
1
 62
7
420
16777215
176
1
 90
1
176
1
 90
4
176
1
 62
7
176
1
 62
257
176
1
 90
1
176
1
 90
1
176
1
 40
1.0
176
1
 90
8
176
1
 62
7
176
1
 40
1.0
176
1
 90
1
176
1
 90
6
176
1
 90
2
176
1
 62
7
176
1
 90
5
176
1
 90
0
176
1
 90
0
176
1
290
0
176
1
 90
1
176
1
 40
0.0
176
1
 90
0
176
1
290
0
176
1
290
1
176
1
290
1
176
1
290
0
176
1
290
0
176
1
290
0
176
1
290
0
176
1
290
0
176
1
290
0
176
1
 90
50
176
1
 40
0.0
176
1
 40
1.0
176
1
 90
0
176
1
 62
18
420
0
176
1
 90
50
176
1
 90
3
176
1
 62
5
420
255
176
1
290
0
176
1
 90
50
176
1
 90
50
176
1
 90
50
176
1
290
0
176
1
 90
50
176
1
 62
256
176
0
 40
1.0
176
0
 90
2
176
1
  1
strokes_ogs.tif
176
1
290
0
176
1
 40
1.0
176
1
 40
1.0
176
1
  0
VISUALSTYLE
  5
5F
102
{ACAD_REACTORS
330
16
102
}
330
16
100
AcDbVisualStyle
  2
Dim
 70
11
177
3
291
1
 70
58
 90
2
176
1
 90
2
176
1
 90
0
176
1
 90
2
176
1
 40
0.6
176
1
 40
30.0
176
1
 62
7
420
16777215
176
1
 90
1
176
1
 90
4
176
1
 62
7
176
1
 62
257
176
1
 90
1
176
1
 90
1
176
1
 40
1.0
176
1
 90
8
176
1
 62
7
176
1
 40
1.0
176
1
 90
1
176
1
 90
6
176
1
 90
2
176
1
 62
7
176
1
 90
5
176
1
 90
0
176
1
 90
0
176
1
290
0
176
1
 90
1
176
1
 40
0.0
176
1
 90
0
176
1
290
0
176
1
290
1
176
1
290
1
176
1
290
0
176
1
290
0
176
1
290
0
176
1
290
0
176
1
290
0
176
1
290
0
176
1
 90
50
176
1
 40
0.0
176
1
 40
1.0
176
1
 90
0
176
1
 62
18
420
0
176
1
 90
50
176
1
 90
3
176
1
 62
5
420
255
176
1
290
0
176
1
 90
50
176
1
 90
50
176
1
 90
50
176
1
290
0
176
1
 90
50
176
1
 62
256
176
0
 40
1.0
176
0
 90
2
176
1
  1
strokes_ogs.tif
176
1
290
0
176
1
 40
1.0
176
1
 40
1.0
176
1
  0
VISUALSTYLE
  5
60
102
{ACAD_REACTORS
330
16
102
}
330
16
100
AcDbVisualStyle
  2
EdgeColorOff
 70
22
177
3
291
1
 70
58
 90
2
176
1
 90
2
176
1
 90
0
176
1
 90
2
176
1
 40
0.6
176
1
 40
30.0
176
1
 62
7
420
16777215
176
1
 90
1
176
1
 90
4
176
1
 62
7
176
1
 62
257
176
1
 90
1
176
1
 90
1
176
1
 40
1.0
176
1
 90
8
176
1
 62
7
176
1
 40
1.0
176
1
 90
1
176
1
 90
6
176
1
 90
2
176
1
 62
7
176
1
 90
5
176
1
 90
0
176
1
 90
0
176
1
290
0
176
1
 90
1
176
1
 40
0.0
176
1
 90
0
176
1
290
0
176
1
290
1
176
1
290
1
176
1
290
0
176
1
290
0
176
1
290
0
176
1
290
0
176
1
290
0
176
1
290
0
176
1
 90
50
176
1
 40
0.0
176
1
 40
1.0
176
1
 90
0
176
1
 62
18
420
0
176
1
 90
50
176
1
 90
3
176
1
 62
5
420
255
176
1
290
0
176
1
 90
50
176
1
 90
50
176
1
 90
50
176
1
290
0
176
1
 90
50
176
1
 62
256
176
0
 40
1.0
176
0
 90
2
176
1
  1
strokes_ogs.tif
176
1
290
0
176
1
 40
1.0
176
1
 40
1.0
176
1
  0
VISUALSTYLE
  5
61
102
{ACAD_REACTORS
330
16
102
}
330
16
100
AcDbVisualStyle
  2
Facepattern
 70
15
177
3
291
1
 70
58
 90
2
176
1
 90
2
176
1
 90
0
176
1
 90
2
176
1
 40
0.6
176
1
 40
30.0
176
1
 62
7
420
16777215
176
1
 90
1
176
1
 90
4
176
1
 62
7
176
1
 62
257
176
1
 90
1
176
1
 90
1
176
1
 40
1.0
176
1
 90
8
176
1
 62
7
176
1
 40
1.0
176
1
 90
1
176
1
 90
6
176
1
 90
2
176
1
 62
7
176
1
 90
5
176
1
 90
0
176
1
 90
0
176
1
290
0
176
1
 90
1
176
1
 40
0.0
176
1
 90
0
176
1
290
0
176
1
290
1
176
1
290
1
176
1
290
0
176
1
290
0
176
1
290
0
176
1
290
0
176
1
290
0
176
1
290
0
176
1
 90
50
176
1
 40
0.0
176
1
 40
1.0
176
1
 90
0
176
1
 62
18
420
0
176
1
 90
50
176
1
 90
3
176
1
 62
5
420
255
176
1
290
0
176
1
 90
50
176
1
 90
50
176
1
 90
50
176
1
290
0
176
1
 90
50
176
1
 62
256
176
0
 40
1.0
176
0
 90
2
176
1
  1
strokes_ogs.tif
176
1
290
0
176
1
 40
1.0
176
1
 40
1.0
176
1
  0
VISUALSTYLE
  5
62
102
{ACAD_REACTORS
330
16
102
}
330
16
100
AcDbVisualStyle
  2
Flat
 70
0
177
3
291
1
 70
58
 90
2
176
1
 90
2
176
1
 90
0
176
1
 90
2
176
1
 40
0.6
176
1
 40
30.0
176
1
 62
7
420
16777215
176
1
 90
1
176
1
 90
4
176
1
 62
7
176
1
 62
257
176
1
 90
1
176
1
 90
1
176
1
 40
1.0
176
1
 90
8
176
1
 62
7
176
1
 40
1.0
176
1
 90
1
176
1
 90
6
176
1
 90
2
176
1
 62
7
176
1
 90
5
176
1
 90
0
176
1
 90
0
176
1
290
0
176
1
 90
1
176
1
 40
0.0
176
1
 90
0
176
1
290
0
176
1
290
1
176
1
290
1
176
1
290
0
176
1
290
0
176
1
290
0
176
1
290
0
176
1
290
0
176
1
290
0
176
1
 90
50
176
1
 40
0.0
176
1
 40
1.0
176
1
 90
0
176
1
 62
18
420
0
176
1
 90
50
176
1
 90
3
176
1
 62
5
420
255
176
1
290
0
176
1
 90
50
176
1
 90
50
176
1
 90
50
176
1
290
0
176
1
 90
50
176
1
 62
256
176
0
 40
1.0
176
0
 90
2
176
1
  1
strokes_ogs.tif
176
1
290
0
176
1
 40
1.0
176
1
 40
1.0
176
1
  0
VISUALSTYLE
  5
63
102
{ACAD_REACTORS
330
16
102
}
330
16
100
AcDbVisualStyle
  2
FlatWithEdges
 70
1
177
3
291
1
 70
58
 90
2
176
1
 90
2
176
1
 90
0
176
1
 90
2
176
1
 40
0.6
176
1
 40
30.0
176
1
 62
7
420
16777215
176
1
 90
1
176
1
 90
4
176
1
 62
7
176
1
 62
257
176
1
 90
1
176
1
 90
1
176
1
 40
1.0
176
1
 90
8
176
1
 62
7
176
1
 40
1.0
176
1
 90
1
176
1
 90
6
176
1
 90
2
176
1
 62
7
176
1
 90
5
176
1
 90
0
176
1
 90
0
176
1
290
0
176
1
 90
1
176
1
 40
0.0
176
1
 90
0
176
1
290
0
176
1
290
1
176
1
290
1
176
1
290
0
176
1
290
0
176
1
290
0
176
1
290
0
176
1
290
0
176
1
290
0
176
1
 90
50
176
1
 40
0.0
176
1
 40
1.0
176
1
 90
0
176
1
 62
18
420
0
176
1
 90
50
176
1
 90
3
176
1
 62
5
420
255
176
1
290
0
176
1
 90
50
176
1
 90
50
176
1
 90
50
176
1
290
0
176
1
 90
50
176
1
 62
256
176
0
 40
1.0
176
0
 90
2
176
1
  1
strokes_ogs.tif
176
1
290
0
176
1
 40
1.0
176
1
 40
1.0
176
1
  0
VISUALSTYLE
  5
64
102
{ACAD_REACTORS
330
16
102
}
330
16
100
AcDbVisualStyle
  2
Gouraud
 70
2
177
3
291
1
 70
58
 90
2
176
1
 90
2
176
1
 90
0
176
1
 90
2
176
1
 40
0.6
176
1
 40
30.0
176
1
 62
7
420
16777215
176
1
 90
1
176
1
 90
4
176
1
 62
7
176
1
 62
257
176
1
 90
1
176
1
 90
1
176
1
 40
1.0
176
1
 90
8
176
1
 62
7
176
1
 40
1.0
176
1
 90
1
176
1
 90
6
176
1
 90
2
176
1
 62
7
176
1
 90
5
176
1
 90
0
176
1
 90
0
176
1
290
0
176
1
 90
1
176
1
 40
0.0
176
1
 90
0
176
1
290
0
176
1
290
1
176
1
290
1
176
1
290
0
176
1
290
0
176
1
290
0
176
1
290
0
176
1
290
0
176
1
290
0
176
1
 90
50
176
1
 40
0.0
176
1
 40
1.0
176
1
 90
0
176
1
 62
18
420
0
176
1
 90
50
176
1
 90
3
176
1
 62
5
420
255
176
1
290
0
176
1
 90
50
176
1
 90
50
176
1
 90
50
176
1
290
0
176
1
 90
50
176
1
 62
256
176
0
 40
1.0
176
0
 90
2
176
1
  1
strokes_ogs.tif
176
1
290
0
176
1
 40
1.0
176
1
 40
1.0
176
1
  0
VISUALSTYLE
  5
65
102
{ACAD_REACTORS
330
16
102
}
330
16
100
AcDbVisualStyle
  2
GouraudWithEdges
 70
3
177
3
291
1
 70
58
 90
2
176
1
 90
2
176
1
 90
0
176
1
 90
2
176
1
 40
0.6
176
1
 40
30.0
176
1
 62
7
420
16777215
176
1
 90
1
176
1
 90
4
176
1
 62
7
176
1
 62
257
176
1
 90
1
176
1
 90
1
176
1
 40
1.0
176
1
 90
8
176
1
 62
7
176
1
 40
1.0
176
1
 90
1
176
1
 90
6
176
1
 90
2
176
1
 62
7
176
1
 90
5
176
1
 90
0
176
1
 90
0
176
1
290
0
176
1
 90
1
176
1
 40
0.0
176
1
 90
0
176
1
290
0
176
1
290
1
176
1
290
1
176
1
290
0
176
1
290
0
176
1
290
0
176
1
290
0
176
1
290
0
176
1
290
0
176
1
 90
50
176
1
 40
0.0
176
1
 40
1.0
176
1
 90
0
176
1
 62
18
420
0
176
1
 90
50
176
1
 90
3
176
1
 62
5
420
255
176
1
290
0
176
1
 90
50
176
1
 90
50
176
1
 90
50
176
1
290
0
176
1
 90
50
176
1
 62
256
176
0
 40
1.0
176
0
 90
2
176
1
  1
strokes_ogs.tif
176
1
290
0
176
1
 40
1.0
176
1
 40
1.0
176
1
  0
VISUALSTYLE
  5
66
102
{ACAD_REACTORS
330
16
102
}
330
16
100
AcDbVisualStyle
  2
Hidden
 70
6
177
3
291
0
 70
58
 90
2
176
1
 90
2
176
1
 90
0
176
1
 90
1
176
1
 40
0.6
176
1
 40
30.0
176
1
 62
7
420
16777215
176
1
 90
1
176
1
 90
4
176
1
 62
7
176
1
 62
257
176
1
 90
1
176
1
 90
1
176
1
 40
1.0
176
1
 90
8
176
1
 62
7
176
1
 40
1.0
176
1
 90
1
176
1
 90
6
176
1
 90
2
176
1
 62
7
176
1
 90
5
176
1
 90
0
176
1
 90
0
176
1
290
0
176
1
 90
1
176
1
 40
0.0
176
1
 90
0
176
1
290
0
176
1
290
1
176
1
290
1
176
1
290
0
176
1
290
0
176
1
290
0
176
1
290
0
176
1
290
0
176
1
290
0
176
1
 90
50
176
1
 40
0.0
176
1
 40
1.0
176
1
 90
0
176
1
 62
18
420
0
176
1
 90
50
176
1
 90
3
176
1
 62
5
420
255
176
1
290
0
176
1
 90
50
176
1
 90
50
176
1
 90
50
176
1
290
0
176
1
 90
50
176
1
 62
256
176
0
 40
1.0
176
0
 90
2
176
1
  1
strokes_ogs.tif
176
1
290
0
176
1
 40
1.0
176
1
 40
1.0
176
1
  0
VISUALSTYLE
  5
67
102
{ACAD_REACTORS
330
16
102
}
330
16
100
AcDbVisualStyle
  2
JitterOff
 70
20
177
3
291
1
 70
58
 90
2
176
1
 90
2
176
1
 90
0
176
1
 90
2
176
1
 40
0.6
176
1
 40
30.0
176
1
 62
7
420
16777215
176
1
 90
1
176
1
 90
4
176
1
 62
7
176
1
 62
257
176
1
 90
1
176
1
 90
1
176
1
 40
1.0
176
1
 90
8
176
1
 62
7
176
1
 40
1.0
176
1
 90
1
176
1
 90
6
176
1
 90
2
176
1
 62
7
176
1
 90
5
176
1
 90
0
176
1
 90
0
176
1
290
0
176
1
 90
1
176
1
 40
0.0
176
1
 90
0
176
1
290
0
176
1
290
1
176
1
290
1
176
1
290
0
176
1
290
0
176
1
290
0
176
1
290
0
176
1
290
0
176
1
290
0
176
1
 90
50
176
1
 40
0.0
176
1
 40
1.0
176
1
 90
0
176
1
 62
18
420
0
176
1
 90
50
176
1
 90
3
176
1
 62
5
420
255
176
1
290
0
176
1
 90
50
176
1
 90
50
176
1
 90
50
176
1
290
0
176
1
 90
50
176
1
 62
256
176
0
 40
1.0
176
0
 90
2
176
1
  1
strokes_ogs.tif
176
1
290
0
176
1
 40
1.0
176
1
 40
1.0
176
1
  0
VISUALSTYLE
  5
68
102
{ACAD_REACTORS
330
16
102
}
330
16
100
AcDbVisualStyle
  2
Linepattern
 70
14
177
3
291
1
 70
58
 90
2
176
1
 90
2
176
1
 90
0
176
1
 90
2
176
1
 40
0.6
176
1
 40
30.0
176
1
 62
7
420
16777215
176
1
 90
1
176
1
 90
4
176
1
 62
7
176
1
 62
257
176
1
 90
1
176
1
 90
1
176
1
 40
1.0
176
1
 90
8
176
1
 62
7
176
1
 40
1.0
176
1
 90
1
176
1
 90
6
176
1
 90
2
176
1
 62
7
176
1
 90
5
176
1
 90
0
176
1
 90
0
176
1
290
0
176
1
 90
1
176
1
 40
0.0
176
1
 90
0
176
1
290
0
176
1
290
1
176
1
290
1
176
1
290
0
176
1
290
0
176
1
290
0
176
1
290
0
176
1
290
0
176
1
290
0
176
1
 90
50
176
1
 40
0.0
176
1
 40
1.0
176
1
 90
0
176
1
 62
18
420
0
176
1
 90
50
176
1
 90
3
176
1
 62
5
420
255
176
1
290
0
176
1
 90
50
176
1
 90
50
176
1
 90
50
176
1
290
0
176
1
 90
50
176
1
 62
256
176
0
 40
1.0
176
0
 90
2
176
1
  1
strokes_ogs.tif
176
1
290
0
176
1
 40
1.0
176
1
 40
1.0
176
1
  0
VISUALSTYLE
  5
69
102
{ACAD_REACTORS
330
16
102
}
330
16
100
AcDbVisualStyle
  2
Modeling
 70
10
177
3
291
0
 70
58
 90
2
176
1
 90
2
176
1
 90
0
176
1
 90
2
176
1
 40
0.6
176
1
 40
30.0
176
1
 62
7
420
16777215
176
1
 90
1
176
1
 90
4
176
1
 62
7
176
1
 62
257
176
1
 90
1
176
1
 90
1
176
1
 40
1.0
176
1
 90
8
176
1
 62
7
176
1
 40
1.0
176
1
 90
1
176
1
 90
6
176
1
 90
2
176
1
 62
7
176
1
 90
5
176
1
 90
0
176
1
 90
0
176
1
290
0
176
1
 90
1
176
1
 40
0.0
176
1
 90
0
176
1
290
0
176
1
290
1
176
1
290
1
176
1
290
0
176
1
290
0
176
1
290
0
176
1
290
0
176
1
290
0
176
1
290
0
176
1
 90
50
176
1
 40
0.0
176
1
 40
1.0
176
1
 90
0
176
1
 62
18
420
0
176
1
 90
50
176
1
 90
3
176
1
 62
5
420
255
176
1
290
0
176
1
 90
50
176
1
 90
50
176
1
 90
50
176
1
290
0
176
1
 90
50
176
1
 62
256
176
0
 40
1.0
176
0
 90
2
176
1
  1
strokes_ogs.tif
176
1
290
0
176
1
 40
1.0
176
1
 40
1.0
176
1
  0
VISUALSTYLE
  5
6A
102
{ACAD_REACTORS
330
16
102
}
330
16
100
AcDbVisualStyle
  2
OverhangOff
 70
21
177
3
291
1
 70
58
 90
2
176
1
 90
2
176
1
 90
0
176
1
 90
2
176
1
 40
0.6
176
1
 40
30.0
176
1
 62
7
420
16777215
176
1
 90
1
176
1
 90
4
176
1
 62
7
176
1
 62
257
176
1
 90
1
176
1
 90
1
176
1
 40
1.0
176
1
 90
8
176
1
 62
7
176
1
 40
1.0
176
1
 90
1
176
1
 90
6
176
1
 90
2
176
1
 62
7
176
1
 90
5
176
1
 90
0
176
1
 90
0
176
1
290
0
176
1
 90
1
176
1
 40
0.0
176
1
 90
0
176
1
290
0
176
1
290
1
176
1
290
1
176
1
290
0
176
1
290
0
176
1
290
0
176
1
290
0
176
1
290
0
176
1
290
0
176
1
 90
50
176
1
 40
0.0
176
1
 40
1.0
176
1
 90
0
176
1
 62
18
420
0
176
1
 90
50
176
1
 90
3
176
1
 62
5
420
255
176
1
290
0
176
1
 90
50
176
1
 90
50
176
1
 90
50
176
1
290
0
176
1
 90
50
176
1
 62
256
176
0
 40
1.0
176
0
 90
2
176
1
  1
strokes_ogs.tif
176
1
290
0
176
1
 40
1.0
176
1
 40
1.0
176
1
  0
VISUALSTYLE
  5
6B
102
{ACAD_REACTORS
330
16
102
}
330
16
100
AcDbVisualStyle
  2
Realistic
 70
8
177
3
291
0
 70
58
 90
2
176
1
 90
2
176
1
 90
0
176
1
 90
2
176
1
 40
0.6
176
1
 40
30.0
176
1
 62
7
420
16777215
176
1
 90
1
176
1
 90
4
176
1
 62
7
176
1
 62
257
176
1
 90
1
176
1
 90
1
176
1
 40
1.0
176
1
 90
8
176
1
 62
7
176
1
 40
1.0
176
1
 90
1
176
1
 90
6
176
1
 90
2
176
1
 62
7
176
1
 90
5
176
1
 90
0
176
1
 90
0
176
1
290
0
176
1
 90
1
176
1
 40
0.0
176
1
 90
0
176
1
290
0
176
1
290
1
176
1
290
1
176
1
290
0
176
1
290
0
176
1
290
0
176
1
290
0
176
1
290
0
176
1
290
0
176
1
 90
50
176
1
 40
0.0
176
1
 40
1.0
176
1
 90
0
176
1
 62
18
420
0
176
1
 90
50
176
1
 90
3
176
1
 62
5
420
255
176
1
290
0
176
1
 90
50
176
1
 90
50
176
1
 90
50
176
1
290
0
176
1
 90
50
176
1
 62
256
176
0
 40
1.0
176
0
 90
2
176
1
  1
strokes_ogs.tif
176
1
290
0
176
1
 40
1.0
176
1
 40
1.0
176
1
  0
VISUALSTYLE
  5
6C
102
{ACAD_REACTORS
330
16
102
}
330
16
100
AcDbVisualStyle
  2
Shaded
 70
27
177
3
291
0
 70
58
 90
2
176
1
 90
2
176
1
 90
0
176
1
 90
2
176
1
 40
0.6
176
1
 40
30.0
176
1
 62
7
420
16777215
176
1
 90
1
176
1
 90
4
176
1
 62
7
176
1
 62
257
176
1
 90
1
176
1
 90
1
176
1
 40
1.0
176
1
 90
8
176
1
 62
7
176
1
 40
1.0
176
1
 90
1
176
1
 90
6
176
1
 90
2
176
1
 62
7
176
1
 90
5
176
1
 90
0
176
1
 90
0
176
1
290
0
176
1
 90
1
176
1
 40
0.0
176
1
 90
0
176
1
290
0
176
1
290
1
176
1
290
1
176
1
290
0
176
1
290
0
176
1
290
0
176
1
290
0
176
1
290
0
176
1
290
0
176
1
 90
50
176
1
 40
0.0
176
1
 40
1.0
176
1
 90
0
176
1
 62
18
420
0
176
1
 90
50
176
1
 90
3
176
1
 62
5
420
255
176
1
290
0
176
1
 90
50
176
1
 90
50
176
1
 90
50
176
1
290
0
176
1
 90
50
176
1
 62
256
176
0
 40
1.0
176
0
 90
2
176
1
  1
strokes_ogs.tif
176
1
290
0
176
1
 40
1.0
176
1
 40
1.0
176
1
  0
VISUALSTYLE
  5
6D
102
{ACAD_REACTORS
330
16
102
}
330
16
100
AcDbVisualStyle
  2
Shaded with edges
 70
26
177
3
291
0
 70
58
 90
2
176
1
 90
2
176
1
 90
0
176
1
 90
2
176
1
 40
0.6
176
1
 40
30.0
176
1
 62
7
420
16777215
176
1
 90
1
176
1
 90
4
176
1
 62
7
176
1
 62
257
176
1
 90
1
176
1
 90
1
176
1
 40
1.0
176
1
 90
8
176
1
 62
7
176
1
 40
1.0
176
1
 90
1
176
1
 90
6
176
1
 90
2
176
1
 62
7
176
1
 90
5
176
1
 90
0
176
1
 90
0
176
1
290
0
176
1
 90
1
176
1
 40
0.0
176
1
 90
0
176
1
290
0
176
1
290
1
176
1
290
1
176
1
290
0
176
1
290
0
176
1
290
0
176
1
290
0
176
1
290
0
176
1
290
0
176
1
 90
50
176
1
 40
0.0
176
1
 40
1.0
176
1
 90
0
176
1
 62
18
420
0
176
1
 90
50
176
1
 90
3
176
1
 62
5
420
255
176
1
290
0
176
1
 90
50
176
1
 90
50
176
1
 90
50
176
1
290
0
176
1
 90
50
176
1
 62
256
176
0
 40
1.0
176
0
 90
2
176
1
  1
strokes_ogs.tif
176
1
290
0
176
1
 40
1.0
176
1
 40
1.0
176
1
  0
VISUALSTYLE
  5
6E
102
{ACAD_REACTORS
330
16
102
}
330
16
100
AcDbVisualStyle
  2
Shades of Gray
 70
23
177
3
291
0
 70
58
 90
2
176
1
 90
2
176
1
 90
0
176
1
 90
2
176
1
 40
0.6
176
1
 40
30.0
176
1
 62
7
420
16777215
176
1
 90
1
176
1
 90
4
176
1
 62
7
176
1
 62
257
176
1
 90
1
176
1
 90
1
176
1
 40
1.0
176
1
 90
8
176
1
 62
7
176
1
 40
1.0
176
1
 90
1
176
1
 90
6
176
1
 90
2
176
1
 62
7
176
1
 90
5
176
1
 90
0
176
1
 90
0
176
1
290
0
176
1
 90
1
176
1
 40
0.0
176
1
 90
0
176
1
290
0
176
1
290
1
176
1
290
1
176
1
290
0
176
1
290
0
176
1
290
0
176
1
290
0
176
1
290
0
176
1
290
0
176
1
 90
50
176
1
 40
0.0
176
1
 40
1.0
176
1
 90
0
176
1
 62
18
420
0
176
1
 90
50
176
1
 90
3
176
1
 62
5
420
255
176
1
290
0
176
1
 90
50
176
1
 90
50
176
1
 90
50
176
1
290
0
176
1
 90
50
176
1
 62
256
176
0
 40
1.0
176
0
 90
2
176
1
  1
strokes_ogs.tif
176
1
290
0
176
1
 40
1.0
176
1
 40
1.0
176
1
  0
VISUALSTYLE
  5
6F
102
{ACAD_REACTORS
330
16
102
}
330
16
100
AcDbVisualStyle
  2
Sketchy
 70
24
177
3
291
0
 70
58
 90
2
176
1
 90
2
176
1
 90
0
176
1
 90
1
176
1
 40
0.6
176
1
 40
30.0
176
1
 62
7
420
16777215
176
1
 90
1
176
1
 90
4
176
1
 62
7
176
1
 62
257
176
1
 90
1
176
1
 90
1
176
1
 40
1.0
176
1
 90
8
176
1
 62
7
176
1
 40
1.0
176
1
 90
1
176
1
 90
6
176
1
 90
2
176
1
 62
7
176
1
 90
5
176
1
 90
0
176
1
 90
0
176
1
290
0
176
1
 90
1
176
1
 40
0.0
176
1
 90
0
176
1
290
0
176
1
290
1
176
1
290
1
176
1
290
0
176
1
290
0
176
1
290
0
176
1
290
0
176
1
290
0
176
1
290
0
176
1
 90
50
176
1
 40
0.0
176
1
 40
1.0
176
1
 90
0
176
1
 62
18
420
0
176
1
 90
50
176
1
 90
3
176
1
 62
5
420
255
176
1
290
0
176
1
 90
50
176
1
 90
50
176
1
 90
50
176
1
290
0
176
1
 90
50
176
1
 62
256
176
0
 40
1.0
176
0
 90
2
176
1
  1
strokes_ogs.tif
176
1
290
0
176
1
 40
1.0
176
1
 40
1.0
176
1
  0
VISUALSTYLE
  5
70
102
{ACAD_REACTORS
330
16
102
}
330
16
100
AcDbVisualStyle
  2
Thicken
 70
13
177
3
291
1
 70
58
 90
2
176
1
 90
2
176
1
 90
0
176
1
 90
2
176
1
 40
0.6
176
1
 40
30.0
176
1
 62
7
420
16777215
176
1
 90
1
176
1
 90
4
176
1
 62
7
176
1
 62
257
176
1
 90
1
176
1
 90
1
176
1
 40
1.0
176
1
 90
8
176
1
 62
7
176
1
 40
1.0
176
1
 90
1
176
1
 90
6
176
1
 90
2
176
1
 62
7
176
1
 90
5
176
1
 90
0
176
1
 90
0
176
1
290
0
176
1
 90
1
176
1
 40
0.0
176
1
 90
0
176
1
290
0
176
1
290
1
176
1
290
1
176
1
290
0
176
1
290
0
176
1
290
0
176
1
290
0
176
1
290
0
176
1
290
0
176
1
 90
50
176
1
 40
0.0
176
1
 40
1.0
176
1
 90
0
176
1
 62
18
420
0
176
1
 90
50
176
1
 90
3
176
1
 62
5
420
255
176
1
290
0
176
1
 90
50
176
1
 90
50
176
1
 90
50
176
1
290
0
176
1
 90
50
176
1
 62
256
176
0
 40
1.0
176
0
 90
2
176
1
  1
strokes_ogs.tif
176
1
290
0
176
1
 40
1.0
176
1
 40
1.0
176
1
  0
VISUALSTYLE
  5
71
102
{ACAD_REACTORS
330
16
102
}
330
16
100
AcDbVisualStyle
  2
Wireframe
 70
5
177
3
291
0
 70
58
 90
2
176
1
 90
2
176
1
 90
0
176
1
 90
0
176
1
 40
0.6
176
1
 40
30.0
176
1
 62
7
420
16777215
176
1
 90
1
176
1
 90
4
176
1
 62
7
176
1
 62
257
176
1
 90
1
176
1
 90
1
176
1
 40
1.0
176
1
 90
8
176
1
 62
7
176
1
 40
1.0
176
1
 90
1
176
1
 90
6
176
1
 90
2
176
1
 62
7
176
1
 90
5
176
1
 90
0
176
1
 90
0
176
1
290
0
176
1
 90
1
176
1
 40
0.0
176
1
 90
0
176
1
290
0
176
1
290
1
176
1
290
1
176
1
290
0
176
1
290
0
176
1
290
0
176
1
290
0
176
1
290
0
176
1
290
0
176
1
 90
50
176
1
 40
0.0
176
1
 40
1.0
176
1
 90
0
176
1
 62
18
420
0
176
1
 90
50
176
1
 90
3
176
1
 62
5
420
255
176
1
290
0
176
1
 90
50
176
1
 90
50
176
1
 90
50
176
1
290
0
176
1
 90
50
176
1
 62
256
176
0
 40
1.0
176
0
 90
2
176
1
  1
strokes_ogs.tif
176
1
290
0
176
1
 40
1.0
176
1
 40
1.0
176
1
  0
VISUALSTYLE
  5
72
102
{ACAD_REACTORS
330
16
102
}
330
16
100
AcDbVisualStyle
  2
X-Ray
 70
25
177
3
291
0
 70
58
 90
2
176
1
 90
2
176
1
 90
0
176
1
 90
2
176
1
 40
0.5
176
1
 40
30.0
176
1
 62
7
420
16777215
176
1
 90
1
176
1
 90
4
176
1
 62
7
176
1
 62
257
176
1
 90
1
176
1
 90
1
176
1
 40
1.0
176
1
 90
8
176
1
 62
7
176
1
 40
1.0
176
1
 90
1
176
1
 90
6
176
1
 90
2
176
1
 62
7
176
1
 90
5
176
1
 90
0
176
1
 90
0
176
1
290
0
176
1
 90
1
176
1
 40
0.0
176
1
 90
0
176
1
290
0
176
1
290
1
176
1
290
1
176
1
290
0
176
1
290
0
176
1
290
0
176
1
290
0
176
1
290
0
176
1
290
0
176
1
 90
50
176
1
 40
0.0
176
1
 40
1.0
176
1
 90
0
176
1
 62
18
420
0
176
1
 90
50
176
1
 90
3
176
1
 62
5
420
255
176
1
290
0
176
1
 90
50
176
1
 90
50
176
1
 90
50
176
1
290
0
176
1
 90
50
176
1
 62
256
176
0
 40
1.0
176
0
 90
2
176
1
  1
strokes_ogs.tif
176
1
290
0
176
1
 40
1.0
176
1
 40
1.0
176
1
  0
DICTIONARYVAR
  5
15C
330
2D
100
DictionaryVariables
280
0
  1
1.3.4 @ 2026-01-12T05:34:16.144850+00:00
  0
ENDSEC
  0
EOF
