<?xml version="1.0" standalone="no"?>
<svg xmlns="http://www.w3.org/2000/svg"
     width="22.961600mm"
     height="47.523400mm"
     viewBox="0 0 904 1871">
<path d="M 711 1733 L 711 1870 L 789 1870 L 789 1733 Z" fill="black" stroke="none"/>
<path d="M 76 1733 L 76 1870 L 154 1870 L 154 1733 Z" fill="black" stroke="none"/>
<path d="M 606 1452 L 606 1589 L 652 1589 L 652 1452 Z" fill="black" stroke="none"/>
<path d="M 508 1452 L 508 1589 L 554 1589 L 554 1452 Z" fill="black" stroke="none"/>
<path d="M 410 1452 L 410 1589 L 456 1589 L 456 1452 Z" fill="black" stroke="none"/>
<path d="M 312 1452 L 312 1589 L 358 1589 L 358 1452 Z" fill="black" stroke="none"/>
<path d="M 213 1452 L 213 1589 L 259 1589 L 259 1452 Z" fill="black" stroke="none"/>
<path d="M 517 1337 L 517 1367 L 559 1367 L 559 1337 Z" fill="black" stroke="none"/>
<path d="M 416 1337 L 416 1367 L 454 1367 L 454 1337 Z" fill="black" stroke="none"/>
<path d="M 309 1337 L 309 1367 L 351 1367 L 351 1337 Z" fill="black" stroke="none"/>
<path d="M 619 1222 L 611 1230 L 611 1262 L 613 1264 L 613 1266 L 620 1271 L 635 1271 L 637 1269 L 639 1269 L 644 1262 L 644 1230 L 636 1222 Z" fill="black" stroke="none"/>
<path d="M 544 1222 L 536 1230 L 536 1262 L 538 1264 L 538 1266 L 545 1271 L 560 1271 L 562 1269 L 564 1269 L 569 1262 L 569 1230 L 561 1222 Z" fill="black" stroke="none"/>
<path d="M 341 1222 L 333 1230 L 333 1262 L 335 1264 L 335 1266 L 342 1271 L 357 1271 L 359 1269 L 361 1269 L 366 1262 L 366 1230 L 358 1222 Z" fill="black" stroke="none"/>
<path d="M 266 1222 L 258 1230 L 258 1262 L 260 1264 L 260 1266 L 267 1271 L 282 1271 L 284 1269 L 286 1269 L 291 1262 L 291 1230 L 283 1222 Z" fill="black" stroke="none"/>
<path d="M 102 1230 L 101 1266 L 105 1275 L 110 1278 L 186 1279 L 195 1275 L 200 1264 L 200 1234 L 195 1225 L 186 1220 L 115 1220 L 105 1225 Z" fill="black" stroke="none"/>
<path d="M 674 1222 L 673 1258 L 677 1267 L 682 1270 L 758 1271 L 767 1267 L 772 1256 L 772 1226 L 767 1217 L 758 1212 L 687 1212 L 677 1217 Z" fill="black" stroke="none"/>
<path d="M 102 1116 L 101 1152 L 105 1161 L 110 1164 L 186 1165 L 195 1161 L 200 1150 L 200 1120 L 195 1111 L 186 1106 L 115 1106 L 105 1111 Z" fill="black" stroke="none"/>
<path d="M 674 1108 L 673 1144 L 677 1153 L 682 1156 L 758 1157 L 767 1153 L 772 1142 L 772 1112 L 767 1103 L 758 1098 L 687 1098 L 677 1103 Z" fill="black" stroke="none"/>
<path d="M 407 1086 L 404 1092 L 404 1118 L 406 1120 L 407 1125 L 411 1129 L 416 1130 L 418 1132 L 451 1132 L 461 1125 L 462 1121 L 465 1118 L 465 1092 L 457 1082 L 452 1079 L 417 1079 Z" fill="black" stroke="none"/>
<path d="M 827 1042 L 827 1084 L 857 1084 L 857 1042 Z" fill="black" stroke="none"/>
<path d="M 0 1042 L 0 1084 L 30 1084 L 30 1042 Z" fill="black" stroke="none"/>
<path d="M 698 1037 L 698 1053 L 700 1055 L 700 1057 L 707 1062 L 738 1062 L 747 1053 L 747 1037 L 739 1029 L 706 1029 L 701 1032 Z" fill="black" stroke="none"/>
<path d="M 582 1028 L 574 1036 L 574 1068 L 576 1070 L 576 1072 L 583 1077 L 598 1077 L 600 1075 L 602 1075 L 607 1068 L 607 1036 L 599 1028 Z" fill="black" stroke="none"/>
<path d="M 507 1028 L 499 1036 L 499 1068 L 501 1070 L 501 1072 L 508 1077 L 523 1077 L 525 1075 L 527 1075 L 532 1068 L 532 1036 L 524 1028 Z" fill="black" stroke="none"/>
<path d="M 350 1028 L 342 1036 L 342 1068 L 344 1070 L 344 1072 L 351 1077 L 366 1077 L 368 1075 L 370 1075 L 375 1068 L 375 1036 L 367 1028 Z" fill="black" stroke="none"/>
<path d="M 275 1028 L 267 1036 L 267 1068 L 269 1070 L 269 1072 L 276 1077 L 291 1077 L 293 1075 L 295 1075 L 300 1068 L 300 1036 L 292 1028 Z" fill="black" stroke="none"/>
<path d="M 183 997 L 183 1013 L 185 1015 L 185 1017 L 192 1022 L 223 1022 L 232 1013 L 232 997 L 224 989 L 191 989 L 186 992 Z" fill="black" stroke="none"/>
<path d="M 87 983 L 84 989 L 84 1015 L 86 1017 L 87 1022 L 91 1026 L 96 1027 L 98 1029 L 131 1029 L 141 1022 L 142 1018 L 145 1015 L 145 989 L 137 979 L 132 976 L 97 976 Z" fill="black" stroke="none"/>
<path d="M 407 973 L 404 979 L 404 1005 L 406 1007 L 407 1012 L 411 1016 L 416 1017 L 418 1019 L 451 1019 L 461 1012 L 462 1008 L 465 1005 L 465 979 L 457 969 L 452 966 L 417 966 Z" fill="black" stroke="none"/>
<path d="M 698 962 L 698 978 L 700 980 L 700 982 L 707 987 L 738 987 L 747 978 L 747 962 L 739 954 L 706 954 L 701 957 Z" fill="black" stroke="none"/>
<path d="M 582 949 L 574 957 L 574 989 L 576 991 L 576 993 L 583 998 L 598 998 L 600 996 L 602 996 L 607 989 L 607 957 L 599 949 Z" fill="black" stroke="none"/>
<path d="M 507 949 L 499 957 L 499 989 L 501 991 L 501 993 L 508 998 L 523 998 L 525 996 L 527 996 L 532 989 L 532 957 L 524 949 Z" fill="black" stroke="none"/>
<path d="M 350 949 L 342 957 L 342 989 L 344 991 L 344 993 L 351 998 L 366 998 L 368 996 L 370 996 L 375 989 L 375 957 L 367 949 Z" fill="black" stroke="none"/>
<path d="M 275 949 L 267 957 L 267 989 L 269 991 L 269 993 L 276 998 L 291 998 L 293 996 L 295 996 L 300 989 L 300 957 L 292 949 Z" fill="black" stroke="none"/>
<path d="M 827 940 L 827 978 L 857 978 L 857 940 Z" fill="black" stroke="none"/>
<path d="M 0 940 L 0 978 L 30 978 L 30 940 Z" fill="black" stroke="none"/>
<path d="M 183 922 L 183 938 L 185 940 L 185 942 L 192 947 L 223 947 L 232 938 L 232 922 L 224 914 L 191 914 L 186 917 Z" fill="black" stroke="none"/>
<path d="M 581 878 L 573 886 L 573 918 L 575 920 L 575 922 L 582 927 L 597 927 L 599 925 L 601 925 L 606 918 L 606 886 L 598 878 Z" fill="black" stroke="none"/>
<path d="M 506 878 L 498 886 L 498 918 L 500 920 L 500 922 L 507 927 L 522 927 L 524 925 L 526 925 L 531 918 L 531 886 L 523 878 Z" fill="black" stroke="none"/>
<path d="M 350 878 L 342 886 L 342 918 L 344 920 L 344 922 L 351 927 L 366 927 L 368 925 L 370 925 L 375 918 L 375 886 L 367 878 Z" fill="black" stroke="none"/>
<path d="M 275 878 L 267 886 L 267 918 L 269 920 L 269 922 L 276 927 L 291 927 L 293 925 L 295 925 L 300 918 L 300 886 L 292 878 Z" fill="black" stroke="none"/>
<path d="M 638 878 L 638 894 L 640 896 L 640 898 L 647 903 L 678 903 L 687 894 L 687 878 L 679 870 L 646 870 L 641 873 Z" fill="black" stroke="none"/>
<path d="M 87 871 L 84 877 L 84 903 L 86 905 L 87 910 L 91 914 L 96 915 L 98 917 L 131 917 L 141 910 L 142 906 L 145 903 L 145 877 L 137 867 L 132 864 L 97 864 Z" fill="black" stroke="none"/>
<path d="M 732 862 L 729 868 L 729 894 L 731 896 L 732 901 L 736 905 L 741 906 L 743 908 L 776 908 L 786 901 L 787 897 L 790 894 L 790 868 L 782 858 L 777 855 L 742 855 Z" fill="black" stroke="none"/>
<path d="M 183 863 L 183 879 L 185 881 L 185 883 L 192 888 L 223 888 L 232 879 L 232 863 L 224 855 L 191 855 L 186 858 Z" fill="black" stroke="none"/>
<path d="M 827 834 L 827 876 L 857 876 L 857 834 Z" fill="black" stroke="none"/>
<path d="M 0 834 L 0 876 L 30 876 L 30 834 Z" fill="black" stroke="none"/>
<path d="M 488 828 L 489 833 L 493 837 L 497 838 L 545 838 L 549 837 L 553 833 L 554 829 L 553 824 L 549 820 L 545 819 L 497 819 L 493 820 L 489 824 Z" fill="black" stroke="none"/>
<path d="M 283 828 L 284 833 L 288 837 L 292 838 L 340 838 L 344 837 L 348 833 L 349 829 L 348 824 L 344 820 L 340 819 L 292 819 L 288 820 L 284 824 Z" fill="black" stroke="none"/>
<path d="M 638 804 L 638 820 L 640 822 L 640 824 L 647 829 L 678 829 L 687 820 L 687 804 L 679 796 L 646 796 L 641 799 Z" fill="black" stroke="none"/>
<path d="M 183 788 L 183 804 L 185 806 L 185 808 L 192 813 L 223 813 L 232 804 L 232 788 L 224 780 L 191 780 L 186 783 Z" fill="black" stroke="none"/>
<path d="M 87 783 L 84 789 L 84 815 L 86 817 L 87 822 L 91 826 L 96 827 L 98 829 L 131 829 L 141 822 L 142 818 L 145 815 L 145 789 L 137 779 L 132 776 L 97 776 Z" fill="black" stroke="none"/>
<path d="M 488 778 L 489 783 L 493 787 L 497 788 L 545 788 L 549 787 L 553 783 L 554 779 L 553 774 L 549 770 L 545 769 L 497 769 L 493 770 L 489 774 Z" fill="black" stroke="none"/>
<path d="M 283 778 L 284 783 L 288 787 L 292 788 L 340 788 L 344 787 L 348 783 L 349 779 L 348 774 L 344 770 L 340 769 L 292 769 L 288 770 L 284 774 Z" fill="black" stroke="none"/>
<path d="M 732 750 L 729 756 L 729 782 L 731 784 L 732 789 L 736 793 L 741 794 L 743 796 L 776 796 L 786 789 L 787 785 L 790 782 L 790 756 L 782 746 L 777 743 L 742 743 Z" fill="black" stroke="none"/>
<path d="M 638 738 L 638 754 L 640 756 L 640 758 L 647 763 L 678 763 L 687 754 L 687 738 L 679 730 L 646 730 L 641 733 Z" fill="black" stroke="none"/>
<path d="M 488 728 L 489 733 L 493 737 L 497 738 L 545 738 L 549 737 L 553 733 L 554 729 L 553 724 L 549 720 L 545 719 L 497 719 L 493 720 L 489 724 Z" fill="black" stroke="none"/>
<path d="M 283 728 L 284 733 L 288 737 L 292 738 L 340 738 L 344 737 L 348 733 L 349 729 L 348 724 L 344 720 L 340 719 L 292 719 L 288 720 L 284 724 Z" fill="black" stroke="none"/>
<path d="M 488 678 L 489 683 L 493 687 L 497 688 L 545 688 L 549 687 L 553 683 L 554 679 L 553 674 L 549 670 L 545 669 L 497 669 L 493 670 L 489 674 Z" fill="black" stroke="none"/>
<path d="M 281 668 L 281 689 L 351 689 L 351 668 Z" fill="black" stroke="none"/>
<path d="M 87 671 L 84 677 L 84 703 L 86 705 L 87 710 L 91 714 L 96 715 L 98 717 L 131 717 L 141 710 L 142 706 L 145 703 L 145 677 L 137 667 L 132 664 L 97 664 Z" fill="black" stroke="none"/>
<path d="M 638 664 L 638 680 L 640 682 L 640 684 L 647 689 L 678 689 L 687 680 L 687 664 L 679 656 L 646 656 L 641 659 Z" fill="black" stroke="none"/>
<path d="M 501 551 L 501 581 L 543 581 L 543 551 Z" fill="black" stroke="none"/>
<path d="M 399 551 L 399 581 L 437 581 L 437 551 Z" fill="black" stroke="none"/>
<path d="M 293 551 L 293 581 L 335 581 L 335 551 Z" fill="black" stroke="none"/>
<path d="M 279 469 L 279 474 L 281 476 L 314 476 L 316 474 L 316 468 L 315 467 L 281 467 Z" fill="black" stroke="none"/>
<path d="M 102 469 L 102 474 L 104 476 L 137 476 L 139 474 L 139 468 L 138 467 L 104 467 Z" fill="black" stroke="none"/>
<path d="M 736 466 L 739 474 L 746 477 L 800 477 L 807 474 L 810 467 L 807 459 L 800 456 L 746 456 L 739 459 Z" fill="black" stroke="none"/>
<path d="M 516 466 L 519 474 L 526 477 L 580 477 L 587 474 L 590 467 L 587 459 L 580 456 L 526 456 L 519 459 Z" fill="black" stroke="none"/>
<path d="M 438 461 L 438 477 L 440 479 L 440 481 L 447 486 L 478 486 L 487 477 L 487 461 L 479 453 L 446 453 L 441 456 Z" fill="black" stroke="none"/>
<path d="M 356 461 L 356 477 L 358 479 L 358 481 L 365 486 L 396 486 L 405 477 L 405 461 L 397 453 L 364 453 L 359 456 Z" fill="black" stroke="none"/>
<path d="M 18 461 L 18 477 L 20 479 L 20 481 L 27 486 L 58 486 L 67 477 L 67 461 L 59 453 L 26 453 L 21 456 Z" fill="black" stroke="none"/>
<path d="M 279 444 L 279 449 L 281 451 L 314 451 L 316 449 L 316 443 L 315 442 L 281 442 Z" fill="black" stroke="none"/>
<path d="M 102 444 L 102 449 L 104 451 L 137 451 L 139 449 L 139 443 L 138 442 L 104 442 Z" fill="black" stroke="none"/>
<path d="M 279 418 L 279 423 L 281 425 L 314 425 L 316 423 L 316 417 L 315 416 L 281 416 Z" fill="black" stroke="none"/>
<path d="M 102 418 L 102 423 L 104 425 L 137 425 L 139 423 L 139 417 L 138 416 L 104 416 Z" fill="black" stroke="none"/>
<path d="M 854 422 L 854 438 L 856 440 L 856 442 L 863 447 L 894 447 L 903 438 L 903 422 L 895 414 L 862 414 L 857 417 Z" fill="black" stroke="none"/>
<path d="M 736 416 L 739 424 L 746 427 L 800 427 L 807 424 L 810 417 L 807 409 L 800 406 L 746 406 L 739 409 Z" fill="black" stroke="none"/>
<path d="M 516 416 L 519 424 L 526 427 L 580 427 L 587 424 L 590 417 L 587 409 L 580 406 L 526 406 L 519 409 Z" fill="black" stroke="none"/>
<path d="M 177 397 L 177 470 L 238 470 L 238 397 Z" fill="black" stroke="none"/>
<path d="M 279 392 L 279 397 L 281 399 L 314 399 L 316 397 L 316 391 L 315 390 L 281 390 Z" fill="black" stroke="none"/>
<path d="M 102 392 L 102 397 L 104 399 L 137 399 L 139 397 L 139 391 L 138 390 L 104 390 Z" fill="black" stroke="none"/>
<path d="M 438 386 L 438 402 L 440 404 L 440 406 L 447 411 L 478 411 L 487 402 L 487 386 L 479 378 L 446 378 L 441 381 Z" fill="black" stroke="none"/>
<path d="M 356 386 L 356 402 L 358 404 L 358 406 L 365 411 L 396 411 L 405 402 L 405 386 L 397 378 L 364 378 L 359 381 Z" fill="black" stroke="none"/>
<path d="M 18 386 L 18 402 L 20 404 L 20 406 L 27 411 L 58 411 L 67 402 L 67 386 L 59 378 L 26 378 L 21 381 Z" fill="black" stroke="none"/>
<path d="M 736 366 L 739 374 L 746 377 L 800 377 L 807 374 L 810 367 L 807 359 L 800 356 L 746 356 L 739 359 Z" fill="black" stroke="none"/>
<path d="M 516 366 L 519 374 L 526 377 L 580 377 L 587 374 L 590 367 L 587 359 L 580 356 L 526 356 L 519 359 Z" fill="black" stroke="none"/>
<path d="M 854 348 L 854 364 L 856 366 L 856 368 L 863 373 L 894 373 L 903 364 L 903 348 L 895 340 L 862 340 L 857 343 Z" fill="black" stroke="none"/>
<path d="M 17 330 L 17 346 L 19 348 L 19 350 L 26 355 L 57 355 L 66 346 L 66 330 L 58 322 L 25 322 L 20 325 Z" fill="black" stroke="none"/>
<path d="M 736 316 L 739 324 L 746 327 L 800 327 L 807 324 L 810 317 L 807 309 L 800 306 L 746 306 L 739 309 Z" fill="black" stroke="none"/>
<path d="M 516 316 L 519 324 L 526 327 L 580 327 L 587 324 L 590 317 L 587 309 L 580 306 L 526 306 L 519 309 Z" fill="black" stroke="none"/>
<path d="M 446 281 L 438 289 L 438 321 L 440 323 L 440 325 L 447 330 L 462 330 L 464 328 L 466 328 L 471 321 L 471 289 L 463 281 Z" fill="black" stroke="none"/>
<path d="M 373 281 L 365 289 L 365 321 L 367 323 L 367 325 L 374 330 L 389 330 L 391 328 L 393 328 L 398 321 L 398 289 L 390 281 Z" fill="black" stroke="none"/>
<path d="M 311 281 L 303 289 L 303 321 L 305 323 L 305 325 L 312 330 L 327 330 L 329 328 L 331 328 L 336 321 L 336 289 L 328 281 Z" fill="black" stroke="none"/>
<path d="M 236 281 L 228 289 L 228 321 L 230 323 L 230 325 L 237 330 L 252 330 L 254 328 L 256 328 L 261 321 L 261 289 L 253 281 Z" fill="black" stroke="none"/>
<path d="M 175 281 L 167 289 L 167 321 L 169 323 L 169 325 L 176 330 L 191 330 L 193 328 L 195 328 L 200 321 L 200 289 L 192 281 Z" fill="black" stroke="none"/>
<path d="M 101 281 L 93 289 L 93 321 L 95 323 L 95 325 L 102 330 L 117 330 L 119 328 L 121 328 L 126 321 L 126 289 L 118 281 Z" fill="black" stroke="none"/>
<path d="M 17 255 L 17 271 L 19 273 L 19 275 L 26 280 L 57 280 L 66 271 L 66 255 L 58 247 L 25 247 L 20 250 Z" fill="black" stroke="none"/>
<path d="M 622 222 L 622 238 L 624 240 L 624 242 L 631 247 L 662 247 L 671 238 L 671 222 L 663 214 L 630 214 L 625 217 Z" fill="black" stroke="none"/>
<path d="M 536 222 L 536 238 L 538 240 L 538 242 L 545 247 L 576 247 L 585 238 L 585 222 L 577 214 L 544 214 L 539 217 Z" fill="black" stroke="none"/>
<path d="M 439 207 L 431 215 L 431 247 L 433 249 L 433 251 L 440 256 L 455 256 L 457 254 L 459 254 L 464 247 L 464 215 L 456 207 Z" fill="black" stroke="none"/>
<path d="M 366 207 L 358 215 L 358 247 L 360 249 L 360 251 L 367 256 L 382 256 L 384 254 L 386 254 L 391 247 L 391 215 L 383 207 Z" fill="black" stroke="none"/>
<path d="M 730 168 L 724 180 L 724 216 L 730 229 L 743 235 L 794 235 L 806 229 L 813 216 L 813 180 L 806 168 L 795 162 L 742 162 Z" fill="black" stroke="none"/>
<path d="M 196 158 L 196 204 L 215 204 L 215 158 Z" fill="black" stroke="none"/>
<path d="M 122 158 L 122 204 L 141 204 L 141 158 Z" fill="black" stroke="none"/>
<path d="M 274 155 L 274 171 L 276 173 L 276 175 L 283 180 L 314 180 L 323 171 L 323 155 L 315 147 L 282 147 L 277 150 Z" fill="black" stroke="none"/>
<path d="M 18 155 L 18 171 L 20 173 L 20 175 L 27 180 L 58 180 L 67 171 L 67 155 L 59 147 L 26 147 L 21 150 Z" fill="black" stroke="none"/>
<path d="M 622 147 L 622 163 L 624 165 L 624 167 L 631 172 L 662 172 L 671 163 L 671 147 L 663 139 L 630 139 L 625 142 Z" fill="black" stroke="none"/>
<path d="M 536 147 L 536 163 L 538 165 L 538 167 L 545 172 L 576 172 L 585 163 L 585 147 L 577 139 L 544 139 L 539 142 Z" fill="black" stroke="none"/>
<path d="M 441 129 L 437 133 L 436 136 L 436 172 L 437 175 L 441 179 L 444 180 L 466 180 L 469 179 L 473 175 L 475 170 L 475 136 L 466 127 L 445 127 L 443 129 Z" fill="black" stroke="none"/>
<path d="M 351 129 L 347 133 L 346 136 L 346 172 L 347 175 L 351 179 L 354 180 L 376 180 L 379 179 L 383 175 L 385 170 L 385 136 L 376 127 L 355 127 L 353 129 Z" fill="black" stroke="none"/>
<path d="M 622 84 L 622 100 L 624 102 L 624 104 L 631 109 L 662 109 L 671 100 L 671 84 L 663 76 L 630 76 L 625 79 Z" fill="black" stroke="none"/>
<path d="M 536 84 L 536 100 L 538 102 L 538 104 L 545 109 L 576 109 L 585 100 L 585 84 L 577 76 L 544 76 L 539 79 Z" fill="black" stroke="none"/>
<path d="M 274 80 L 274 96 L 276 98 L 276 100 L 283 105 L 314 105 L 323 96 L 323 80 L 315 72 L 282 72 L 277 75 Z" fill="black" stroke="none"/>
<path d="M 18 80 L 18 96 L 20 98 L 20 100 L 27 105 L 58 105 L 67 96 L 67 80 L 59 72 L 26 72 L 21 75 Z" fill="black" stroke="none"/>
<path d="M 159 68 L 159 114 L 178 114 L 178 68 Z" fill="black" stroke="none"/>
<path d="M 730 42 L 724 54 L 724 90 L 730 103 L 743 109 L 794 109 L 806 103 L 813 90 L 813 54 L 806 42 L 795 36 L 742 36 Z" fill="black" stroke="none"/>
<path d="M 441 31 L 437 35 L 436 38 L 436 74 L 437 77 L 441 81 L 444 82 L 466 82 L 469 81 L 473 77 L 475 72 L 475 38 L 466 29 L 445 29 L 443 31 Z" fill="black" stroke="none"/>
<path d="M 351 31 L 347 35 L 346 38 L 346 74 L 347 77 L 351 81 L 354 82 L 376 82 L 379 81 L 383 77 L 385 72 L 385 38 L 376 29 L 355 29 L 353 31 Z" fill="black" stroke="none"/>
<path d="M 622 9 L 622 25 L 624 27 L 624 29 L 631 34 L 662 34 L 671 25 L 671 9 L 663 1 L 630 1 L 625 4 Z" fill="black" stroke="none"/>
<path d="M 536 9 L 536 25 L 538 27 L 538 29 L 545 34 L 576 34 L 585 25 L 585 9 L 577 1 L 544 1 L 539 4 Z" fill="black" stroke="none"/>
</svg>