  0
SECTION
  2
HEADER
  9
$ACADVER
  1
AC1027
  9
$ACADMAINTVER
 70
105
  9
$DWGCODEPAGE
  3
ANSI_1252
  9
$LASTSAVEDBY
  1
ezdxf
  9
$REQUIREDVERSIONS
160
0
  9
$INSBASE
 10
0.0
 20
0.0
 30
0.0
  9
$EXTMIN
 10
1e+20
 20
1e+20
 30
1e+20
  9
$EXTMAX
 10
-1e+20
 20
-1e+20
 30
-1e+20
  9
$LIMMIN
 10
0.0
 20
0.0
  9
$LIMMAX
 10
420.0
 20
297.0
  9
$ORTHOMODE
 70
0
  9
$REGENMODE
 70
1
  9
$FILLMODE
 70
1
  9
$QTEXTMODE
 70
0
  9
$MIRRTEXT
 70
1
  9
$LTSCALE
 40
1.0
  9
$ATTMODE
 70
1
  9
$TEXTSIZE
 40
2.5
  9
$TRACEWID
 40
1.0
  9
$TEXTSTYLE
  7
OpenSans
  9
$CLAYER
  8
0
  9
$CELTYPE
  6
ByLayer
  9
$CECOLOR
 62
256
  9
$CELTSCALE
 40
1.0
  9
$DISPSILH
 70
0
  9
$DIMSCALE
 40
1.0
  9
$DIMASZ
 40
0.175
  9
$DIMEXO
 40
0.125
  9
$DIMDLI
 40
3.75
  9
$DIMRND
 40
0.0
  9
$DIMDLE
 40
0.0
  9
$DIMEXE
 40
0.375
  9
$DIMTP
 40
0.0
  9
$DIMTM
 40
0.0
  9
$DIMTXT
 40
0.25
  9
$DIMCEN
 40
2.5
  9
$DIMTSZ
 40
0.0
  9
$DIMTOL
 70
0
  9
$DIMLIM
 70
0
  9
$DIMTIH
 70
0
  9
$DIMTOH
 70
0
  9
$DIMSE1
 70
0
  9
$DIMSE2
 70
0
  9
$DIMTAD
 70
1
  9
$DIMZIN
 70
12
  9
$DIMBLK
  1
ARCHTICK
  9
$DIMASO
 70
1
  9
$DIMSHO
 70
1
  9
$DIMPOST
  1

  9
$DIMAPOST
  1

  9
$DIMALT
 70
0
  9
$DIMALTD
 70
3
  9
$DIMALTF
 40
0.03937007874
  9
$DIMLFAC
 40
100.0
  9
$DIMTOFL
 70
1
  9
$DIMTVP
 40
0.0
  9
$DIMTIX
 70
0
  9
$DIMSOXD
 70
0
  9
$DIMSAH
 70
0
  9
$DIMBLK1
  1

  9
$DIMBLK2
  1

  9
$DIMSTYLE
  2
EZDXF
  9
$DIMCLRD
 70
0
  9
$DIMCLRE
 70
0
  9
$DIMCLRT
 70
0
  9
$DIMTFAC
 40
0.5
  9
$DIMGAP
 40
0.1
  9
$DIMJUST
 70
0
  9
$DIMSD1
 70
0
  9
$DIMSD2
 70
0
  9
$DIMTOLJ
 70
0
  9
$DIMTZIN
 70
8
  9
$DIMALTZ
 70
0
  9
$DIMALTTZ
 70
0
  9
$DIMUPT
 70
1
  9
$DIMDEC
 70
2
  9
$DIMTDEC
 70
2
  9
$DIMALTU
 70
2
  9
$DIMALTTD
 70
3
  9
$DIMTXSTY
  7
OpenSansCondensed-Light
  9
$DIMAUNIT
 70
0
  9
$DIMADEC
 70
2
  9
$DIMALTRND
 40
0.0
  9
$DIMAZIN
 70
3
  9
$DIMDSEP
 70
46
  9
$DIMATFIT
 70
3
  9
$DIMFRAC
 70
0
  9
$DIMLDRBLK
  1

  9
$DIMLUNIT
 70
2
  9
$DIMLWD
 70
-2
  9
$DIMLWE
 70
-2
  9
$DIMTMOVE
 70
2
  9
$DIMFXL
 40
1.0
  9
$DIMFXLON
 70
0
  9
$DIMJOGANG
 40
0.785398163397
  9
$DIMTFILL
 70
0
  9
$DIMTFILLCLR
 70
0
  9
$DIMARCSYM
 70
0
  9
$DIMLTYPE
  6

  9
$DIMLTEX1
  6

  9
$DIMLTEX2
  6

  9
$DIMTXTDIRECTION
 70
0
  9
$LUNITS
 70
2
  9
$LUPREC
 70
4
  9
$SKETCHINC
 40
1.0
  9
$FILLETRAD
 40
10.0
  9
$AUNITS
 70
0
  9
$AUPREC
 70
2
  9
$MENU
  1
.
  9
$ELEVATION
 40
0.0
  9
$PELEVATION
 40
0.0
  9
$THICKNESS
 40
0.0
  9
$LIMCHECK
 70
0
  9
$CHAMFERA
 40
0.0
  9
$CHAMFERB
 40
0.0
  9
$CHAMFERC
 40
0.0
  9
$CHAMFERD
 40
0.0
  9
$SKPOLY
 70
0
  9
$TDCREATE
 40
2461049.4600578705
  9
$TDUCREATE
 40
2458532.153996898
  9
$TDUPDATE
 40
2461049.4600578705
  9
$TDUUPDATE
 40
2458532.1544311
  9
$TDINDWG
 40
0.0
  9
$TDUSRTIMER
 40
0.0
  9
$USRTIMER
 70
1
  9
$ANGBASE
 50
0.0
  9
$ANGDIR
 70
0
  9
$PDMODE
 70
0
  9
$PDSIZE
 40
0.0
  9
$PLINEWID
 40
0.0
  9
$SPLFRAME
 70
0
  9
$SPLINETYPE
 70
6
  9
$SPLINESEGS
 70
8
  9
$HANDSEED
  5
106
  9
$SURFTAB1
 70
6
  9
$SURFTAB2
 70
6
  9
$SURFTYPE
 70
6
  9
$SURFU
 70
6
  9
$SURFV
 70
6
  9
$UCSBASE
  2

  9
$UCSNAME
  2

  9
$UCSORG
 10
0.0
 20
0.0
 30
0.0
  9
$UCSXDIR
 10
1.0
 20
0.0
 30
0.0
  9
$UCSYDIR
 10
0.0
 20
1.0
 30
0.0
  9
$UCSORTHOREF
  2

  9
$UCSORTHOVIEW
 70
0
  9
$UCSORGTOP
 10
0.0
 20
0.0
 30
0.0
  9
$UCSORGBOTTOM
 10
0.0
 20
0.0
 30
0.0
  9
$UCSORGLEFT
 10
0.0
 20
0.0
 30
0.0
  9
$UCSORGRIGHT
 10
0.0
 20
0.0
 30
0.0
  9
$UCSORGFRONT
 10
0.0
 20
0.0
 30
0.0
  9
$UCSORGBACK
 10
0.0
 20
0.0
 30
0.0
  9
$PUCSBASE
  2

  9
$PUCSNAME
  2

  9
$PUCSORG
 10
0.0
 20
0.0
 30
0.0
  9
$PUCSXDIR
 10
1.0
 20
0.0
 30
0.0
  9
$PUCSYDIR
 10
0.0
 20
1.0
 30
0.0
  9
$PUCSORTHOREF
  2

  9
$PUCSORTHOVIEW
 70
0
  9
$PUCSORGTOP
 10
0.0
 20
0.0
 30
0.0
  9
$PUCSORGBOTTOM
 10
0.0
 20
0.0
 30
0.0
  9
$PUCSORGLEFT
 10
0.0
 20
0.0
 30
0.0
  9
$PUCSORGRIGHT
 10
0.0
 20
0.0
 30
0.0
  9
$PUCSORGFRONT
 10
0.0
 20
0.0
 30
0.0
  9
$PUCSORGBACK
 10
0.0
 20
0.0
 30
0.0
  9
$USERI1
 70
0
  9
$USERI2
 70
0
  9
$USERI3
 70
0
  9
$USERI4
 70
0
  9
$USERI5
 70
0
  9
$USERR1
 40
0.0
  9
$USERR2
 40
0.0
  9
$USERR3
 40
0.0
  9
$USERR4
 40
0.0
  9
$USERR5
 40
0.0
  9
$WORLDVIEW
 70
1
  9
$SHADEDGE
 70
3
  9
$SHADEDIF
 70
70
  9
$TILEMODE
 70
1
  9
$MAXACTVP
 70
64
  9
$PINSBASE
 10
0.0
 20
0.0
 30
0.0
  9
$PLIMCHECK
 70
0
  9
$PEXTMIN
 10
1e+20
 20
1e+20
 30
1e+20
  9
$PEXTMAX
 10
-1e+20
 20
-1e+20
 30
-1e+20
  9
$PLIMMIN
 10
0.0
 20
0.0
  9
$PLIMMAX
 10
420.0
 20
297.0
  9
$UNITMODE
 70
0
  9
$VISRETAIN
 70
1
  9
$PLINEGEN
 70
0
  9
$PSLTSCALE
 70
1
  9
$TREEDEPTH
 70
3020
  9
$CMLSTYLE
  2
Standard
  9
$CMLJUST
 70
0
  9
$CMLSCALE
 40
20.0
  9
$PROXYGRAPHICS
 70
1
  9
$MEASUREMENT
 70
1
  9
$CELWEIGHT
370
-1
  9
$ENDCAPS
280
0
  9
$JOINSTYLE
280
0
  9
$LWDISPLAY
290
0
  9
$INSUNITS
 70
4
  9
$HYPERLINKBASE
  1

  9
$STYLESHEET
  1

  9
$XEDIT
290
1
  9
$CEPSNTYPE
380
0
  9
$PSTYLEMODE
290
1
  9
$FINGERPRINTGUID
  2
{DD05800E-6D94-4068-90A7-84CCD1701A3D}
  9
$VERSIONGUID
  2
{C8A87445-EB87-4DF3-BDB3-F260181AF38B}
  9
$EXTNAMES
290
1
  9
$PSVPSCALE
 40
0.0
  9
$OLESTARTUP
290
0
  9
$SORTENTS
280
127
  9
$INDEXCTL
280
0
  9
$HIDETEXT
280
1
  9
$XCLIPFRAME
280
1
  9
$HALOGAP
280
0
  9
$OBSCOLOR
 70
257
  9
$OBSLTYPE
280
0
  9
$INTERSECTIONDISPLAY
280
0
  9
$INTERSECTIONCOLOR
 70
257
  9
$DIMASSOC
280
2
  9
$PROJECTNAME
  1

  9
$CAMERADISPLAY
290
0
  9
$LENSLENGTH
 40
50.0
  9
$CAMERAHEIGHT
 40
0.0
  9
$STEPSPERSEC
 40
24.0
  9
$STEPSIZE
 40
100.0
  9
$3DDWFPREC
 40
2.0
  9
$PSOLWIDTH
 40
0.005
  9
$PSOLHEIGHT
 40
0.08
  9
$LOFTANG1
 40
1.570796326795
  9
$LOFTANG2
 40
1.570796326795
  9
$LOFTMAG1
 40
0.0
  9
$LOFTMAG2
 40
0.0
  9
$LOFTPARAM
 70
7
  9
$LOFTNORMALS
280
1
  9
$LATITUDE
 40
37.795
  9
$LONGITUDE
 40
-122.394
  9
$NORTHDIRECTION
 40
0.0
  9
$TIMEZONE
 70
-8000
  9
$LIGHTGLYPHDISPLAY
280
1
  9
$TILEMODELIGHTSYNCH
280
1
  9
$CMATERIAL
347
20
  9
$SOLIDHIST
280
0
  9
$SHOWHIST
280
1
  9
$DWFFRAME
280
2
  9
$DGNFRAME
280
2
  9
$REALWORLDSCALE
290
1
  9
$INTERFERECOLOR
 62
256
  9
$CSHADOW
280
0
  9
$SHADOWPLANELOCATION
 40
0.0
  0
ENDSEC
  0
SECTION
  2
CLASSES
  0
CLASS
  1
ACDBDICTIONARYWDFLT
  2
AcDbDictionaryWithDefault
  3
ObjectDBX Classes
 90
0
 91
0
280
0
281
0
  0
CLASS
  1
SUN
  2
AcDbSun
  3
SCENEOE
 90
1153
 91
0
280
0
281
0
  0
CLASS
  1
VISUALSTYLE
  2
AcDbVisualStyle
  3
ObjectDBX Classes
 90
4095
 91
0
280
0
281
0
  0
CLASS
  1
MATERIAL
  2
AcDbMaterial
  3
ObjectDBX Classes
 90
1153
 91
0
280
0
281
0
  0
CLASS
  1
SCALE
  2
AcDbScale
  3
ObjectDBX Classes
 90
1153
 91
0
280
0
281
0
  0
CLASS
  1
TABLESTYLE
  2
AcDbTableStyle
  3
ObjectDBX Classes
 90
4095
 91
0
280
0
281
0
  0
CLASS
  1
MLEADERSTYLE
  2
AcDbMLeaderStyle
  3
ACDB_MLEADERSTYLE_CLASS
 90
4095
 91
0
280
0
281
0
  0
CLASS
  1
DICTIONARYVAR
  2
AcDbDictionaryVar
  3
ObjectDBX Classes
 90
0
 91
0
280
0
281
0
  0
CLASS
  1
CELLSTYLEMAP
  2
AcDbCellStyleMap
  3
ObjectDBX Classes
 90
1152
 91
0
280
0
281
0
  0
CLASS
  1
MENTALRAYRENDERSETTINGS
  2
AcDbMentalRayRenderSettings
  3
SCENEOE
 90
1024
 91
0
280
0
281
0
  0
CLASS
  1
ACDBDETAILVIEWSTYLE
  2
AcDbDetailViewStyle
  3
ObjectDBX Classes
 90
1025
 91
0
280
0
281
0
  0
CLASS
  1
ACDBSECTIONVIEWSTYLE
  2
AcDbSectionViewStyle
  3
ObjectDBX Classes
 90
1025
 91
0
280
0
281
0
  0
CLASS
  1
RASTERVARIABLES
  2
AcDbRasterVariables
  3
ISM
 90
0
 91
0
280
0
281
0
  0
CLASS
  1
LAYOUT
  2
AcDbLayout
  3
ObjectDBX Classes
 90
0
 91
0
280
0
281
0
  0
CLASS
  1
ACDBPLACEHOLDER
  2
AcDbPlaceHolder
  3
ObjectDBX Classes
 90
0
 91
0
280
0
281
0
  0
ENDSEC
  0
SECTION
  2
TABLES
  0
TABLE
  2
VPORT
  5
8
330
0
100
AcDbSymbolTable
 70
1
  0
VPORT
  5
23
330
8
100
AcDbSymbolTableRecord
100
AcDbViewportTableRecord
  2
*Active
 70
0
 10
0.0
 20
0.0
 11
1.0
 21
1.0
 12
0.0
 22
0.0
 13
0.0
 23
0.0
 14
0.5
 24
0.5
 15
0.5
 25
0.5
 16
0.0
 26
0.0
 36
1.0
 17
0.0
 27
0.0
 37
0.0
 40
1000.0
 41
1.34
 42
50.0
 43
0.0
 44
0.0
 50
0.0
 51
0.0
 71
0
 72
1000
 73
1
 74
3
 75
0
 76
0
 77
0
 78
0
281
0
 65
0
146
0.0
  0
ENDTAB
  0
TABLE
  2
LTYPE
  5
2
330
0
100
AcDbSymbolTable
 70
21
  0
LTYPE
  5
24
330
2
100
AcDbSymbolTableRecord
100
AcDbLinetypeTableRecord
  2
ByBlock
 70
0
  3

 72
65
 73
0
 40
0.0
  0
LTYPE
  5
25
330
2
100
AcDbSymbolTableRecord
100
AcDbLinetypeTableRecord
  2
ByLayer
 70
0
  3

 72
65
 73
0
 40
0.0
  0
LTYPE
  5
26
330
2
100
AcDbSymbolTableRecord
100
AcDbLinetypeTableRecord
  2
Continuous
 70
0
  3

 72
65
 73
0
 40
0.0
  0
LTYPE
  5
2F
330
2
100
AcDbSymbolTableRecord
100
AcDbLinetypeTableRecord
  2
CENTER
 70
0
  3
Center ____ _ ____ _ ____ _ ____ _ ____ _ ____
 72
65
 73
4
 40
5.08
 49
3.175
 74
0
 49
-0.635
 74
0
 49
0.635
 74
0
 49
-0.635
 74
0
  0
LTYPE
  5
30
330
2
100
AcDbSymbolTableRecord
100
AcDbLinetypeTableRecord
  2
CENTERX2
 70
0
  3
Center (2x) ________  __  ________  __  ________
 72
65
 73
4
 40
8.89
 49
6.35
 74
0
 49
-0.635
 74
0
 49
1.27
 74
0
 49
-0.635
 74
0
  0
LTYPE
  5
31
330
2
100
AcDbSymbolTableRecord
100
AcDbLinetypeTableRecord
  2
CENTER2
 70
0
  3
Center (.5x) ____ _ ____ _ ____ _ ____ _ ____
 72
65
 73
4
 40
2.54
 49
1.587
 74
0
 49
-0.318
 74
0
 49
0.318
 74
0
 49
-0.318
 74
0
  0
LTYPE
  5
32
330
2
100
AcDbSymbolTableRecord
100
AcDbLinetypeTableRecord
  2
DASHED
 70
0
  3
Dashed __ __ __ __ __ __ __ __ __ __ __ __ __ _
 72
65
 73
2
 40
1.524
 49
1.27
 74
0
 49
-0.254
 74
0
  0
LTYPE
  5
33
330
2
100
AcDbSymbolTableRecord
100
AcDbLinetypeTableRecord
  2
DASHEDX2
 70
0
  3
Dashed (2x) ____  ____  ____  ____  ____  ____
 72
65
 73
2
 40
3.048
 49
2.54
 74
0
 49
-0.508
 74
0
  0
LTYPE
  5
34
330
2
100
AcDbSymbolTableRecord
100
AcDbLinetypeTableRecord
  2
DASHED2
 70
0
  3
Dashed (.5x) _ _ _ _ _ _ _ _ _ _ _ _ _ _
 72
65
 73
2
 40
0.762
 49
0.635
 74
0
 49
-0.127
 74
0
  0
LTYPE
  5
35
330
2
100
AcDbSymbolTableRecord
100
AcDbLinetypeTableRecord
  2
PHANTOM
 70
0
  3
Phantom ______  __  __  ______  __  __  ______
 72
65
 73
6
 40
6.35
 49
3.175
 74
0
 49
-0.635
 74
0
 49
0.635
 74
0
 49
-0.635
 74
0
 49
0.635
 74
0
 49
-0.635
 74
0
  0
LTYPE
  5
36
330
2
100
AcDbSymbolTableRecord
100
AcDbLinetypeTableRecord
  2
PHANTOMX2
 70
0
  3
Phantom (2x)____________    ____    ____    ____________
 72
65
 73
6
 40
10.795
 49
6.35
 74
0
 49
-0.635
 74
0
 49
1.27
 74
0
 49
-0.635
 74
0
 49
1.27
 74
0
 49
-0.635
 74
0
  0
LTYPE
  5
37
330
2
100
AcDbSymbolTableRecord
100
AcDbLinetypeTableRecord
  2
PHANTOM2
 70
0
  3
Phantom (.5x) ___ _ _ ___ _ _ ___ _ _ ___ _ _ ___
 72
65
 73
6
 40
3.175
 49
1.587
 74
0
 49
-0.318
 74
0
 49
0.318
 74
0
 49
-0.318
 74
0
 49
0.318
 74
0
 49
-0.318
 74
0
  0
LTYPE
  5
38
330
2
100
AcDbSymbolTableRecord
100
AcDbLinetypeTableRecord
  2
DASHDOT
 70
0
  3
Dash dot __ . __ . __ . __ . __ . __ . __ . __
 72
65
 73
4
 40
3.556
 49
2.54
 74
0
 49
-0.508
 74
0
 49
0.0
 74
0
 49
-0.508
 74
0
  0
LTYPE
  5
39
330
2
100
AcDbSymbolTableRecord
100
AcDbLinetypeTableRecord
  2
DASHDOTX2
 70
0
  3
Dash dot (2x) ____  .  ____  .  ____  .  ____
 72
65
 73
4
 40
6.096
 49
5.08
 74
0
 49
-0.508
 74
0
 49
0.0
 74
0
 49
-0.508
 74
0
  0
LTYPE
  5
3A
330
2
100
AcDbSymbolTableRecord
100
AcDbLinetypeTableRecord
  2
DASHDOT2
 70
0
  3
Dash dot (.5x) _ . _ . _ . _ . _ . _ . _ . _
 72
65
 73
4
 40
1.778
 49
1.27
 74
0
 49
-0.254
 74
0
 49
0.0
 74
0
 49
-0.254
 74
0
  0
LTYPE
  5
3B
330
2
100
AcDbSymbolTableRecord
100
AcDbLinetypeTableRecord
  2
DOT
 70
0
  3
Dot .  .  .  .  .  .  .  .  .  .  .  .  .  .  .  .
 72
65
 73
2
 40
0.508
 49
0.0
 74
0
 49
-0.508
 74
0
  0
LTYPE
  5
3C
330
2
100
AcDbSymbolTableRecord
100
AcDbLinetypeTableRecord
  2
DOTX2
 70
0
  3
Dot (2x) .    .    .    .    .    .    .    . 
 72
65
 73
2
 40
1.016
 49
0.0
 74
0
 49
-1.016
 74
0
  0
LTYPE
  5
3D
330
2
100
AcDbSymbolTableRecord
100
AcDbLinetypeTableRecord
  2
DOT2
 70
0
  3
Dot (.5) . . . . . . . . . . . . . . . . . . . 
 72
65
 73
2
 40
0.254
 49
0.0
 74
0
 49
-0.254
 74
0
  0
LTYPE
  5
3E
330
2
100
AcDbSymbolTableRecord
100
AcDbLinetypeTableRecord
  2
DIVIDE
 70
0
  3
Divide __ . . __ . . __ . . __ . . __ . . __
 72
65
 73
6
 40
4.064
 49
2.54
 74
0
 49
-0.508
 74
0
 49
0.0
 74
0
 49
-0.508
 74
0
 49
0.0
 74
0
 49
-0.508
 74
0
  0
LTYPE
  5
3F
330
2
100
AcDbSymbolTableRecord
100
AcDbLinetypeTableRecord
  2
DIVIDEX2
 70
0
  3
Divide (2x) ____  . .  ____  . .  ____  . .  ____
 72
65
 73
6
 40
6.604
 49
5.08
 74
0
 49
-0.508
 74
0
 49
0.0
 74
0
 49
-0.508
 74
0
 49
0.0
 74
0
 49
-0.508
 74
0
  0
LTYPE
  5
40
330
2
100
AcDbSymbolTableRecord
100
AcDbLinetypeTableRecord
  2
DIVIDE2
 70
0
  3
Divide(.5x) _ . _ . _ . _ . _ . _ . _ . _
 72
65
 73
6
 40
2.032
 49
1.27
 74
0
 49
-0.254
 74
0
 49
0.0
 74
0
 49
-0.254
 74
0
 49
0.0
 74
0
 49
-0.254
 74
0
  0
ENDTAB
  0
TABLE
  2
LAYER
  5
1
330
0
100
AcDbSymbolTable
 70
2
  0
LAYER
  5
27
330
1
100
AcDbSymbolTableRecord
100
AcDbLayerTableRecord
  2
0
 70
0
 62
7
  6
Continuous
370
-3
390
13
347
21
  0
LAYER
  5
28
330
1
100
AcDbSymbolTableRecord
100
AcDbLayerTableRecord
  2
Defpoints
 70
0
 62
7
  6
Continuous
290
0
370
-3
390
13
347
21
  0
ENDTAB
  0
TABLE
  2
STYLE
  5
5
330
0
100
AcDbSymbolTable
 70
26
  0
STYLE
  5
29
330
5
100
AcDbSymbolTableRecord
100
AcDbTextStyleTableRecord
  2
Standard
 70
0
 40
0.0
 41
1.0
 50
0.0
 71
0
 42
2.5
  3
txt
  4

  0
STYLE
  5
41
330
5
100
AcDbSymbolTableRecord
100
AcDbTextStyleTableRecord
  2
OpenSans-Light
 70
0
 40
0.0
 41
1.0
 50
0.0
 71
0
 42
2.5
  3
OpenSans-Light.ttf
  4

  0
STYLE
  5
42
330
5
100
AcDbSymbolTableRecord
100
AcDbTextStyleTableRecord
  2
OpenSans-Light-Italic
 70
0
 40
0.0
 41
1.0
 50
0.0
 71
0
 42
2.5
  3
OpenSans-LightItalic.ttf
  4

  0
STYLE
  5
43
330
5
100
AcDbSymbolTableRecord
100
AcDbTextStyleTableRecord
  2
OpenSans
 70
0
 40
0.0
 41
1.0
 50
0.0
 71
0
 42
2.5
  3
OpenSans-Regular.ttf
  4

  0
STYLE
  5
44
330
5
100
AcDbSymbolTableRecord
100
AcDbTextStyleTableRecord
  2
OpenSans-Italic
 70
0
 40
0.0
 41
1.0
 50
0.0
 71
0
 42
2.5
  3
OpenSans-Italic.ttf
  4

  0
STYLE
  5
45
330
5
100
AcDbSymbolTableRecord
100
AcDbTextStyleTableRecord
  2
OpenSans-SemiBold
 70
0
 40
0.0
 41
1.0
 50
0.0
 71
0
 42
2.5
  3
OpenSans-SemiBold.ttf
  4

  0
STYLE
  5
46
330
5
100
AcDbSymbolTableRecord
100
AcDbTextStyleTableRecord
  2
OpenSans-SemiBoldItalic
 70
0
 40
0.0
 41
1.0
 50
0.0
 71
0
 42
2.5
  3
OpenSans-SemiBoldItalic.ttf
  4

  0
STYLE
  5
47
330
5
100
AcDbSymbolTableRecord
100
AcDbTextStyleTableRecord
  2
OpenSans-Bold
 70
0
 40
0.0
 41
1.0
 50
0.0
 71
0
 42
2.5
  3
OpenSans-Bold.ttf
  4

  0
STYLE
  5
48
330
5
100
AcDbSymbolTableRecord
100
AcDbTextStyleTableRecord
  2
OpenSans-BoldItalic
 70
0
 40
0.0
 41
1.0
 50
0.0
 71
0
 42
2.5
  3
OpenSans-BoldItalic.ttf
  4

  0
STYLE
  5
49
330
5
100
AcDbSymbolTableRecord
100
AcDbTextStyleTableRecord
  2
OpenSans-ExtraBold
 70
0
 40
0.0
 41
1.0
 50
0.0
 71
0
 42
2.5
  3
OpenSans-ExtraBold.ttf
  4

  0
STYLE
  5
4A
330
5
100
AcDbSymbolTableRecord
100
AcDbTextStyleTableRecord
  2
OpenSans-ExtraBoldItalic
 70
0
 40
0.0
 41
1.0
 50
0.0
 71
0
 42
2.5
  3
OpenSans-ExtraBoldItalic.ttf
  4

  0
STYLE
  5
4B
330
5
100
AcDbSymbolTableRecord
100
AcDbTextStyleTableRecord
  2
OpenSansCondensed-Bold
 70
0
 40
0.0
 41
1.0
 50
0.0
 71
0
 42
2.5
  3
OpenSansCondensed-Bold.ttf
  4

  0
STYLE
  5
4C
330
5
100
AcDbSymbolTableRecord
100
AcDbTextStyleTableRecord
  2
OpenSansCondensed-Light
 70
0
 40
0.0
 41
1.0
 50
0.0
 71
0
 42
2.5
  3
OpenSansCondensed-Light.ttf
  4

  0
STYLE
  5
4D
330
5
100
AcDbSymbolTableRecord
100
AcDbTextStyleTableRecord
  2
OpenSansCondensed-Italic
 70
0
 40
0.0
 41
1.0
 50
0.0
 71
0
 42
2.5
  3
OpenSansCondensed-LightItalic.ttf
  4

  0
STYLE
  5
4E
330
5
100
AcDbSymbolTableRecord
100
AcDbTextStyleTableRecord
  2
LiberationSans
 70
0
 40
0.0
 41
1.0
 50
0.0
 71
0
 42
2.5
  3
LiberationSans-Regular.ttf
  4

  0
STYLE
  5
4F
330
5
100
AcDbSymbolTableRecord
100
AcDbTextStyleTableRecord
  2
LiberationSans-Bold
 70
0
 40
0.0
 41
1.0
 50
0.0
 71
0
 42
2.5
  3
LiberationSans-Bold.ttf
  4

  0
STYLE
  5
50
330
5
100
AcDbSymbolTableRecord
100
AcDbTextStyleTableRecord
  2
LiberationSans-BoldItalic
 70
0
 40
0.0
 41
1.0
 50
0.0
 71
0
 42
2.5
  3
LiberationSans-BoldItalic.ttf
  4

  0
STYLE
  5
51
330
5
100
AcDbSymbolTableRecord
100
AcDbTextStyleTableRecord
  2
LiberationSans-Italic
 70
0
 40
0.0
 41
1.0
 50
0.0
 71
0
 42
2.5
  3
LiberationSans-Italic.ttf
  4

  0
STYLE
  5
52
330
5
100
AcDbSymbolTableRecord
100
AcDbTextStyleTableRecord
  2
LiberationSerif
 70
0
 40
0.0
 41
1.0
 50
0.0
 71
0
 42
2.5
  3
LiberationSerif-Regular.ttf
  4

  0
STYLE
  5
53
330
5
100
AcDbSymbolTableRecord
100
AcDbTextStyleTableRecord
  2
LiberationSerif-Bold
 70
0
 40
0.0
 41
1.0
 50
0.0
 71
0
 42
2.5
  3
LiberationSerif-Bold.ttf
  4

  0
STYLE
  5
54
330
5
100
AcDbSymbolTableRecord
100
AcDbTextStyleTableRecord
  2
LiberationSerif-BoldItalic
 70
0
 40
0.0
 41
1.0
 50
0.0
 71
0
 42
2.5
  3
LiberationSerif-BoldItalic.ttf
  4

  0
STYLE
  5
55
330
5
100
AcDbSymbolTableRecord
100
AcDbTextStyleTableRecord
  2
LiberationSerif-Italic
 70
0
 40
0.0
 41
1.0
 50
0.0
 71
0
 42
2.5
  3
LiberationSerif-Italic.ttf
  4

  0
STYLE
  5
56
330
5
100
AcDbSymbolTableRecord
100
AcDbTextStyleTableRecord
  2
LiberationMono
 70
0
 40
0.0
 41
1.0
 50
0.0
 71
0
 42
2.5
  3
LiberationMono-Regular.ttf
  4

  0
STYLE
  5
57
330
5
100
AcDbSymbolTableRecord
100
AcDbTextStyleTableRecord
  2
LiberationMono-Bold
 70
0
 40
0.0
 41
1.0
 50
0.0
 71
0
 42
2.5
  3
LiberationMono-Bold.ttf
  4

  0
STYLE
  5
58
330
5
100
AcDbSymbolTableRecord
100
AcDbTextStyleTableRecord
  2
LiberationMono-BoldItalic
 70
0
 40
0.0
 41
1.0
 50
0.0
 71
0
 42
2.5
  3
LiberationMono-BoldItalic.ttf
  4

  0
STYLE
  5
59
330
5
100
AcDbSymbolTableRecord
100
AcDbTextStyleTableRecord
  2
LiberationMono-Italic
 70
0
 40
0.0
 41
1.0
 50
0.0
 71
0
 42
2.5
  3
LiberationMono-Italic.ttf
  4

  0
ENDTAB
  0
TABLE
  2
VIEW
  5
7
330
0
100
AcDbSymbolTable
 70
0
  0
ENDTAB
  0
TABLE
  2
UCS
  5
6
330
0
100
AcDbSymbolTable
 70
0
  0
ENDTAB
  0
TABLE
  2
APPID
  5
3
330
0
100
AcDbSymbolTable
 70
3
  0
APPID
  5
2A
330
3
100
AcDbSymbolTableRecord
100
AcDbRegAppTableRecord
  2
ACAD
 70
0
  0
APPID
  5
103
330
3
100
AcDbSymbolTableRecord
100
AcDbRegAppTableRecord
  2
HATCHBACKGROUNDCOLOR
 70
0
  0
APPID
  5
104
330
3
100
AcDbSymbolTableRecord
100
AcDbRegAppTableRecord
  2
EZDXF
 70
0
  0
ENDTAB
  0
TABLE
  2
DIMSTYLE
  5
4
330
0
100
AcDbSymbolTable
 70
12
100
AcDbDimStyleTable
  0
DIMSTYLE
105
2B
330
4
100
AcDbSymbolTableRecord
100
AcDbDimStyleTableRecord
  2
Standard
 70
0
 40
1.0
 41
2.5
 42
0.625
 43
3.75
 44
1.25
 45
0.0
 46
0.0
 47
0.0
 48
0.0
 49
2.5
140
2.5
141
2.5
142
0.0
143
0.03937007874
144
1.0
145
0.0
146
1.0
147
0.625
148
0.0
 69
0
 70
0
 71
0
 72
0
 73
0
 74
0
 75
0
 76
0
 77
1
 78
8
 79
3
170
0
171
3
172
1
173
0
174
0
175
0
176
0
177
0
178
0
179
2
271
2
272
2
273
2
274
3
275
0
276
0
277
2
278
44
279
0
280
0
281
0
282
0
283
0
284
8
285
0
286
0
288
0
289
3
290
0
371
-2
372
-2
  0
DIMSTYLE
105
73
330
4
100
AcDbSymbolTableRecord
100
AcDbDimStyleTableRecord
  2
EZDXF
 70
0
 40
1.0
 41
0.175
 42
0.125
 43
3.75
 44
0.375
 45
0.0
 46
0.0
 47
0.0
 48
0.0
 49
2.5
140
0.25
141
2.5
142
0.0
143
0.03937007874
144
100.0
145
0.0
146
0.5
147
0.1
148
0.0
 69
0
 70
0
 71
0
 72
0
 73
0
 74
0
 75
0
 76
0
 77
1
 78
12
 79
3
170
0
171
3
172
1
173
0
174
0
175
0
176
0
177
0
178
0
179
2
271
2
272
2
273
2
274
3
275
0
276
0
277
2
278
46
279
2
280
0
281
0
282
0
283
0
284
8
285
0
286
0
288
1
289
3
290
0
340
4C
342
74
371
-2
372
-2
  0
DIMSTYLE
105
7C
330
4
100
AcDbSymbolTableRecord
100
AcDbDimStyleTableRecord
  2
EZ_M_100_H25_CM
 70
0
 40
1.0
 41
0.25
 42
0.125
 43
3.75
 44
0.375
 45
0.0
 46
0.0
 47
0.0
 48
0.0
 49
2.5
140
0.25
141
2.5
142
0.125
143
0.03937007874
144
100.0
145
0.0
146
0.5
147
0.1
148
0.0
 69
0
 70
0
 71
0
 72
0
 73
0
 74
0
 75
0
 76
0
 77
1
 78
12
 79
3
170
0
171
3
172
1
173
0
174
0
175
0
176
0
177
0
178
0
179
2
271
2
272
2
273
2
274
3
275
0
276
0
277
2
278
46
279
2
280
0
281
0
282
0
283
0
284
8
285
0
286
0
288
1
289
3
290
0
340
4C
371
-2
372
-2
  0
DIMSTYLE
105
7D
330
4
100
AcDbSymbolTableRecord
100
AcDbDimStyleTableRecord
  2
EZ_M_50_H25_CM
 70
0
 40
1.0
 41
0.125
 42
0.0625
 43
3.75
 44
0.1875
 45
0.0
 46
0.0
 47
0.0
 48
0.0
 49
2.5
140
0.125
141
2.5
142
0.0625
143
0.03937007874
144
100.0
145
0.0
146
0.5
147
0.05
148
0.0
 69
0
 70
0
 71
0
 72
0
 73
0
 74
0
 75
0
 76
0
 77
1
 78
12
 79
3
170
0
171
3
172
1
173
0
174
0
175
0
176
0
177
0
178
0
179
2
271
2
272
2
273
2
274
3
275
0
276
0
277
2
278
46
279
2
280
0
281
0
282
0
283
0
284
8
285
0
286
0
288
1
289
3
290
0
340
4C
371
-2
372
-2
  0
DIMSTYLE
105
7E
330
4
100
AcDbSymbolTableRecord
100
AcDbDimStyleTableRecord
  2
EZ_M_25_H25_CM
 70
0
 40
1.0
 41
0.0625
 42
0.03125
 43
3.75
 44
0.09375
 45
0.0
 46
0.0
 47
0.0
 48
0.0
 49
2.5
140
0.0625
141
2.5
142
0.03125
143
0.03937007874
144
100.0
145
0.0
146
0.5
147
0.025
148
0.0
 69
0
 70
0
 71
0
 72
0
 73
0
 74
0
 75
0
 76
0
 77
1
 78
12
 79
3
170
0
171
3
172
1
173
0
174
0
175
0
176
0
177
0
178
0
179
2
271
2
272
2
273
2
274
3
275
0
276
0
277
2
278
46
279
2
280
0
281
0
282
0
283
0
284
8
285
0
286
0
288
1
289
3
290
0
340
4C
371
-2
372
-2
  0
DIMSTYLE
105
7F
330
4
100
AcDbSymbolTableRecord
100
AcDbDimStyleTableRecord
  2
EZ_M_20_H25_CM
 70
0
 40
1.0
 41
0.05
 42
0.025
 43
3.75
 44
0.07500000000000001
 45
0.0
 46
0.0
 47
0.0
 48
0.0
 49
2.5
140
0.05
141
2.5
142
0.025
143
0.03937007874
144
100.0
145
0.0
146
0.5
147
0.020000000000000004
148
0.0
 69
0
 70
0
 71
0
 72
0
 73
0
 74
0
 75
0
 76
0
 77
1
 78
12
 79
3
170
0
171
3
172
1
173
0
174
0
175
0
176
0
177
0
178
0
179
2
271
2
272
2
273
2
274
3
275
0
276
0
277
2
278
46
279
2
280
0
281
0
282
0
283
0
284
8
285
0
286
0
288
1
289
3
290
0
340
4C
371
-2
372
-2
  0
DIMSTYLE
105
80
330
4
100
AcDbSymbolTableRecord
100
AcDbDimStyleTableRecord
  2
EZ_M_10_H25_CM
 70
0
 40
1.0
 41
0.025
 42
0.0125
 43
3.75
 44
0.037500000000000006
 45
0.0
 46
0.0
 47
0.0
 48
0.0
 49
2.5
140
0.025
141
2.5
142
0.0125
143
0.03937007874
144
100.0
145
0.0
146
0.5
147
0.010000000000000002
148
0.0
 69
0
 70
0
 71
0
 72
0
 73
0
 74
0
 75
0
 76
0
 77
1
 78
12
 79
3
170
0
171
3
172
1
173
0
174
0
175
0
176
0
177
0
178
0
179
2
271
2
272
2
273
2
274
3
275
0
276
0
277
2
278
46
279
2
280
0
281
0
282
0
283
0
284
8
285
0
286
0
288
1
289
3
290
0
340
4C
371
-2
372
-2
  0
DIMSTYLE
105
81
330
4
100
AcDbSymbolTableRecord
100
AcDbDimStyleTableRecord
  2
EZ_M_5_H25_CM
 70
0
 40
1.0
 41
0.0125
 42
0.00625
 43
3.75
 44
0.018750000000000003
 45
0.0
 46
0.0
 47
0.0
 48
0.0
 49
2.5
140
0.0125
141
2.5
142
0.00625
143
0.03937007874
144
100.0
145
0.0
146
0.5
147
0.005000000000000001
148
0.0
 69
0
 70
0
 71
0
 72
0
 73
0
 74
0
 75
0
 76
0
 77
1
 78
12
 79
3
170
0
171
3
172
1
173
0
174
0
175
0
176
0
177
0
178
0
179
2
271
2
272
2
273
2
274
3
275
0
276
0
277
2
278
46
279
2
280
0
281
0
282
0
283
0
284
8
285
0
286
0
288
1
289
3
290
0
340
4C
371
-2
372
-2
  0
DIMSTYLE
105
82
330
4
100
AcDbSymbolTableRecord
100
AcDbDimStyleTableRecord
  2
EZ_M_1_H25_CM
 70
0
 40
1.0
 41
0.0025
 42
0.00125
 43
3.75
 44
0.00375
 45
0.0
 46
0.0
 47
0.0
 48
0.0
 49
2.5
140
0.0025
141
2.5
142
0.00125
143
0.03937007874
144
100.0
145
0.0
146
0.5
147
0.001
148
0.0
 69
0
 70
0
 71
0
 72
0
 73
0
 74
0
 75
0
 76
0
 77
1
 78
12
 79
3
170
0
171
3
172
1
173
0
174
0
175
0
176
0
177
0
178
0
179
2
271
2
272
2
273
2
274
3
275
0
276
0
277
2
278
46
279
2
280
0
281
0
282
0
283
0
284
8
285
0
286
0
288
1
289
3
290
0
340
4C
371
-2
372
-2
  0
DIMSTYLE
105
83
330
4
100
AcDbSymbolTableRecord
100
AcDbDimStyleTableRecord
  2
EZ_RADIUS
 70
0
 40
1.0
 41
0.25
 42
0.125
 43
3.75
 44
0.375
 45
0.0
 46
0.0
 47
0.0
 48
0.0
 49
2.5
140
0.25
141
0.0
142
0.0
143
0.03937007874
144
100.0
145
0.0
146
0.5
147
0.1
148
0.0
 69
0
 70
0
 71
0
 72
0
 73
0
 74
0
 75
0
 76
0
 77
1
 78
12
 79
3
170
0
171
3
172
0
173
0
174
0
175
0
176
0
177
0
178
0
179
2
271
2
272
2
273
2
274
3
275
0
276
0
277
2
278
46
279
1
280
0
281
0
282
0
283
0
284
8
285
0
286
0
288
1
289
3
290
0
340
4C
342
84
371
-2
372
-2
  0
DIMSTYLE
105
88
330
4
100
AcDbSymbolTableRecord
100
AcDbDimStyleTableRecord
  2
EZ_RADIUS_INSIDE
 70
0
 40
1.0
 41
0.25
 42
0.125
 43
3.75
 44
0.375
 45
0.0
 46
0.0
 47
0.0
 48
0.0
 49
2.5
140
0.25
141
0.0
142
0.0
143
0.03937007874
144
100.0
145
0.0
146
0.5
147
0.1
148
0.0
 69
0
 70
0
 71
0
 72
0
 73
0
 74
0
 75
0
 76
0
 77
0
 78
12
 79
3
170
0
171
3
172
0
173
0
174
1
175
0
176
0
177
0
178
0
179
2
271
2
272
2
273
2
274
3
275
0
276
0
277
2
278
46
279
0
280
0
281
0
282
0
283
0
284
8
285
0
286
0
288
1
289
0
290
0
340
4C
342
84
371
-2
372
-2
  0
DIMSTYLE
105
89
330
4
100
AcDbSymbolTableRecord
100
AcDbDimStyleTableRecord
  2
EZ_CURVED
 70
0
 40
1.0
 41
0.25
 42
0.125
 43
3.75
 44
0.375
 45
0.0
 46
0.0
 47
0.0
 48
0.0
 49
2.5
140
0.25
141
2.5
142
0.0
143
0.03937007874
144
100.0
145
0.0
146
0.5
147
0.1
148
0.0
 69
0
 70
0
 71
0
 72
0
 73
0
 74
0
 75
0
 76
0
 77
1
 78
12
 79
2
 90
2
170
0
171
3
172
1
173
0
174
0
175
0
176
0
177
0
178
0
179
2
271
2
272
2
273
2
274
3
275
0
276
0
277
2
278
46
279
2
280
0
281
0
282
0
283
0
284
8
285
0
286
0
288
1
289
3
290
0
340
4C
371
-2
372
-2
  0
ENDTAB
  0
TABLE
  2
BLOCK_RECORD
  5
9
330
0
100
AcDbSymbolTable
 70
5
  0
BLOCK_RECORD
  5
17
330
9
100
AcDbSymbolTableRecord
100
AcDbBlockTableRecord
  2
*Model_Space
340
1A
 70
0
280
1
281
0
  0
BLOCK_RECORD
  5
1B
330
9
100
AcDbSymbolTableRecord
100
AcDbBlockTableRecord
  2
*Paper_Space
340
1E
 70
0
280
1
281
0
  0
BLOCK_RECORD
  5
74
330
9
100
AcDbSymbolTableRecord
100
AcDbBlockTableRecord
  2
_ARCHTICK
340
0
 70
0
280
1
281
0
  0
BLOCK_RECORD
  5
78
330
9
100
AcDbSymbolTableRecord
100
AcDbBlockTableRecord
  2
_CLOSEDFILLED
340
0
 70
0
280
1
281
0
  0
BLOCK_RECORD
  5
84
330
9
100
AcDbSymbolTableRecord
100
AcDbBlockTableRecord
  2
_CLOSEDBLANK
340
0
 70
0
280
1
281
0
  0
ENDTAB
  0
ENDSEC
  0
SECTION
  2
BLOCKS
  0
BLOCK
  5
18
330
17
100
AcDbEntity
  8
0
100
AcDbBlockBegin
  2
*Model_Space
 70
0
 10
0.0
 20
0.0
 30
0.0
  3
*Model_Space
  1

  0
ENDBLK
  5
19
330
17
100
AcDbEntity
  8
0
100
AcDbBlockEnd
  0
BLOCK
  5
1C
330
1B
100
AcDbEntity
  8
0
100
AcDbBlockBegin
  2
*Paper_Space
 70
0
 10
0.0
 20
0.0
 30
0.0
  3
*Paper_Space
  1

  0
ENDBLK
  5
1D
330
1B
100
AcDbEntity
  8
0
100
AcDbBlockEnd
  0
BLOCK
  5
75
330
74
100
AcDbEntity
  8
0
100
AcDbBlockBegin
  2
_ARCHTICK
 70
0
 10
0.0
 20
0.0
 30
0.0
  3
_ARCHTICK
  1

  0
LWPOLYLINE
  5
77
330
74
100
AcDbEntity
  8
0
  6
BYBLOCK
 62
0
100
AcDbPolyline
 90
2
 70
0
 43
0.15
 10
-0.5
 20
-0.5
 10
0.5
 20
0.5
  0
ENDBLK
  5
76
330
74
100
AcDbEntity
  8
0
100
AcDbBlockEnd
  0
BLOCK
  5
79
330
78
100
AcDbEntity
  8
0
100
AcDbBlockBegin
  2
_CLOSEDFILLED
 70
0
 10
0.0
 20
0.0
 30
0.0
  3
_CLOSEDFILLED
  1

  0
SOLID
  5
7B
330
78
100
AcDbEntity
  8
0
  6
BYBLOCK
 62
0
100
AcDbTrace
 10
-1.0
 20
0.16439898372402537
 30
0.0
 11
0.0
 21
0.0
 31
0.0
 12
-1.0
 22
-0.16439898372402537
 32
0.0
 13
-1.0
 23
-0.16439898372402537
 33
0.0
  0
ENDBLK
  5
7A
330
78
100
AcDbEntity
  8
0
100
AcDbBlockEnd
  0
BLOCK
  5
85
330
84
100
AcDbEntity
  8
0
100
AcDbBlockBegin
  2
_CLOSEDBLANK
 70
0
 10
0.0
 20
0.0
 30
0.0
  3
_CLOSEDBLANK
  1

  0
LWPOLYLINE
  5
87
330
84
100
AcDbEntity
  8
0
  6
BYBLOCK
 62
0
100
AcDbPolyline
 90
3
 70
1
 10
-1.0
 20
0.16439898372402537
 10
0.0
 20
0.0
 10
-1.0
 20
-0.16439898372402537
  0
ENDBLK
  5
86
330
84
100
AcDbEntity
  8
0
100
AcDbBlockEnd
  0
ENDSEC
  0
SECTION
  2
ENTITIES
  0
LWPOLYLINE
  5
8A
330
17
100
AcDbEntity
  8
0
100
AcDbPolyline
 90
4
 70
1
 10
18.0594
 20
3.5052
 10
18.0594
 20
0.0254
 10
20.040599999999998
 20
0.0254
 10
20.040599999999998
 20
3.5052
  0
LWPOLYLINE
  5
8B
330
17
100
AcDbEntity
  8
0
100
AcDbPolyline
 90
4
 70
1
 10
1.9304
 20
3.5052
 10
1.9304
 20
0.0254
 10
3.9116
 20
0.0254
 10
3.9116
 20
3.5052
  0
LWPOLYLINE
  5
8C
330
17
100
AcDbEntity
  8
0
100
AcDbPolyline
 90
4
 70
1
 10
15.392399999999999
 20
10.6426
 10
15.392399999999999
 20
7.1628
 10
16.5608
 20
7.1628
 10
16.5608
 20
10.6426
  0
LWPOLYLINE
  5
8D
330
17
100
AcDbEntity
  8
0
100
AcDbPolyline
 90
4
 70
1
 10
12.9032
 20
10.6426
 10
12.9032
 20
7.1628
 10
14.0716
 20
7.1628
 10
14.0716
 20
10.6426
  0
LWPOLYLINE
  5
8E
330
17
100
AcDbEntity
  8
0
100
AcDbPolyline
 90
4
 70
1
 10
10.414
 20
10.6426
 10
10.414
 20
7.1628
 10
11.5824
 20
7.1628
 10
11.5824
 20
10.6426
  0
LWPOLYLINE
  5
8F
330
17
100
AcDbEntity
  8
0
100
AcDbPolyline
 90
4
 70
1
 10
7.924799999999999
 20
10.6426
 10
7.924799999999999
 20
7.1628
 10
9.0932
 20
7.1628
 10
9.0932
 20
10.6426
  0
LWPOLYLINE
  5
90
330
17
100
AcDbEntity
  8
0
100
AcDbPolyline
 90
4
 70
1
 10
5.4102
 20
10.6426
 10
5.4102
 20
7.1628
 10
6.5786
 20
7.1628
 10
6.5786
 20
10.6426
  0
LWPOLYLINE
  5
91
330
17
100
AcDbEntity
  8
0
100
AcDbPolyline
 90
4
 70
1
 10
13.1318
 20
13.5636
 10
13.1318
 20
12.801599999999999
 10
14.198599999999999
 20
12.801599999999999
 10
14.198599999999999
 20
13.5636
  0
LWPOLYLINE
  5
92
330
17
100
AcDbEntity
  8
0
100
AcDbPolyline
 90
4
 70
1
 10
10.5664
 20
13.5636
 10
10.5664
 20
12.801599999999999
 10
11.5316
 20
12.801599999999999
 10
11.5316
 20
13.5636
  0
LWPOLYLINE
  5
93
330
17
100
AcDbEntity
  8
0
100
AcDbPolyline
 90
4
 70
1
 10
7.848599999999999
 20
13.5636
 10
7.848599999999999
 20
12.801599999999999
 10
8.9154
 20
12.801599999999999
 10
8.9154
 20
13.5636
  0
LWPOLYLINE
  5
94
330
17
100
AcDbEntity
  8
0
100
AcDbPolyline
 90
12
 70
1
 10
15.7226
 20
16.4846
 10
15.5194
 20
16.281399999999998
 10
15.5194
 20
15.468599999999999
 10
15.5702
 20
15.4178
 10
15.5702
 20
15.366999999999999
 10
15.748
 20
15.24
 10
16.128999999999998
 20
15.24
 10
16.1798
 20
15.290799999999999
 10
16.2306
 20
15.290799999999999
 10
16.357599999999998
 20
15.468599999999999
 10
16.357599999999998
 20
16.281399999999998
 10
16.1544
 20
16.4846
  0
LWPOLYLINE
  5
95
330
17
100
AcDbEntity
  8
0
100
AcDbPolyline
 90
12
 70
1
 10
13.817599999999999
 20
16.4846
 10
13.6144
 20
16.281399999999998
 10
13.6144
 20
15.468599999999999
 10
13.665199999999999
 20
15.4178
 10
13.665199999999999
 20
15.366999999999999
 10
13.843
 20
15.24
 10
14.224
 20
15.24
 10
14.274799999999999
 20
15.290799999999999
 10
14.3256
 20
15.290799999999999
 10
14.452599999999999
 20
15.468599999999999
 10
14.452599999999999
 20
16.281399999999998
 10
14.2494
 20
16.4846
  0
LWPOLYLINE
  5
96
330
17
100
AcDbEntity
  8
0
100
AcDbPolyline
 90
12
 70
1
 10
8.6614
 20
16.4846
 10
8.4582
 20
16.281399999999998
 10
8.4582
 20
15.468599999999999
 10
8.509
 20
15.4178
 10
8.509
 20
15.366999999999999
 10
8.6868
 20
15.24
 10
9.0678
 20
15.24
 10
9.118599999999999
 20
15.290799999999999
 10
9.1694
 20
15.290799999999999
 10
9.2964
 20
15.468599999999999
 10
9.2964
 20
16.281399999999998
 10
9.0932
 20
16.4846
  0
LWPOLYLINE
  5
97
330
17
100
AcDbEntity
  8
0
100
AcDbPolyline
 90
12
 70
1
 10
6.756399999999999
 20
16.4846
 10
6.5531999999999995
 20
16.281399999999998
 10
6.5531999999999995
 20
15.468599999999999
 10
6.604
 20
15.4178
 10
6.604
 20
15.366999999999999
 10
6.7818
 20
15.24
 10
7.1628
 20
15.24
 10
7.2136
 20
15.290799999999999
 10
7.264399999999999
 20
15.290799999999999
 10
7.3914
 20
15.468599999999999
 10
7.3914
 20
16.281399999999998
 10
7.1882
 20
16.4846
  0
LWPOLYLINE
  5
98
330
17
100
AcDbEntity
  8
0
100
AcDbPolyline
 90
12
 70
1
 10
2.5907999999999998
 20
16.281399999999998
 10
2.5654
 20
15.366999999999999
 10
2.667
 20
15.138399999999999
 10
2.794
 20
15.062199999999999
 10
4.7244
 20
15.0368
 10
4.952999999999999
 20
15.138399999999999
 10
5.08
 20
15.4178
 10
5.08
 20
16.1798
 10
4.952999999999999
 20
16.4084
 10
4.7244
 20
16.5354
 10
2.921
 20
16.5354
 10
2.667
 20
16.4084
  0
LWPOLYLINE
  5
99
330
17
100
AcDbEntity
  8
0
100
AcDbPolyline
 90
12
 70
1
 10
17.1196
 20
16.4846
 10
17.0942
 20
15.5702
 10
17.1958
 20
15.3416
 10
17.3228
 20
15.2654
 10
19.2532
 20
15.24
 10
19.4818
 20
15.3416
 10
19.6088
 20
15.620999999999999
 10
19.6088
 20
16.383
 10
19.4818
 20
16.6116
 10
19.2532
 20
16.738599999999998
 10
17.4498
 20
16.738599999999998
 10
17.1958
 20
16.6116
  0
LWPOLYLINE
  5
9A
330
17
100
AcDbEntity
  8
0
100
AcDbPolyline
 90
12
 70
1
 10
2.5907999999999998
 20
19.177
 10
2.5654
 20
18.2626
 10
2.667
 20
18.034
 10
2.794
 20
17.9578
 10
4.7244
 20
17.932399999999998
 10
4.952999999999999
 20
18.034
 10
5.08
 20
18.313399999999998
 10
5.08
 20
19.0754
 10
4.952999999999999
 20
19.304
 10
4.7244
 20
19.431
 10
2.921
 20
19.431
 10
2.667
 20
19.304
  0
LWPOLYLINE
  5
9B
330
17
100
AcDbEntity
  8
0
100
AcDbPolyline
 90
12
 70
1
 10
17.1196
 20
19.3802
 10
17.0942
 20
18.465799999999998
 10
17.1958
 20
18.237199999999998
 10
17.3228
 20
18.160999999999998
 10
19.2532
 20
18.1356
 10
19.4818
 20
18.237199999999998
 10
19.6088
 20
18.5166
 10
19.6088
 20
19.2786
 10
19.4818
 20
19.507199999999997
 10
19.2532
 20
19.6342
 10
17.4498
 20
19.6342
 10
17.1958
 20
19.507199999999997
  0
LWPOLYLINE
  5
9C
330
17
100
AcDbEntity
  8
0
100
AcDbPolyline
 90
16
 70
1
 10
10.3378
 20
19.939
 10
10.2616
 20
19.7866
 10
10.2616
 20
19.1262
 10
10.3124
 20
19.0754
 10
10.3378
 20
18.9484
 10
10.4394
 20
18.846799999999998
 10
10.5664
 20
18.8214
 10
10.6172
 20
18.770599999999998
 10
11.4554
 20
18.770599999999998
 10
11.709399999999999
 20
18.9484
 10
11.7348
 20
19.05
 10
11.811
 20
19.1262
 10
11.811
 20
19.7866
 10
11.6078
 20
20.040599999999998
 10
11.4808
 20
20.116799999999998
 10
10.5918
 20
20.116799999999998
  0
LWPOLYLINE
  5
9D
330
17
100
AcDbEntity
  8
0
100
AcDbPolyline
 90
4
 70
1
 10
21.0058
 20
21.0566
 10
21.0058
 20
19.9898
 10
21.767799999999998
 20
19.9898
 10
21.767799999999998
 20
21.0566
  0
LWPOLYLINE
  5
9E
330
17
100
AcDbEntity
  8
0
100
AcDbPolyline
 90
4
 70
1
 10
0.0
 20
21.0566
 10
0.0
 20
19.9898
 10
0.762
 20
19.9898
 10
0.762
 20
21.0566
  0
LWPOLYLINE
  5
9F
330
17
100
AcDbEntity
  8
0
100
AcDbPolyline
 90
11
 70
1
 10
17.7292
 20
21.1836
 10
17.7292
 20
20.7772
 10
17.779999999999998
 20
20.726399999999998
 10
17.779999999999998
 20
20.6756
 10
17.9578
 20
20.5486
 10
18.7452
 20
20.5486
 10
18.9738
 20
20.7772
 10
18.9738
 20
21.1836
 10
18.770599999999998
 20
21.386799999999997
 10
17.932399999999998
 20
21.386799999999997
 10
17.8054
 20
21.3106
  0
LWPOLYLINE
  5
A0
330
17
100
AcDbEntity
  8
0
100
AcDbPolyline
 90
12
 70
1
 10
14.7828
 20
21.4122
 10
14.5796
 20
21.209
 10
14.5796
 20
20.3962
 10
14.6304
 20
20.345399999999998
 10
14.6304
 20
20.2946
 10
14.8082
 20
20.1676
 10
15.1892
 20
20.1676
 10
15.24
 20
20.2184
 10
15.290799999999999
 20
20.2184
 10
15.4178
 20
20.3962
 10
15.4178
 20
21.209
 10
15.214599999999999
 20
21.4122
  0
LWPOLYLINE
  5
A1
330
17
100
AcDbEntity
  8
0
100
AcDbPolyline
 90
12
 70
1
 10
12.877799999999999
 20
21.4122
 10
12.6746
 20
21.209
 10
12.6746
 20
20.3962
 10
12.725399999999999
 20
20.345399999999998
 10
12.725399999999999
 20
20.2946
 10
12.9032
 20
20.1676
 10
13.2842
 20
20.1676
 10
13.334999999999999
 20
20.2184
 10
13.3858
 20
20.2184
 10
13.512799999999999
 20
20.3962
 10
13.512799999999999
 20
21.209
 10
13.3096
 20
21.4122
  0
LWPOLYLINE
  5
A2
330
17
100
AcDbEntity
  8
0
100
AcDbPolyline
 90
12
 70
1
 10
8.889999999999999
 20
21.4122
 10
8.6868
 20
21.209
 10
8.6868
 20
20.3962
 10
8.7376
 20
20.345399999999998
 10
8.7376
 20
20.2946
 10
8.9154
 20
20.1676
 10
9.2964
 20
20.1676
 10
9.347199999999999
 20
20.2184
 10
9.398
 20
20.2184
 10
9.525
 20
20.3962
 10
9.525
 20
21.209
 10
9.3218
 20
21.4122
  0
LWPOLYLINE
  5
A3
330
17
100
AcDbEntity
  8
0
100
AcDbPolyline
 90
12
 70
1
 10
6.984999999999999
 20
21.4122
 10
6.7818
 20
21.209
 10
6.7818
 20
20.3962
 10
6.832599999999999
 20
20.345399999999998
 10
6.832599999999999
 20
20.2946
 10
7.0104
 20
20.1676
 10
7.3914
 20
20.1676
 10
7.4422
 20
20.2184
 10
7.492999999999999
 20
20.2184
 10
7.62
 20
20.3962
 10
7.62
 20
21.209
 10
7.416799999999999
 20
21.4122
  0
LWPOLYLINE
  5
A4
330
17
100
AcDbEntity
  8
0
100
AcDbPolyline
 90
11
 70
1
 10
4.6482
 20
22.1996
 10
4.6482
 20
21.7932
 10
4.699
 20
21.7424
 10
4.699
 20
21.691599999999998
 10
4.876799999999999
 20
21.5646
 10
5.6642
 20
21.5646
 10
5.892799999999999
 20
21.7932
 10
5.892799999999999
 20
22.1996
 10
5.6895999999999995
 20
22.4028
 10
4.8514
 20
22.4028
 10
4.7244
 20
22.3266
  0
LWPOLYLINE
  5
A5
330
17
100
AcDbEntity
  8
0
100
AcDbPolyline
 90
16
 70
1
 10
2.2098
 20
22.5552
 10
2.1336
 20
22.4028
 10
2.1336
 20
21.7424
 10
2.1844
 20
21.691599999999998
 10
2.2098
 20
21.5646
 10
2.3114
 20
21.462999999999997
 10
2.4383999999999997
 20
21.4376
 10
2.4892
 20
21.386799999999997
 10
3.3274
 20
21.386799999999997
 10
3.5814
 20
21.5646
 10
3.6068
 20
21.6662
 10
3.683
 20
21.7424
 10
3.683
 20
22.4028
 10
3.4798
 20
22.6568
 10
3.3528
 20
22.733
 10
2.4638
 20
22.733
  0
LWPOLYLINE
  5
A6
330
17
100
AcDbEntity
  8
0
100
AcDbPolyline
 90
16
 70
1
 10
10.3378
 20
22.8092
 10
10.2616
 20
22.6568
 10
10.2616
 20
21.996399999999998
 10
10.3124
 20
21.9456
 10
10.3378
 20
21.8186
 10
10.4394
 20
21.717
 10
10.5664
 20
21.691599999999998
 10
10.6172
 20
21.6408
 10
11.4554
 20
21.6408
 10
11.709399999999999
 20
21.8186
 10
11.7348
 20
21.920199999999998
 10
11.811
 20
21.996399999999998
 10
11.811
 20
22.6568
 10
11.6078
 20
22.9108
 10
11.4808
 20
22.987
 10
10.5918
 20
22.987
  0
LWPOLYLINE
  5
A7
330
17
100
AcDbEntity
  8
0
100
AcDbPolyline
 90
11
 70
1
 10
17.7292
 20
23.0886
 10
17.7292
 20
22.682199999999998
 10
17.779999999999998
 20
22.6314
 10
17.779999999999998
 20
22.5806
 10
17.9578
 20
22.453599999999998
 10
18.7452
 20
22.453599999999998
 10
18.9738
 20
22.682199999999998
 10
18.9738
 20
23.0886
 10
18.770599999999998
 20
23.2918
 10
17.932399999999998
 20
23.2918
 10
17.8054
 20
23.2156
  0
LWPOLYLINE
  5
A8
330
17
100
AcDbEntity
  8
0
100
AcDbPolyline
 90
12
 70
1
 10
14.7828
 20
23.418799999999997
 10
14.5796
 20
23.2156
 10
14.5796
 20
22.4028
 10
14.6304
 20
22.352
 10
14.6304
 20
22.301199999999998
 10
14.8082
 20
22.1742
 10
15.1892
 20
22.1742
 10
15.24
 20
22.224999999999998
 10
15.290799999999999
 20
22.224999999999998
 10
15.4178
 20
22.4028
 10
15.4178
 20
23.2156
 10
15.214599999999999
 20
23.418799999999997
  0
LWPOLYLINE
  5
A9
330
17
100
AcDbEntity
  8
0
100
AcDbPolyline
 90
12
 70
1
 10
12.877799999999999
 20
23.418799999999997
 10
12.6746
 20
23.2156
 10
12.6746
 20
22.4028
 10
12.725399999999999
 20
22.352
 10
12.725399999999999
 20
22.301199999999998
 10
12.9032
 20
22.1742
 10
13.2842
 20
22.1742
 10
13.334999999999999
 20
22.224999999999998
 10
13.3858
 20
22.224999999999998
 10
13.512799999999999
 20
22.4028
 10
13.512799999999999
 20
23.2156
 10
13.3096
 20
23.418799999999997
  0
LWPOLYLINE
  5
AA
330
17
100
AcDbEntity
  8
0
100
AcDbPolyline
 90
12
 70
1
 10
8.889999999999999
 20
23.418799999999997
 10
8.6868
 20
23.2156
 10
8.6868
 20
22.4028
 10
8.7376
 20
22.352
 10
8.7376
 20
22.301199999999998
 10
8.9154
 20
22.1742
 10
9.2964
 20
22.1742
 10
9.347199999999999
 20
22.224999999999998
 10
9.398
 20
22.224999999999998
 10
9.525
 20
22.4028
 10
9.525
 20
23.2156
 10
9.3218
 20
23.418799999999997
  0
LWPOLYLINE
  5
AB
330
17
100
AcDbEntity
  8
0
100
AcDbPolyline
 90
12
 70
1
 10
6.984999999999999
 20
23.418799999999997
 10
6.7818
 20
23.2156
 10
6.7818
 20
22.4028
 10
6.832599999999999
 20
22.352
 10
6.832599999999999
 20
22.301199999999998
 10
7.0104
 20
22.1742
 10
7.3914
 20
22.1742
 10
7.4422
 20
22.224999999999998
 10
7.492999999999999
 20
22.224999999999998
 10
7.62
 20
22.4028
 10
7.62
 20
23.2156
 10
7.416799999999999
 20
23.418799999999997
  0
LWPOLYLINE
  5
AC
330
17
100
AcDbEntity
  8
0
100
AcDbPolyline
 90
4
 70
1
 10
21.0058
 20
23.647399999999998
 10
21.0058
 20
22.682199999999998
 10
21.767799999999998
 20
22.682199999999998
 10
21.767799999999998
 20
23.647399999999998
  0
LWPOLYLINE
  5
AD
330
17
100
AcDbEntity
  8
0
100
AcDbPolyline
 90
4
 70
1
 10
0.0
 20
23.647399999999998
 10
0.0
 20
22.682199999999998
 10
0.762
 20
22.682199999999998
 10
0.762
 20
23.647399999999998
  0
LWPOLYLINE
  5
AE
330
17
100
AcDbEntity
  8
0
100
AcDbPolyline
 90
11
 70
1
 10
4.6482
 20
24.104599999999998
 10
4.6482
 20
23.6982
 10
4.699
 20
23.647399999999998
 10
4.699
 20
23.5966
 10
4.876799999999999
 20
23.4696
 10
5.6642
 20
23.4696
 10
5.892799999999999
 20
23.6982
 10
5.892799999999999
 20
24.104599999999998
 10
5.6895999999999995
 20
24.3078
 10
4.8514
 20
24.3078
 10
4.7244
 20
24.2316
  0
LWPOLYLINE
  5
AF
330
17
100
AcDbEntity
  8
0
100
AcDbPolyline
 90
12
 70
1
 10
14.757399999999999
 20
25.222199999999997
 10
14.5542
 20
25.019
 10
14.5542
 20
24.2062
 10
14.604999999999999
 20
24.1554
 10
14.604999999999999
 20
24.104599999999998
 10
14.7828
 20
23.9776
 10
15.1638
 20
23.9776
 10
15.214599999999999
 20
24.028399999999998
 10
15.2654
 20
24.028399999999998
 10
15.392399999999999
 20
24.2062
 10
15.392399999999999
 20
25.019
 10
15.1892
 20
25.222199999999997
  0
LWPOLYLINE
  5
B0
330
17
100
AcDbEntity
  8
0
100
AcDbPolyline
 90
12
 70
1
 10
12.8524
 20
25.222199999999997
 10
12.649199999999999
 20
25.019
 10
12.649199999999999
 20
24.2062
 10
12.7
 20
24.1554
 10
12.7
 20
24.104599999999998
 10
12.877799999999999
 20
23.9776
 10
13.258799999999999
 20
23.9776
 10
13.3096
 20
24.028399999999998
 10
13.3604
 20
24.028399999999998
 10
13.4874
 20
24.2062
 10
13.4874
 20
25.019
 10
13.2842
 20
25.222199999999997
  0
LWPOLYLINE
  5
B1
330
17
100
AcDbEntity
  8
0
100
AcDbPolyline
 90
12
 70
1
 10
8.889999999999999
 20
25.222199999999997
 10
8.6868
 20
25.019
 10
8.6868
 20
24.2062
 10
8.7376
 20
24.1554
 10
8.7376
 20
24.104599999999998
 10
8.9154
 20
23.9776
 10
9.2964
 20
23.9776
 10
9.347199999999999
 20
24.028399999999998
 10
9.398
 20
24.028399999999998
 10
9.525
 20
24.2062
 10
9.525
 20
25.019
 10
9.3218
 20
25.222199999999997
  0
LWPOLYLINE
  5
B2
330
17
100
AcDbEntity
  8
0
100
AcDbPolyline
 90
12
 70
1
 10
6.984999999999999
 20
25.222199999999997
 10
6.7818
 20
25.019
 10
6.7818
 20
24.2062
 10
6.832599999999999
 20
24.1554
 10
6.832599999999999
 20
24.104599999999998
 10
7.0104
 20
23.9776
 10
7.3914
 20
23.9776
 10
7.4422
 20
24.028399999999998
 10
7.492999999999999
 20
24.028399999999998
 10
7.62
 20
24.2062
 10
7.62
 20
25.019
 10
7.416799999999999
 20
25.222199999999997
  0
LWPOLYLINE
  5
B3
330
17
100
AcDbEntity
  8
0
100
AcDbPolyline
 90
11
 70
1
 10
16.205199999999998
 20
25.222199999999997
 10
16.205199999999998
 20
24.8158
 10
16.256
 20
24.765
 10
16.256
 20
24.714199999999998
 10
16.433799999999998
 20
24.5872
 10
17.2212
 20
24.5872
 10
17.4498
 20
24.8158
 10
17.4498
 20
25.222199999999997
 10
17.2466
 20
25.4254
 10
16.4084
 20
25.4254
 10
16.281399999999998
 20
25.3492
  0
LWPOLYLINE
  5
B4
330
17
100
AcDbEntity
  8
0
100
AcDbPolyline
 90
16
 70
1
 10
2.2098
 20
25.4
 10
2.1336
 20
25.2476
 10
2.1336
 20
24.5872
 10
2.1844
 20
24.5364
 10
2.2098
 20
24.409399999999998
 10
2.3114
 20
24.3078
 10
2.4383999999999997
 20
24.2824
 10
2.4892
 20
24.2316
 10
3.3274
 20
24.2316
 10
3.5814
 20
24.409399999999998
 10
3.6068
 20
24.511
 10
3.683
 20
24.5872
 10
3.683
 20
25.2476
 10
3.4798
 20
25.5016
 10
3.3528
 20
25.5778
 10
2.4638
 20
25.5778
  0
LWPOLYLINE
  5
B5
330
17
100
AcDbEntity
  8
0
100
AcDbPolyline
 90
16
 70
1
 10
18.5928
 20
25.6286
 10
18.5166
 20
25.4762
 10
18.5166
 20
24.8158
 10
18.5674
 20
24.765
 10
18.5928
 20
24.637999999999998
 10
18.694399999999998
 20
24.5364
 10
18.8214
 20
24.511
 10
18.8722
 20
24.4602
 10
19.7104
 20
24.4602
 10
19.964399999999998
 20
24.637999999999998
 10
19.9898
 20
24.7396
 10
20.066
 20
24.8158
 10
20.066
 20
25.4762
 10
19.8628
 20
25.7302
 10
19.735799999999998
 20
25.8064
 10
18.846799999999998
 20
25.8064
  0
LWPOLYLINE
  5
B6
330
17
100
AcDbEntity
  8
0
100
AcDbPolyline
 90
11
 70
1
 10
4.6482
 20
25.603199999999998
 10
4.6482
 20
25.1968
 10
4.699
 20
25.145999999999997
 10
4.699
 20
25.0952
 10
4.876799999999999
 20
24.9682
 10
5.6642
 20
24.9682
 10
5.892799999999999
 20
25.1968
 10
5.892799999999999
 20
25.603199999999998
 10
5.6895999999999995
 20
25.8064
 10
4.8514
 20
25.8064
 10
4.7244
 20
25.7302
  0
LWPOLYLINE
  5
B7
330
17
100
AcDbEntity
  8
0
100
AcDbPolyline
 90
4
 70
1
 10
21.0058
 20
26.3398
 10
21.0058
 20
25.273
 10
21.767799999999998
 20
25.273
 10
21.767799999999998
 20
26.3398
  0
LWPOLYLINE
  5
B8
330
17
100
AcDbEntity
  8
0
100
AcDbPolyline
 90
4
 70
1
 10
0.0
 20
26.3398
 10
0.0
 20
25.273
 10
0.762
 20
25.273
 10
0.762
 20
26.3398
  0
LWPOLYLINE
  5
B9
330
17
100
AcDbEntity
  8
0
100
AcDbPolyline
 90
14
 70
1
 10
12.395199999999999
 20
26.4922
 10
12.4206
 20
26.365199999999998
 10
12.5222
 20
26.2636
 10
12.6238
 20
26.2382
 10
13.843
 20
26.2382
 10
13.9446
 20
26.2636
 10
14.046199999999999
 20
26.365199999999998
 10
14.0716
 20
26.4668
 10
14.046199999999999
 20
26.593799999999998
 10
13.9446
 20
26.6954
 10
13.843
 20
26.7208
 10
12.6238
 20
26.7208
 10
12.5222
 20
26.6954
 10
12.4206
 20
26.593799999999998
  0
LWPOLYLINE
  5
BA
330
17
100
AcDbEntity
  8
0
100
AcDbPolyline
 90
14
 70
1
 10
7.1882
 20
26.4922
 10
7.2136
 20
26.365199999999998
 10
7.3152
 20
26.2636
 10
7.416799999999999
 20
26.2382
 10
8.636
 20
26.2382
 10
8.7376
 20
26.2636
 10
8.8392
 20
26.365199999999998
 10
8.8646
 20
26.4668
 10
8.8392
 20
26.593799999999998
 10
8.7376
 20
26.6954
 10
8.636
 20
26.7208
 10
7.416799999999999
 20
26.7208
 10
7.3152
 20
26.6954
 10
7.2136
 20
26.593799999999998
  0
LWPOLYLINE
  5
BB
330
17
100
AcDbEntity
  8
0
100
AcDbPolyline
 90
11
 70
1
 10
16.205199999999998
 20
27.101799999999997
 10
16.205199999999998
 20
26.6954
 10
16.256
 20
26.6446
 10
16.256
 20
26.593799999999998
 10
16.433799999999998
 20
26.4668
 10
17.2212
 20
26.4668
 10
17.4498
 20
26.6954
 10
17.4498
 20
27.101799999999997
 10
17.2466
 20
27.305
 10
16.4084
 20
27.305
 10
16.281399999999998
 20
27.2288
  0
LWPOLYLINE
  5
BC
330
17
100
AcDbEntity
  8
0
100
AcDbPolyline
 90
11
 70
1
 10
4.6482
 20
27.5082
 10
4.6482
 20
27.101799999999997
 10
4.699
 20
27.051
 10
4.699
 20
27.0002
 10
4.876799999999999
 20
26.8732
 10
5.6642
 20
26.8732
 10
5.892799999999999
 20
27.101799999999997
 10
5.892799999999999
 20
27.5082
 10
5.6895999999999995
 20
27.711399999999998
 10
4.8514
 20
27.711399999999998
 10
4.7244
 20
27.635199999999998
  0
LWPOLYLINE
  5
BD
330
17
100
AcDbEntity
  8
0
100
AcDbPolyline
 90
16
 70
1
 10
2.2098
 20
27.635199999999998
 10
2.1336
 20
27.482799999999997
 10
2.1336
 20
26.8224
 10
2.1844
 20
26.7716
 10
2.2098
 20
26.6446
 10
2.3114
 20
26.543
 10
2.4383999999999997
 20
26.517599999999998
 10
2.4892
 20
26.4668
 10
3.3274
 20
26.4668
 10
3.5814
 20
26.6446
 10
3.6068
 20
26.746199999999998
 10
3.683
 20
26.8224
 10
3.683
 20
27.482799999999997
 10
3.4798
 20
27.7368
 10
3.3528
 20
27.813
 10
2.4638
 20
27.813
  0
LWPOLYLINE
  5
BE
330
17
100
AcDbEntity
  8
0
100
AcDbPolyline
 90
14
 70
1
 10
12.395199999999999
 20
27.7622
 10
12.4206
 20
27.635199999999998
 10
12.5222
 20
27.5336
 10
12.6238
 20
27.5082
 10
13.843
 20
27.5082
 10
13.9446
 20
27.5336
 10
14.046199999999999
 20
27.635199999999998
 10
14.0716
 20
27.7368
 10
14.046199999999999
 20
27.863799999999998
 10
13.9446
 20
27.9654
 10
13.843
 20
27.9908
 10
12.6238
 20
27.9908
 10
12.5222
 20
27.9654
 10
12.4206
 20
27.863799999999998
  0
LWPOLYLINE
  5
BF
330
17
100
AcDbEntity
  8
0
100
AcDbPolyline
 90
14
 70
1
 10
7.1882
 20
27.7622
 10
7.2136
 20
27.635199999999998
 10
7.3152
 20
27.5336
 10
7.416799999999999
 20
27.5082
 10
8.636
 20
27.5082
 10
8.7376
 20
27.5336
 10
8.8392
 20
27.635199999999998
 10
8.8646
 20
27.7368
 10
8.8392
 20
27.863799999999998
 10
8.7376
 20
27.9654
 10
8.636
 20
27.9908
 10
7.416799999999999
 20
27.9908
 10
7.3152
 20
27.9654
 10
7.2136
 20
27.863799999999998
  0
LWPOLYLINE
  5
C0
330
17
100
AcDbEntity
  8
0
100
AcDbPolyline
 90
16
 70
1
 10
18.5928
 20
28.473399999999998
 10
18.5166
 20
28.320999999999998
 10
18.5166
 20
27.6606
 10
18.5674
 20
27.6098
 10
18.5928
 20
27.482799999999997
 10
18.694399999999998
 20
27.3812
 10
18.8214
 20
27.3558
 10
18.8722
 20
27.305
 10
19.7104
 20
27.305
 10
19.964399999999998
 20
27.482799999999997
 10
19.9898
 20
27.5844
 10
20.066
 20
27.6606
 10
20.066
 20
28.320999999999998
 10
19.8628
 20
28.575
 10
19.735799999999998
 20
28.6512
 10
18.846799999999998
 20
28.6512
  0
LWPOLYLINE
  5
C1
330
17
100
AcDbEntity
  8
0
100
AcDbPolyline
 90
11
 70
1
 10
16.205199999999998
 20
28.7782
 10
16.205199999999998
 20
28.3718
 10
16.256
 20
28.320999999999998
 10
16.256
 20
28.2702
 10
16.433799999999998
 20
28.1432
 10
17.2212
 20
28.1432
 10
17.4498
 20
28.3718
 10
17.4498
 20
28.7782
 10
17.2466
 20
28.981399999999997
 10
16.4084
 20
28.981399999999997
 10
16.281399999999998
 20
28.905199999999997
  0
LWPOLYLINE
  5
C2
330
17
100
AcDbEntity
  8
0
100
AcDbPolyline
 90
14
 70
1
 10
12.395199999999999
 20
29.0322
 10
12.4206
 20
28.905199999999997
 10
12.5222
 20
28.8036
 10
12.6238
 20
28.7782
 10
13.843
 20
28.7782
 10
13.9446
 20
28.8036
 10
14.046199999999999
 20
28.905199999999997
 10
14.0716
 20
29.0068
 10
14.046199999999999
 20
29.133799999999997
 10
13.9446
 20
29.2354
 10
13.843
 20
29.2608
 10
12.6238
 20
29.2608
 10
12.5222
 20
29.2354
 10
12.4206
 20
29.133799999999997
  0
LWPOLYLINE
  5
C3
330
17
100
AcDbEntity
  8
0
100
AcDbPolyline
 90
14
 70
1
 10
7.1882
 20
29.0322
 10
7.2136
 20
28.905199999999997
 10
7.3152
 20
28.8036
 10
7.416799999999999
 20
28.7782
 10
8.636
 20
28.7782
 10
8.7376
 20
28.8036
 10
8.8392
 20
28.905199999999997
 10
8.8646
 20
29.0068
 10
8.8392
 20
29.133799999999997
 10
8.7376
 20
29.2354
 10
8.636
 20
29.2608
 10
7.416799999999999
 20
29.2608
 10
7.3152
 20
29.2354
 10
7.2136
 20
29.133799999999997
  0
LWPOLYLINE
  5
C4
330
17
100
AcDbEntity
  8
0
100
AcDbPolyline
 90
14
 70
1
 10
12.395199999999999
 20
30.3022
 10
12.4206
 20
30.1752
 10
12.5222
 20
30.0736
 10
12.6238
 20
30.048199999999998
 10
13.843
 20
30.048199999999998
 10
13.9446
 20
30.0736
 10
14.046199999999999
 20
30.1752
 10
14.0716
 20
30.276799999999998
 10
14.046199999999999
 20
30.4038
 10
13.9446
 20
30.505399999999998
 10
13.843
 20
30.5308
 10
12.6238
 20
30.5308
 10
12.5222
 20
30.505399999999998
 10
12.4206
 20
30.4038
  0
LWPOLYLINE
  5
C5
330
17
100
AcDbEntity
  8
0
100
AcDbPolyline
 90
4
 70
1
 10
7.1373999999999995
 20
30.5562
 10
7.1373999999999995
 20
30.0228
 10
8.9154
 20
30.0228
 10
8.9154
 20
30.5562
  0
LWPOLYLINE
  5
C6
330
17
100
AcDbEntity
  8
0
100
AcDbPolyline
 90
16
 70
1
 10
2.2098
 20
30.48
 10
2.1336
 20
30.3276
 10
2.1336
 20
29.667199999999998
 10
2.1844
 20
29.6164
 10
2.2098
 20
29.4894
 10
2.3114
 20
29.3878
 10
2.4383999999999997
 20
29.362399999999997
 10
2.4892
 20
29.3116
 10
3.3274
 20
29.3116
 10
3.5814
 20
29.4894
 10
3.6068
 20
29.590999999999998
 10
3.683
 20
29.667199999999998
 10
3.683
 20
30.3276
 10
3.4798
 20
30.581599999999998
 10
3.3528
 20
30.657799999999998
 10
2.4638
 20
30.657799999999998
  0
LWPOLYLINE
  5
C7
330
17
100
AcDbEntity
  8
0
100
AcDbPolyline
 90
11
 70
1
 10
16.205199999999998
 20
30.657799999999998
 10
16.205199999999998
 20
30.2514
 10
16.256
 20
30.200599999999998
 10
16.256
 20
30.1498
 10
16.433799999999998
 20
30.0228
 10
17.2212
 20
30.0228
 10
17.4498
 20
30.2514
 10
17.4498
 20
30.657799999999998
 10
17.2466
 20
30.860999999999997
 10
16.4084
 20
30.860999999999997
 10
16.281399999999998
 20
30.784799999999997
  0
LWPOLYLINE
  5
C8
330
17
100
AcDbEntity
  8
0
100
AcDbPolyline
 90
4
 70
1
 10
12.725399999999999
 20
33.528
 10
12.725399999999999
 20
32.766
 10
13.7922
 20
32.766
 10
13.7922
 20
33.528
  0
LWPOLYLINE
  5
C9
330
17
100
AcDbEntity
  8
0
100
AcDbPolyline
 90
4
 70
1
 10
10.134599999999999
 20
33.528
 10
10.134599999999999
 20
32.766
 10
11.0998
 20
32.766
 10
11.0998
 20
33.528
  0
LWPOLYLINE
  5
CA
330
17
100
AcDbEntity
  8
0
100
AcDbPolyline
 90
4
 70
1
 10
7.4422
 20
33.528
 10
7.4422
 20
32.766
 10
8.509
 20
32.766
 10
8.509
 20
33.528
  0
LWPOLYLINE
  5
CB
330
17
100
AcDbEntity
  8
0
100
AcDbPolyline
 90
8
 70
1
 10
7.0866
 20
35.6108
 10
7.0866
 20
35.483799999999995
 10
7.1373999999999995
 20
35.433
 10
7.9756
 20
35.433
 10
8.026399999999999
 20
35.483799999999995
 10
8.026399999999999
 20
35.636199999999995
 10
8.001
 20
35.6616
 10
7.1373999999999995
 20
35.6616
  0
LWPOLYLINE
  5
CC
330
17
100
AcDbEntity
  8
0
100
AcDbPolyline
 90
8
 70
1
 10
2.5907999999999998
 20
35.6108
 10
2.5907999999999998
 20
35.483799999999995
 10
2.6416
 20
35.433
 10
3.4798
 20
35.433
 10
3.5305999999999997
 20
35.483799999999995
 10
3.5305999999999997
 20
35.636199999999995
 10
3.5052
 20
35.6616
 10
2.6416
 20
35.6616
  0
LWPOLYLINE
  5
CD
330
17
100
AcDbEntity
  8
0
100
AcDbPolyline
 90
10
 70
1
 10
18.694399999999998
 20
35.687
 10
18.770599999999998
 20
35.483799999999995
 10
18.9484
 20
35.407599999999995
 10
20.32
 20
35.407599999999995
 10
20.497799999999998
 20
35.483799999999995
 10
20.573999999999998
 20
35.6616
 10
20.497799999999998
 20
35.864799999999995
 10
20.32
 20
35.940999999999995
 10
18.9484
 20
35.940999999999995
 10
18.770599999999998
 20
35.864799999999995
  0
LWPOLYLINE
  5
CE
330
17
100
AcDbEntity
  8
0
100
AcDbPolyline
 90
10
 70
1
 10
13.106399999999999
 20
35.687
 10
13.182599999999999
 20
35.483799999999995
 10
13.3604
 20
35.407599999999995
 10
14.732
 20
35.407599999999995
 10
14.909799999999999
 20
35.483799999999995
 10
14.985999999999999
 20
35.6616
 10
14.909799999999999
 20
35.864799999999995
 10
14.732
 20
35.940999999999995
 10
13.3604
 20
35.940999999999995
 10
13.182599999999999
 20
35.864799999999995
  0
LWPOLYLINE
  5
CF
330
17
100
AcDbEntity
  8
0
100
AcDbPolyline
 90
11
 70
1
 10
11.1252
 20
35.814
 10
11.1252
 20
35.407599999999995
 10
11.176
 20
35.3568
 10
11.176
 20
35.306
 10
11.3538
 20
35.179
 10
12.1412
 20
35.179
 10
12.3698
 20
35.407599999999995
 10
12.3698
 20
35.814
 10
12.166599999999999
 20
36.017199999999995
 10
11.3284
 20
36.017199999999995
 10
11.2014
 20
35.940999999999995
  0
LWPOLYLINE
  5
D0
330
17
100
AcDbEntity
  8
0
100
AcDbPolyline
 90
11
 70
1
 10
9.042399999999999
 20
35.814
 10
9.042399999999999
 20
35.407599999999995
 10
9.0932
 20
35.3568
 10
9.0932
 20
35.306
 10
9.270999999999999
 20
35.179
 10
10.058399999999999
 20
35.179
 10
10.286999999999999
 20
35.407599999999995
 10
10.286999999999999
 20
35.814
 10
10.0838
 20
36.017199999999995
 10
9.2456
 20
36.017199999999995
 10
9.118599999999999
 20
35.940999999999995
  0
LWPOLYLINE
  5
D1
330
17
100
AcDbEntity
  8
0
100
AcDbPolyline
 90
11
 70
1
 10
0.4572
 20
35.814
 10
0.4572
 20
35.407599999999995
 10
0.508
 20
35.3568
 10
0.508
 20
35.306
 10
0.6858
 20
35.179
 10
1.4731999999999998
 20
35.179
 10
1.7018
 20
35.407599999999995
 10
1.7018
 20
35.814
 10
1.4986
 20
36.017199999999995
 10
0.6604
 20
36.017199999999995
 10
0.5334
 20
35.940999999999995
  0
LWPOLYLINE
  5
D2
330
17
100
AcDbEntity
  8
0
100
AcDbPolyline
 90
8
 70
1
 10
7.0866
 20
36.245799999999996
 10
7.0866
 20
36.1188
 10
7.1373999999999995
 20
36.068
 10
7.9756
 20
36.068
 10
8.026399999999999
 20
36.1188
 10
8.026399999999999
 20
36.2712
 10
8.001
 20
36.2966
 10
7.1373999999999995
 20
36.2966
  0
LWPOLYLINE
  5
D3
330
17
100
AcDbEntity
  8
0
100
AcDbPolyline
 90
8
 70
1
 10
2.5907999999999998
 20
36.245799999999996
 10
2.5907999999999998
 20
36.1188
 10
2.6416
 20
36.068
 10
3.4798
 20
36.068
 10
3.5305999999999997
 20
36.1188
 10
3.5305999999999997
 20
36.2712
 10
3.5052
 20
36.2966
 10
2.6416
 20
36.2966
  0
LWPOLYLINE
  5
D4
330
17
100
AcDbEntity
  8
0
100
AcDbPolyline
 90
8
 70
1
 10
7.0866
 20
36.9062
 10
7.0866
 20
36.779199999999996
 10
7.1373999999999995
 20
36.7284
 10
7.9756
 20
36.7284
 10
8.026399999999999
 20
36.779199999999996
 10
8.026399999999999
 20
36.931599999999996
 10
8.001
 20
36.957
 10
7.1373999999999995
 20
36.957
  0
LWPOLYLINE
  5
D5
330
17
100
AcDbEntity
  8
0
100
AcDbPolyline
 90
8
 70
1
 10
2.5907999999999998
 20
36.9062
 10
2.5907999999999998
 20
36.779199999999996
 10
2.6416
 20
36.7284
 10
3.4798
 20
36.7284
 10
3.5305999999999997
 20
36.779199999999996
 10
3.5305999999999997
 20
36.931599999999996
 10
3.5052
 20
36.957
 10
2.6416
 20
36.957
  0
LWPOLYLINE
  5
D6
330
17
100
AcDbEntity
  8
0
100
AcDbPolyline
 90
11
 70
1
 10
21.691599999999998
 20
36.8046
 10
21.691599999999998
 20
36.398199999999996
 10
21.7424
 20
36.3474
 10
21.7424
 20
36.2966
 10
21.920199999999998
 20
36.169599999999996
 10
22.7076
 20
36.169599999999996
 10
22.9362
 20
36.398199999999996
 10
22.9362
 20
36.8046
 10
22.733
 20
37.007799999999996
 10
21.8948
 20
37.007799999999996
 10
21.767799999999998
 20
36.931599999999996
  0
LWPOLYLINE
  5
D7
330
17
100
AcDbEntity
  8
0
100
AcDbPolyline
 90
10
 70
1
 10
18.694399999999998
 20
36.957
 10
18.770599999999998
 20
36.7538
 10
18.9484
 20
36.6776
 10
20.32
 20
36.6776
 10
20.497799999999998
 20
36.7538
 10
20.573999999999998
 20
36.931599999999996
 10
20.497799999999998
 20
37.1348
 10
20.32
 20
37.211
 10
18.9484
 20
37.211
 10
18.770599999999998
 20
37.1348
  0
LWPOLYLINE
  5
D8
330
17
100
AcDbEntity
  8
0
100
AcDbPolyline
 90
10
 70
1
 10
13.106399999999999
 20
36.957
 10
13.182599999999999
 20
36.7538
 10
13.3604
 20
36.6776
 10
14.732
 20
36.6776
 10
14.909799999999999
 20
36.7538
 10
14.985999999999999
 20
36.931599999999996
 10
14.909799999999999
 20
37.1348
 10
14.732
 20
37.211
 10
13.3604
 20
37.211
 10
13.182599999999999
 20
37.1348
  0
LWPOLYLINE
  5
D9
330
17
100
AcDbEntity
  8
0
100
AcDbPolyline
 90
4
 70
1
 10
4.4958
 20
37.4396
 10
4.4958
 20
35.5854
 10
6.0451999999999995
 20
35.5854
 10
6.0451999999999995
 20
37.4396
  0
LWPOLYLINE
  5
DA
330
17
100
AcDbEntity
  8
0
100
AcDbPolyline
 90
8
 70
1
 10
7.0866
 20
37.5666
 10
7.0866
 20
37.4396
 10
7.1373999999999995
 20
37.388799999999996
 10
7.9756
 20
37.388799999999996
 10
8.026399999999999
 20
37.4396
 10
8.026399999999999
 20
37.592
 10
8.001
 20
37.617399999999996
 10
7.1373999999999995
 20
37.617399999999996
  0
LWPOLYLINE
  5
DB
330
17
100
AcDbEntity
  8
0
100
AcDbPolyline
 90
8
 70
1
 10
2.5907999999999998
 20
37.5666
 10
2.5907999999999998
 20
37.4396
 10
2.6416
 20
37.388799999999996
 10
3.4798
 20
37.388799999999996
 10
3.5305999999999997
 20
37.4396
 10
3.5305999999999997
 20
37.592
 10
3.5052
 20
37.617399999999996
 10
2.6416
 20
37.617399999999996
  0
LWPOLYLINE
  5
DC
330
17
100
AcDbEntity
  8
0
100
AcDbPolyline
 90
11
 70
1
 10
11.1252
 20
37.719
 10
11.1252
 20
37.312599999999996
 10
11.176
 20
37.2618
 10
11.176
 20
37.211
 10
11.3538
 20
37.083999999999996
 10
12.1412
 20
37.083999999999996
 10
12.3698
 20
37.312599999999996
 10
12.3698
 20
37.719
 10
12.166599999999999
 20
37.9222
 10
11.3284
 20
37.9222
 10
11.2014
 20
37.846
  0
LWPOLYLINE
  5
DD
330
17
100
AcDbEntity
  8
0
100
AcDbPolyline
 90
11
 70
1
 10
9.042399999999999
 20
37.719
 10
9.042399999999999
 20
37.312599999999996
 10
9.0932
 20
37.2618
 10
9.0932
 20
37.211
 10
9.270999999999999
 20
37.083999999999996
 10
10.058399999999999
 20
37.083999999999996
 10
10.286999999999999
 20
37.312599999999996
 10
10.286999999999999
 20
37.719
 10
10.0838
 20
37.9222
 10
9.2456
 20
37.9222
 10
9.118599999999999
 20
37.846
  0
LWPOLYLINE
  5
DE
330
17
100
AcDbEntity
  8
0
100
AcDbPolyline
 90
11
 70
1
 10
0.4572
 20
37.719
 10
0.4572
 20
37.312599999999996
 10
0.508
 20
37.2618
 10
0.508
 20
37.211
 10
0.6858
 20
37.083999999999996
 10
1.4731999999999998
 20
37.083999999999996
 10
1.7018
 20
37.312599999999996
 10
1.7018
 20
37.719
 10
1.4986
 20
37.9222
 10
0.6604
 20
37.9222
 10
0.5334
 20
37.846
  0
LWPOLYLINE
  5
DF
330
17
100
AcDbEntity
  8
0
100
AcDbPolyline
 90
10
 70
1
 10
18.694399999999998
 20
38.227
 10
18.770599999999998
 20
38.0238
 10
18.9484
 20
37.9476
 10
20.32
 20
37.9476
 10
20.497799999999998
 20
38.0238
 10
20.573999999999998
 20
38.2016
 10
20.497799999999998
 20
38.4048
 10
20.32
 20
38.481
 10
18.9484
 20
38.481
 10
18.770599999999998
 20
38.4048
  0
LWPOLYLINE
  5
E0
330
17
100
AcDbEntity
  8
0
100
AcDbPolyline
 90
10
 70
1
 10
13.106399999999999
 20
38.227
 10
13.182599999999999
 20
38.0238
 10
13.3604
 20
37.9476
 10
14.732
 20
37.9476
 10
14.909799999999999
 20
38.0238
 10
14.985999999999999
 20
38.2016
 10
14.909799999999999
 20
38.4048
 10
14.732
 20
38.481
 10
13.3604
 20
38.481
 10
13.182599999999999
 20
38.4048
  0
LWPOLYLINE
  5
E1
330
17
100
AcDbEntity
  8
0
100
AcDbPolyline
 90
11
 70
1
 10
21.691599999999998
 20
38.6842
 10
21.691599999999998
 20
38.2778
 10
21.7424
 20
38.227
 10
21.7424
 20
38.1762
 10
21.920199999999998
 20
38.0492
 10
22.7076
 20
38.0492
 10
22.9362
 20
38.2778
 10
22.9362
 20
38.6842
 10
22.733
 20
38.8874
 10
21.8948
 20
38.8874
 10
21.767799999999998
 20
38.8112
  0
LWPOLYLINE
  5
E2
330
17
100
AcDbEntity
  8
0
100
AcDbPolyline
 90
11
 70
1
 10
0.43179999999999996
 20
39.1414
 10
0.43179999999999996
 20
38.735
 10
0.4826
 20
38.6842
 10
0.4826
 20
38.6334
 10
0.6604
 20
38.5064
 10
1.4478
 20
38.5064
 10
1.6764
 20
38.735
 10
1.6764
 20
39.1414
 10
1.4731999999999998
 20
39.3446
 10
0.635
 20
39.3446
 10
0.508
 20
39.2684
  0
LWPOLYLINE
  5
E3
330
17
100
AcDbEntity
  8
0
100
AcDbPolyline
 90
10
 70
1
 10
18.694399999999998
 20
39.497
 10
18.770599999999998
 20
39.2938
 10
18.9484
 20
39.2176
 10
20.32
 20
39.2176
 10
20.497799999999998
 20
39.2938
 10
20.573999999999998
 20
39.471599999999995
 10
20.497799999999998
 20
39.6748
 10
20.32
 20
39.751
 10
18.9484
 20
39.751
 10
18.770599999999998
 20
39.6748
  0
LWPOLYLINE
  5
E4
330
17
100
AcDbEntity
  8
0
100
AcDbPolyline
 90
10
 70
1
 10
13.106399999999999
 20
39.497
 10
13.182599999999999
 20
39.2938
 10
13.3604
 20
39.2176
 10
14.732
 20
39.2176
 10
14.909799999999999
 20
39.2938
 10
14.985999999999999
 20
39.471599999999995
 10
14.909799999999999
 20
39.6748
 10
14.732
 20
39.751
 10
13.3604
 20
39.751
 10
13.182599999999999
 20
39.6748
  0
LWPOLYLINE
  5
E5
330
17
100
AcDbEntity
  8
0
100
AcDbPolyline
 90
12
 70
1
 10
11.3284
 20
40.385999999999996
 10
11.1252
 20
40.1828
 10
11.1252
 20
39.37
 10
11.176
 20
39.319199999999995
 10
11.176
 20
39.2684
 10
11.3538
 20
39.1414
 10
11.7348
 20
39.1414
 10
11.785599999999999
 20
39.1922
 10
11.8364
 20
39.1922
 10
11.9634
 20
39.37
 10
11.9634
 20
40.1828
 10
11.7602
 20
40.385999999999996
  0
LWPOLYLINE
  5
E6
330
17
100
AcDbEntity
  8
0
100
AcDbPolyline
 90
12
 70
1
 10
9.4742
 20
40.385999999999996
 10
9.270999999999999
 20
40.1828
 10
9.270999999999999
 20
39.37
 10
9.3218
 20
39.319199999999995
 10
9.3218
 20
39.2684
 10
9.4996
 20
39.1414
 10
9.8806
 20
39.1414
 10
9.9314
 20
39.1922
 10
9.982199999999999
 20
39.1922
 10
10.1092
 20
39.37
 10
10.1092
 20
40.1828
 10
9.905999999999999
 20
40.385999999999996
  0
LWPOLYLINE
  5
E7
330
17
100
AcDbEntity
  8
0
100
AcDbPolyline
 90
12
 70
1
 10
7.8994
 20
40.385999999999996
 10
7.696199999999999
 20
40.1828
 10
7.696199999999999
 20
39.37
 10
7.747
 20
39.319199999999995
 10
7.747
 20
39.2684
 10
7.924799999999999
 20
39.1414
 10
8.3058
 20
39.1414
 10
8.3566
 20
39.1922
 10
8.407399999999999
 20
39.1922
 10
8.5344
 20
39.37
 10
8.5344
 20
40.1828
 10
8.331199999999999
 20
40.385999999999996
  0
LWPOLYLINE
  5
E8
330
17
100
AcDbEntity
  8
0
100
AcDbPolyline
 90
12
 70
1
 10
5.9944
 20
40.385999999999996
 10
5.7912
 20
40.1828
 10
5.7912
 20
39.37
 10
5.842
 20
39.319199999999995
 10
5.842
 20
39.2684
 10
6.0198
 20
39.1414
 10
6.400799999999999
 20
39.1414
 10
6.4516
 20
39.1922
 10
6.5024
 20
39.1922
 10
6.6293999999999995
 20
39.37
 10
6.6293999999999995
 20
40.1828
 10
6.4262
 20
40.385999999999996
  0
LWPOLYLINE
  5
E9
330
17
100
AcDbEntity
  8
0
100
AcDbPolyline
 90
12
 70
1
 10
4.444999999999999
 20
40.385999999999996
 10
4.2418
 20
40.1828
 10
4.2418
 20
39.37
 10
4.2926
 20
39.319199999999995
 10
4.2926
 20
39.2684
 10
4.4704
 20
39.1414
 10
4.8514
 20
39.1414
 10
4.9022
 20
39.1922
 10
4.952999999999999
 20
39.1922
 10
5.08
 20
39.37
 10
5.08
 20
40.1828
 10
4.876799999999999
 20
40.385999999999996
  0
LWPOLYLINE
  5
EA
330
17
100
AcDbEntity
  8
0
100
AcDbPolyline
 90
12
 70
1
 10
2.5654
 20
40.385999999999996
 10
2.3622
 20
40.1828
 10
2.3622
 20
39.37
 10
2.413
 20
39.319199999999995
 10
2.413
 20
39.2684
 10
2.5907999999999998
 20
39.1414
 10
2.9718
 20
39.1414
 10
3.0225999999999997
 20
39.1922
 10
3.0734
 20
39.1922
 10
3.2003999999999997
 20
39.37
 10
3.2003999999999997
 20
40.1828
 10
2.9972
 20
40.385999999999996
  0
LWPOLYLINE
  5
EB
330
17
100
AcDbEntity
  8
0
100
AcDbPolyline
 90
11
 70
1
 10
0.43179999999999996
 20
41.0464
 10
0.43179999999999996
 20
40.64
 10
0.4826
 20
40.5892
 10
0.4826
 20
40.538399999999996
 10
0.6604
 20
40.4114
 10
1.4478
 20
40.4114
 10
1.6764
 20
40.64
 10
1.6764
 20
41.0464
 10
1.4731999999999998
 20
41.2496
 10
0.635
 20
41.2496
 10
0.508
 20
41.1734
  0
LWPOLYLINE
  5
EC
330
17
100
AcDbEntity
  8
0
100
AcDbPolyline
 90
11
 70
1
 10
15.7988
 20
41.8846
 10
15.7988
 20
41.4782
 10
15.849599999999999
 20
41.4274
 10
15.849599999999999
 20
41.376599999999996
 10
16.0274
 20
41.2496
 10
16.814799999999998
 20
41.2496
 10
17.0434
 20
41.4782
 10
17.0434
 20
41.8846
 10
16.8402
 20
42.0878
 10
16.002
 20
42.0878
 10
15.875
 20
42.0116
  0
LWPOLYLINE
  5
ED
330
17
100
AcDbEntity
  8
0
100
AcDbPolyline
 90
11
 70
1
 10
13.6144
 20
41.8846
 10
13.6144
 20
41.4782
 10
13.665199999999999
 20
41.4274
 10
13.665199999999999
 20
41.376599999999996
 10
13.843
 20
41.2496
 10
14.6304
 20
41.2496
 10
14.859
 20
41.4782
 10
14.859
 20
41.8846
 10
14.6558
 20
42.0878
 10
13.817599999999999
 20
42.0878
 10
13.6906
 20
42.0116
  0
LWPOLYLINE
  5
EE
330
17
100
AcDbEntity
  8
0
100
AcDbPolyline
 90
12
 70
1
 10
11.150599999999999
 20
42.2656
 10
10.9474
 20
42.0624
 10
10.9474
 20
41.2496
 10
10.998199999999999
 20
41.1988
 10
10.998199999999999
 20
41.147999999999996
 10
11.176
 20
41.021
 10
11.557
 20
41.021
 10
11.6078
 20
41.071799999999996
 10
11.6586
 20
41.071799999999996
 10
11.785599999999999
 20
41.2496
 10
11.785599999999999
 20
42.0624
 10
11.5824
 20
42.2656
  0
LWPOLYLINE
  5
EF
330
17
100
AcDbEntity
  8
0
100
AcDbPolyline
 90
12
 70
1
 10
9.2964
 20
42.2656
 10
9.0932
 20
42.0624
 10
9.0932
 20
41.2496
 10
9.144
 20
41.1988
 10
9.144
 20
41.147999999999996
 10
9.3218
 20
41.021
 10
9.7028
 20
41.021
 10
9.753599999999999
 20
41.071799999999996
 10
9.8044
 20
41.071799999999996
 10
9.9314
 20
41.2496
 10
9.9314
 20
42.0624
 10
9.7282
 20
42.2656
  0
LWPOLYLINE
  5
F0
330
17
100
AcDbEntity
  8
0
100
AcDbPolyline
 90
12
 70
1
 10
18.541999999999998
 20
43.2562
 10
18.389599999999998
 20
42.9514
 10
18.389599999999998
 20
42.037
 10
18.541999999999998
 20
41.7068
 10
18.8722
 20
41.5544
 10
20.1676
 20
41.5544
 10
20.4724
 20
41.7068
 10
20.650199999999998
 20
42.037
 10
20.650199999999998
 20
42.9514
 10
20.4724
 20
43.2562
 10
20.192999999999998
 20
43.4086
 10
18.846799999999998
 20
43.4086
  0
LWPOLYLINE
  5
F1
330
17
100
AcDbEntity
  8
0
100
AcDbPolyline
 90
4
 70
1
 10
4.9784
 20
43.5102
 10
4.9784
 20
42.3418
 10
5.460999999999999
 20
42.3418
 10
5.460999999999999
 20
43.5102
  0
LWPOLYLINE
  5
F2
330
17
100
AcDbEntity
  8
0
100
AcDbPolyline
 90
4
 70
1
 10
3.0987999999999998
 20
43.5102
 10
3.0987999999999998
 20
42.3418
 10
3.5814
 20
42.3418
 10
3.5814
 20
43.5102
  0
LWPOLYLINE
  5
F3
330
17
100
AcDbEntity
  8
0
100
AcDbPolyline
 90
11
 70
1
 10
6.9596
 20
43.5864
 10
6.9596
 20
43.18
 10
7.0104
 20
43.1292
 10
7.0104
 20
43.078399999999995
 10
7.1882
 20
42.9514
 10
7.9756
 20
42.9514
 10
8.2042
 20
43.18
 10
8.2042
 20
43.5864
 10
8.001
 20
43.7896
 10
7.1628
 20
43.7896
 10
7.0358
 20
43.7134
  0
LWPOLYLINE
  5
F4
330
17
100
AcDbEntity
  8
0
100
AcDbPolyline
 90
11
 70
1
 10
0.4572
 20
43.5864
 10
0.4572
 20
43.18
 10
0.508
 20
43.1292
 10
0.508
 20
43.078399999999995
 10
0.6858
 20
42.9514
 10
1.4731999999999998
 20
42.9514
 10
1.7018
 20
43.18
 10
1.7018
 20
43.5864
 10
1.4986
 20
43.7896
 10
0.6604
 20
43.7896
 10
0.5334
 20
43.7134
  0
LWPOLYLINE
  5
F5
330
17
100
AcDbEntity
  8
0
100
AcDbPolyline
 90
11
 70
1
 10
15.7988
 20
43.7896
 10
15.7988
 20
43.383199999999995
 10
15.849599999999999
 20
43.3324
 10
15.849599999999999
 20
43.2816
 10
16.0274
 20
43.154599999999995
 10
16.814799999999998
 20
43.154599999999995
 10
17.0434
 20
43.383199999999995
 10
17.0434
 20
43.7896
 10
16.8402
 20
43.992799999999995
 10
16.002
 20
43.992799999999995
 10
15.875
 20
43.916599999999995
  0
LWPOLYLINE
  5
F6
330
17
100
AcDbEntity
  8
0
100
AcDbPolyline
 90
11
 70
1
 10
13.6144
 20
43.7896
 10
13.6144
 20
43.383199999999995
 10
13.665199999999999
 20
43.3324
 10
13.665199999999999
 20
43.2816
 10
13.843
 20
43.154599999999995
 10
14.6304
 20
43.154599999999995
 10
14.859
 20
43.383199999999995
 10
14.859
 20
43.7896
 10
14.6558
 20
43.992799999999995
 10
13.817599999999999
 20
43.992799999999995
 10
13.6906
 20
43.916599999999995
  0
LWPOLYLINE
  5
F7
330
17
100
AcDbEntity
  8
0
100
AcDbPolyline
 90
15
 70
1
 10
11.2014
 20
44.2468
 10
11.0998
 20
44.145199999999996
 10
11.074399999999999
 20
44.068999999999996
 10
11.074399999999999
 20
43.154599999999995
 10
11.0998
 20
43.078399999999995
 10
11.2014
 20
42.9768
 10
11.2776
 20
42.9514
 10
11.8364
 20
42.9514
 10
11.9126
 20
42.9768
 10
12.014199999999999
 20
43.078399999999995
 10
12.065
 20
43.2054
 10
12.065
 20
44.068999999999996
 10
11.8364
 20
44.297599999999996
 10
11.302999999999999
 20
44.297599999999996
 10
11.2522
 20
44.2468
  0
LWPOLYLINE
  5
F8
330
17
100
AcDbEntity
  8
0
100
AcDbPolyline
 90
15
 70
1
 10
8.9154
 20
44.2468
 10
8.8138
 20
44.145199999999996
 10
8.7884
 20
44.068999999999996
 10
8.7884
 20
43.154599999999995
 10
8.8138
 20
43.078399999999995
 10
8.9154
 20
42.9768
 10
8.9916
 20
42.9514
 10
9.5504
 20
42.9514
 10
9.6266
 20
42.9768
 10
9.7282
 20
43.078399999999995
 10
9.779
 20
43.2054
 10
9.779
 20
44.068999999999996
 10
9.5504
 20
44.297599999999996
 10
9.017
 20
44.297599999999996
 10
8.966199999999999
 20
44.2468
  0
LWPOLYLINE
  5
F9
330
17
100
AcDbEntity
  8
0
100
AcDbPolyline
 90
11
 70
1
 10
15.7988
 20
45.3898
 10
15.7988
 20
44.983399999999996
 10
15.849599999999999
 20
44.9326
 10
15.849599999999999
 20
44.8818
 10
16.0274
 20
44.754799999999996
 10
16.814799999999998
 20
44.754799999999996
 10
17.0434
 20
44.983399999999996
 10
17.0434
 20
45.3898
 10
16.8402
 20
45.592999999999996
 10
16.002
 20
45.592999999999996
 10
15.875
 20
45.516799999999996
  0
LWPOLYLINE
  5
FA
330
17
100
AcDbEntity
  8
0
100
AcDbPolyline
 90
11
 70
1
 10
13.6144
 20
45.3898
 10
13.6144
 20
44.983399999999996
 10
13.665199999999999
 20
44.9326
 10
13.665199999999999
 20
44.8818
 10
13.843
 20
44.754799999999996
 10
14.6304
 20
44.754799999999996
 10
14.859
 20
44.983399999999996
 10
14.859
 20
45.3898
 10
14.6558
 20
45.592999999999996
 10
13.817599999999999
 20
45.592999999999996
 10
13.6906
 20
45.516799999999996
  0
LWPOLYLINE
  5
FB
330
17
100
AcDbEntity
  8
0
100
AcDbPolyline
 90
11
 70
1
 10
6.9596
 20
45.4914
 10
6.9596
 20
45.085
 10
7.0104
 20
45.0342
 10
7.0104
 20
44.983399999999996
 10
7.1882
 20
44.8564
 10
7.9756
 20
44.8564
 10
8.2042
 20
45.085
 10
8.2042
 20
45.4914
 10
8.001
 20
45.6946
 10
7.1628
 20
45.6946
 10
7.0358
 20
45.6184
  0
LWPOLYLINE
  5
FC
330
17
100
AcDbEntity
  8
0
100
AcDbPolyline
 90
11
 70
1
 10
0.4572
 20
45.4914
 10
0.4572
 20
45.085
 10
0.508
 20
45.0342
 10
0.508
 20
44.983399999999996
 10
0.6858
 20
44.8564
 10
1.4731999999999998
 20
44.8564
 10
1.7018
 20
45.085
 10
1.7018
 20
45.4914
 10
1.4986
 20
45.6946
 10
0.6604
 20
45.6946
 10
0.5334
 20
45.6184
  0
LWPOLYLINE
  5
FD
330
17
100
AcDbEntity
  8
0
100
AcDbPolyline
 90
4
 70
1
 10
4.0386
 20
45.7962
 10
4.0386
 20
44.6278
 10
4.521199999999999
 20
44.6278
 10
4.521199999999999
 20
45.7962
  0
LWPOLYLINE
  5
FE
330
17
100
AcDbEntity
  8
0
100
AcDbPolyline
 90
12
 70
1
 10
18.541999999999998
 20
46.456599999999995
 10
18.389599999999998
 20
46.1518
 10
18.389599999999998
 20
45.2374
 10
18.541999999999998
 20
44.907199999999996
 10
18.8722
 20
44.754799999999996
 10
20.1676
 20
44.754799999999996
 10
20.4724
 20
44.907199999999996
 10
20.650199999999998
 20
45.2374
 10
20.650199999999998
 20
46.1518
 10
20.4724
 20
46.456599999999995
 10
20.192999999999998
 20
46.608999999999995
 10
18.846799999999998
 20
46.608999999999995
  0
LWPOLYLINE
  5
FF
330
17
100
AcDbEntity
  8
0
100
AcDbPolyline
 90
15
 70
1
 10
11.2014
 20
46.736
 10
11.0998
 20
46.6344
 10
11.074399999999999
 20
46.5582
 10
11.074399999999999
 20
45.6438
 10
11.0998
 20
45.5676
 10
11.2014
 20
45.466
 10
11.2776
 20
45.440599999999996
 10
11.8364
 20
45.440599999999996
 10
11.9126
 20
45.466
 10
12.014199999999999
 20
45.5676
 10
12.065
 20
45.6946
 10
12.065
 20
46.5582
 10
11.8364
 20
46.7868
 10
11.302999999999999
 20
46.7868
 10
11.2522
 20
46.736
  0
LWPOLYLINE
  5
100
330
17
100
AcDbEntity
  8
0
100
AcDbPolyline
 90
15
 70
1
 10
8.9154
 20
46.736
 10
8.8138
 20
46.6344
 10
8.7884
 20
46.5582
 10
8.7884
 20
45.6438
 10
8.8138
 20
45.5676
 10
8.9154
 20
45.466
 10
8.9916
 20
45.440599999999996
 10
9.5504
 20
45.440599999999996
 10
9.6266
 20
45.466
 10
9.7282
 20
45.5676
 10
9.779
 20
45.6946
 10
9.779
 20
46.5582
 10
9.5504
 20
46.7868
 10
9.017
 20
46.7868
 10
8.966199999999999
 20
46.736
  0
LWPOLYLINE
  5
101
330
17
100
AcDbEntity
  8
0
100
AcDbPolyline
 90
11
 70
1
 10
15.7988
 20
47.294799999999995
 10
15.7988
 20
46.8884
 10
15.849599999999999
 20
46.837599999999995
 10
15.849599999999999
 20
46.7868
 10
16.0274
 20
46.6598
 10
16.814799999999998
 20
46.6598
 10
17.0434
 20
46.8884
 10
17.0434
 20
47.294799999999995
 10
16.8402
 20
47.498
 10
16.002
 20
47.498
 10
15.875
 20
47.4218
  0
LWPOLYLINE
  5
102
330
17
100
AcDbEntity
  8
0
100
AcDbPolyline
 90
11
 70
1
 10
13.6144
 20
47.294799999999995
 10
13.6144
 20
46.8884
 10
13.665199999999999
 20
46.837599999999995
 10
13.665199999999999
 20
46.7868
 10
13.843
 20
46.6598
 10
14.6304
 20
46.6598
 10
14.859
 20
46.8884
 10
14.859
 20
47.294799999999995
 10
14.6558
 20
47.498
 10
13.817599999999999
 20
47.498
 10
13.6906
 20
47.4218
  0
ENDSEC
  0
SECTION
  2
OBJECTS
  0
DICTIONARY
  5
A
330
0
100
AcDbDictionary
280
0
281
1
  3
ACAD_COLOR
350
B
  3
ACAD_GROUP
350
C
  3
ACAD_LAYOUT
350
D
  3
ACAD_MATERIAL
350
E
  3
ACAD_MLEADERSTYLE
350
F
  3
ACAD_MLINESTYLE
350
10
  3
ACAD_PLOTSETTINGS
350
11
  3
ACAD_PLOTSTYLENAME
350
12
  3
ACAD_SCALELIST
350
14
  3
ACAD_TABLESTYLE
350
15
  3
ACAD_VISUALSTYLE
350
16
  3
EZDXF_META
350
2D
  0
DICTIONARY
  5
B
330
A
100
AcDbDictionary
280
0
281
1
  0
DICTIONARY
  5
C
330
A
100
AcDbDictionary
280
0
281
1
  0
DICTIONARY
  5
D
330
A
100
AcDbDictionary
280
0
281
1
  3
Model
350
1A
  3
Layout1
350
1E
  0
DICTIONARY
  5
E
330
A
100
AcDbDictionary
280
0
281
1
  3
ByBlock
350
1F
  3
ByLayer
350
20
  3
Global
350
21
  0
DICTIONARY
  5
F
330
A
100
AcDbDictionary
280
0
281
1
  3
Standard
350
2C
  0
DICTIONARY
  5
10
330
A
100
AcDbDictionary
280
0
281
1
  3
Standard
350
22
  0
DICTIONARY
  5
11
330
A
100
AcDbDictionary
280
0
281
1
  0
ACDBDICTIONARYWDFLT
  5
12
330
A
100
AcDbDictionary
280
0
281
1
  3
Normal
350
13
100
AcDbDictionaryWithDefault
340
13
  0
ACDBPLACEHOLDER
  5
13
330
12
  0
DICTIONARY
  5
14
330
A
100
AcDbDictionary
280
0
281
1
  0
DICTIONARY
  5
15
330
A
100
AcDbDictionary
280
0
281
1
  0
DICTIONARY
  5
16
330
A
100
AcDbDictionary
280
0
281
1
  3
2dWireframe
350
5A
  3
Basic
350
5B
  3
Brighten
350
5C
  3
ColorChange
350
5D
  3
Conceptual
350
5E
  3
Dim
350
5F
  3
EdgeColorOff
350
60
  3
Facepattern
350
61
  3
Flat
350
62
  3
FlatWithEdges
350
63
  3
Gouraud
350
64
  3
GouraudWithEdges
350
65
  3
Hidden
350
66
  3
JitterOff
350
67
  3
Linepattern
350
68
  3
Modeling
350
69
  3
OverhangOff
350
6A
  3
Realistic
350
6B
  3
Shaded
350
6C
  3
Shaded with edges
350
6D
  3
Shades of Gray
350
6E
  3
Sketchy
350
6F
  3
Thicken
350
70
  3
Wireframe
350
71
  3
X-Ray
350
72
  0
LAYOUT
  5
1A
330
D
100
AcDbPlotSettings
  1

  4
A3
  6

 40
7.5
 41
20.0
 42
7.5
 43
20.0
 44
420.0
 45
297.0
 46
0.0
 47
0.0
 48
0.0
 49
0.0
140
0.0
141
0.0
142
1.0
143
1.0
 70
1024
 72
1
 73
0
 74
5
  7

 75
16
 76
0
 77
2
 78
300
147
1.0
148
0.0
149
0.0
100
AcDbLayout
  1
Model
 70
1
 71
0
 10
0.0
 20
0.0
 11
420.0
 21
297.0
 12
0.0
 22
0.0
 32
0.0
 14
1e+20
 24
1e+20
 34
1e+20
 15
-1e+20
 25
-1e+20
 35
-1e+20
146
0.0
 13
0.0
 23
0.0
 33
0.0
 16
1.0
 26
0.0
 36
0.0
 17
0.0
 27
1.0
 37
0.0
 76
1
330
17
  0
LAYOUT
  5
1E
330
D
100
AcDbPlotSettings
  1

  4
A3
  6

 40
7.5
 41
20.0
 42
7.5
 43
20.0
 44
420.0
 45
297.0
 46
0.0
 47
0.0
 48
0.0
 49
0.0
140
0.0
141
0.0
142
1.0
143
1.0
 70
0
 72
1
 73
0
 74
5
  7

 75
16
 76
0
 77
2
 78
300
147
1.0
148
0.0
149
0.0
100
AcDbLayout
  1
Layout1
 70
1
 71
1
 10
0.0
 20
0.0
 11
420.0
 21
297.0
 12
0.0
 22
0.0
 32
0.0
 14
1e+20
 24
1e+20
 34
1e+20
 15
-1e+20
 25
-1e+20
 35
-1e+20
146
0.0
 13
0.0
 23
0.0
 33
0.0
 16
1.0
 26
0.0
 36
0.0
 17
0.0
 27
1.0
 37
0.0
 76
1
330
1B
  0
MATERIAL
  5
1F
102
{ACAD_REACTORS
330
E
102
}
330
E
100
AcDbMaterial
  1
ByBlock
  2

 70
0
 40
1.0
 71
1
 41
1.0
 91
-1023410177
 42
1.0
 72
1
  3

 73
1
 74
1
 75
1
 44
0.5
 73
0
 45
1.0
 46
1.0
 77
1
  4

 78
1
 79
1
170
1
 48
1.0
171
1
  6

172
1
173
1
174
1
140
1.0
141
1.0
175
1
  7

176
1
177
1
178
1
143
1.0
179
1
  8

270
1
271
1
272
1
145
1.0
146
1.0
273
1
  9

274
1
275
1
276
1
 42
1.0
 72
1
  3

 73
1
 74
1
 75
1
 94
63
  0
MATERIAL
  5
20
102
{ACAD_REACTORS
330
E
102
}
330
E
100
AcDbMaterial
  1
ByLayer
  2

 70
0
 40
1.0
 71
1
 41
1.0
 91
-1023410177
 42
1.0
 72
1
  3

 73
1
 74
1
 75
1
 44
0.5
 73
0
 45
1.0
 46
1.0
 77
1
  4

 78
1
 79
1
170
1
 48
1.0
171
1
  6

172
1
173
1
174
1
140
1.0
141
1.0
175
1
  7

176
1
177
1
178
1
143
1.0
179
1
  8

270
1
271
1
272
1
145
1.0
146
1.0
273
1
  9

274
1
275
1
276
1
 42
1.0
 72
1
  3

 73
1
 74
1
 75
1
 94
63
  0
MATERIAL
  5
21
102
{ACAD_REACTORS
330
E
102
}
330
E
100
AcDbMaterial
  1
Global
  2

 70
0
 40
1.0
 71
1
 41
1.0
 91
-1023410177
 42
1.0
 72
1
  3

 73
1
 74
1
 75
1
 44
0.5
 73
0
 45
1.0
 46
1.0
 77
1
  4

 78
1
 79
1
170
1
 48
1.0
171
1
  6

172
1
173
1
174
1
140
1.0
141
1.0
175
1
  7

176
1
177
1
178
1
143
1.0
179
1
  8

270
1
271
1
272
1
145
1.0
146
1.0
273
1
  9

274
1
275
1
276
1
 42
1.0
 72
1
  3

 73
1
 74
1
 75
1
 94
63
  0
MLINESTYLE
  5
22
102
{ACAD_REACTORS
330
10
102
}
330
10
100
AcDbMlineStyle
  2
Standard
 70
0
  3

 62
256
 51
90.0
 52
90.0
 71
2
 49
0.5
 62
256
  6
BYLAYER
 49
-0.5
 62
256
  6
BYLAYER
  0
MLEADERSTYLE
  5
2C
102
{ACAD_REACTORS
330
F
102
}
330
F
100
AcDbMLeaderStyle
179
2
170
2
171
1
172
0
 90
2
 40
0.0
 41
0.0
173
1
 91
-1056964608
 92
-2
290
1
 42
2.0
291
1
 43
8.0
  3
Standard
 44
4.0
300

342
29
174
1
175
1
176
0
178
1
 93
-1056964608
 45
4.0
292
0
297
0
 46
4.0
 94
-1056964608
 47
1.0
 49
1.0
140
1.0
294
1
141
0.0
177
0
142
1.0
295
0
296
0
143
3.75
271
0
272
9
273
9
  0
DICTIONARY
  5
2D
330
A
100
AcDbDictionary
281
1
  3
CREATED_BY_EZDXF
350
2E
  3
WRITTEN_BY_EZDXF
350
105
  0
DICTIONARYVAR
  5
2E
330
2D
100
DictionaryVariables
280
0
  1
1.3.4 @ 2026-01-08T03:02:29.398097+00:00
  0
VISUALSTYLE
  5
5A
102
{ACAD_REACTORS
330
16
102
}
330
16
100
AcDbVisualStyle
  2
2dWireframe
 70
4
177
3
291
0
 70
58
 90
2
176
1
 90
2
176
1
 90
0
176
1
 90
0
176
1
 40
0.6
176
1
 40
30.0
176
1
 62
7
420
16777215
176
1
 90
1
176
1
 90
4
176
1
 62
7
176
1
 62
257
176
1
 90
1
176
1
 90
1
176
1
 40
1.0
176
1
 90
8
176
1
 62
7
176
1
 40
1.0
176
1
 90
1
176
1
 90
6
176
1
 90
2
176
1
 62
7
176
1
 90
5
176
1
 90
0
176
1
 90
0
176
1
290
0
176
1
 90
1
176
1
 40
0.0
176
1
 90
0
176
1
290
1
176
1
290
1
176
1
290
0
176
1
290
0
176
1
290
0
176
1
290
0
176
1
290
0
176
1
290
0
176
1
290
0
176
1
 90
50
176
1
 40
0.0
176
1
 40
1.0
176
1
 90
0
176
1
 62
18
420
0
176
1
 90
50
176
1
 90
3
176
1
 62
5
420
255
176
1
290
0
176
1
 90
50
176
1
 90
50
176
1
 90
50
176
1
290
0
176
1
 90
50
176
1
 62
256
176
0
 40
1.0
176
0
 90
2
176
1
  1
strokes_ogs.tif
176
1
290
0
176
1
 40
1.0
176
1
 40
1.0
176
1
  0
VISUALSTYLE
  5
5B
102
{ACAD_REACTORS
330
16
102
}
330
16
100
AcDbVisualStyle
  2
Basic
 70
7
177
3
291
1
 70
58
 90
2
176
1
 90
2
176
1
 90
0
176
1
 90
1
176
1
 40
0.6
176
1
 40
30.0
176
1
 62
7
420
16777215
176
1
 90
1
176
1
 90
4
176
1
 62
7
176
1
 62
257
176
1
 90
1
176
1
 90
1
176
1
 40
1.0
176
1
 90
8
176
1
 62
7
176
1
 40
1.0
176
1
 90
1
176
1
 90
6
176
1
 90
2
176
1
 62
7
176
1
 90
5
176
1
 90
0
176
1
 90
0
176
1
290
0
176
1
 90
1
176
1
 40
0.0
176
1
 90
0
176
1
290
0
176
1
290
1
176
1
290
1
176
1
290
0
176
1
290
0
176
1
290
0
176
1
290
0
176
1
290
0
176
1
290
0
176
1
 90
50
176
1
 40
0.0
176
1
 40
1.0
176
1
 90
0
176
1
 62
18
420
0
176
1
 90
50
176
1
 90
3
176
1
 62
5
420
255
176
1
290
0
176
1
 90
50
176
1
 90
50
176
1
 90
50
176
1
290
0
176
1
 90
50
176
1
 62
256
176
0
 40
1.0
176
0
 90
2
176
1
  1
strokes_ogs.tif
176
1
290
0
176
1
 40
1.0
176
1
 40
1.0
176
1
  0
VISUALSTYLE
  5
5C
102
{ACAD_REACTORS
330
16
102
}
330
16
100
AcDbVisualStyle
  2
Brighten
 70
12
177
3
291
1
 70
58
 90
2
176
1
 90
2
176
1
 90
0
176
1
 90
2
176
1
 40
0.6
176
1
 40
30.0
176
1
 62
7
420
16777215
176
1
 90
1
176
1
 90
4
176
1
 62
7
176
1
 62
257
176
1
 90
1
176
1
 90
1
176
1
 40
1.0
176
1
 90
8
176
1
 62
7
176
1
 40
1.0
176
1
 90
1
176
1
 90
6
176
1
 90
2
176
1
 62
7
176
1
 90
5
176
1
 90
0
176
1
 90
0
176
1
290
0
176
1
 90
1
176
1
 40
0.0
176
1
 90
0
176
1
290
0
176
1
290
1
176
1
290
1
176
1
290
0
176
1
290
0
176
1
290
0
176
1
290
0
176
1
290
0
176
1
290
0
176
1
 90
50
176
1
 40
0.0
176
1
 40
1.0
176
1
 90
0
176
1
 62
18
420
0
176
1
 90
50
176
1
 90
3
176
1
 62
5
420
255
176
1
290
0
176
1
 90
50
176
1
 90
50
176
1
 90
50
176
1
290
0
176
1
 90
50
176
1
 62
256
176
0
 40
1.0
176
0
 90
2
176
1
  1
strokes_ogs.tif
176
1
290
0
176
1
 40
1.0
176
1
 40
1.0
176
1
  0
VISUALSTYLE
  5
5D
102
{ACAD_REACTORS
330
16
102
}
330
16
100
AcDbVisualStyle
  2
ColorChange
 70
16
177
3
291
1
 70
58
 90
2
176
1
 90
2
176
1
 90
0
176
1
 90
2
176
1
 40
0.6
176
1
 40
30.0
176
1
 62
7
420
16777215
176
1
 90
1
176
1
 90
4
176
1
 62
7
176
1
 62
257
176
1
 90
1
176
1
 90
1
176
1
 40
1.0
176
1
 90
8
176
1
 62
7
176
1
 40
1.0
176
1
 90
1
176
1
 90
6
176
1
 90
2
176
1
 62
7
176
1
 90
5
176
1
 90
0
176
1
 90
0
176
1
290
0
176
1
 90
1
176
1
 40
0.0
176
1
 90
0
176
1
290
0
176
1
290
1
176
1
290
1
176
1
290
0
176
1
290
0
176
1
290
0
176
1
290
0
176
1
290
0
176
1
290
0
176
1
 90
50
176
1
 40
0.0
176
1
 40
1.0
176
1
 90
0
176
1
 62
18
420
0
176
1
 90
50
176
1
 90
3
176
1
 62
5
420
255
176
1
290
0
176
1
 90
50
176
1
 90
50
176
1
 90
50
176
1
290
0
176
1
 90
50
176
1
 62
256
176
0
 40
1.0
176
0
 90
2
176
1
  1
strokes_ogs.tif
176
1
290
0
176
1
 40
1.0
176
1
 40
1.0
176
1
  0
VISUALSTYLE
  5
5E
102
{ACAD_REACTORS
330
16
102
}
330
16
100
AcDbVisualStyle
  2
Conceptual
 70
9
177
3
291
0
 70
58
 90
2
176
1
 90
2
176
1
 90
0
176
1
 90
3
176
1
 40
0.6
176
1
 40
30.0
176
1
 62
7
420
16777215
176
1
 90
1
176
1
 90
4
176
1
 62
7
176
1
 62
257
176
1
 90
1
176
1
 90
1
176
1
 40
1.0
176
1
 90
8
176
1
 62
7
176
1
 40
1.0
176
1
 90
1
176
1
 90
6
176
1
 90
2
176
1
 62
7
176
1
 90
5
176
1
 90
0
176
1
 90
0
176
1
290
0
176
1
 90
1
176
1
 40
0.0
176
1
 90
0
176
1
290
0
176
1
290
1
176
1
290
1
176
1
290
0
176
1
290
0
176
1
290
0
176
1
290
0
176
1
290
0
176
1
290
0
176
1
 90
50
176
1
 40
0.0
176
1
 40
1.0
176
1
 90
0
176
1
 62
18
420
0
176
1
 90
50
176
1
 90
3
176
1
 62
5
420
255
176
1
290
0
176
1
 90
50
176
1
 90
50
176
1
 90
50
176
1
290
0
176
1
 90
50
176
1
 62
256
176
0
 40
1.0
176
0
 90
2
176
1
  1
strokes_ogs.tif
176
1
290
0
176
1
 40
1.0
176
1
 40
1.0
176
1
  0
VISUALSTYLE
  5
5F
102
{ACAD_REACTORS
330
16
102
}
330
16
100
AcDbVisualStyle
  2
Dim
 70
11
177
3
291
1
 70
58
 90
2
176
1
 90
2
176
1
 90
0
176
1
 90
2
176
1
 40
0.6
176
1
 40
30.0
176
1
 62
7
420
16777215
176
1
 90
1
176
1
 90
4
176
1
 62
7
176
1
 62
257
176
1
 90
1
176
1
 90
1
176
1
 40
1.0
176
1
 90
8
176
1
 62
7
176
1
 40
1.0
176
1
 90
1
176
1
 90
6
176
1
 90
2
176
1
 62
7
176
1
 90
5
176
1
 90
0
176
1
 90
0
176
1
290
0
176
1
 90
1
176
1
 40
0.0
176
1
 90
0
176
1
290
0
176
1
290
1
176
1
290
1
176
1
290
0
176
1
290
0
176
1
290
0
176
1
290
0
176
1
290
0
176
1
290
0
176
1
 90
50
176
1
 40
0.0
176
1
 40
1.0
176
1
 90
0
176
1
 62
18
420
0
176
1
 90
50
176
1
 90
3
176
1
 62
5
420
255
176
1
290
0
176
1
 90
50
176
1
 90
50
176
1
 90
50
176
1
290
0
176
1
 90
50
176
1
 62
256
176
0
 40
1.0
176
0
 90
2
176
1
  1
strokes_ogs.tif
176
1
290
0
176
1
 40
1.0
176
1
 40
1.0
176
1
  0
VISUALSTYLE
  5
60
102
{ACAD_REACTORS
330
16
102
}
330
16
100
AcDbVisualStyle
  2
EdgeColorOff
 70
22
177
3
291
1
 70
58
 90
2
176
1
 90
2
176
1
 90
0
176
1
 90
2
176
1
 40
0.6
176
1
 40
30.0
176
1
 62
7
420
16777215
176
1
 90
1
176
1
 90
4
176
1
 62
7
176
1
 62
257
176
1
 90
1
176
1
 90
1
176
1
 40
1.0
176
1
 90
8
176
1
 62
7
176
1
 40
1.0
176
1
 90
1
176
1
 90
6
176
1
 90
2
176
1
 62
7
176
1
 90
5
176
1
 90
0
176
1
 90
0
176
1
290
0
176
1
 90
1
176
1
 40
0.0
176
1
 90
0
176
1
290
0
176
1
290
1
176
1
290
1
176
1
290
0
176
1
290
0
176
1
290
0
176
1
290
0
176
1
290
0
176
1
290
0
176
1
 90
50
176
1
 40
0.0
176
1
 40
1.0
176
1
 90
0
176
1
 62
18
420
0
176
1
 90
50
176
1
 90
3
176
1
 62
5
420
255
176
1
290
0
176
1
 90
50
176
1
 90
50
176
1
 90
50
176
1
290
0
176
1
 90
50
176
1
 62
256
176
0
 40
1.0
176
0
 90
2
176
1
  1
strokes_ogs.tif
176
1
290
0
176
1
 40
1.0
176
1
 40
1.0
176
1
  0
VISUALSTYLE
  5
61
102
{ACAD_REACTORS
330
16
102
}
330
16
100
AcDbVisualStyle
  2
Facepattern
 70
15
177
3
291
1
 70
58
 90
2
176
1
 90
2
176
1
 90
0
176
1
 90
2
176
1
 40
0.6
176
1
 40
30.0
176
1
 62
7
420
16777215
176
1
 90
1
176
1
 90
4
176
1
 62
7
176
1
 62
257
176
1
 90
1
176
1
 90
1
176
1
 40
1.0
176
1
 90
8
176
1
 62
7
176
1
 40
1.0
176
1
 90
1
176
1
 90
6
176
1
 90
2
176
1
 62
7
176
1
 90
5
176
1
 90
0
176
1
 90
0
176
1
290
0
176
1
 90
1
176
1
 40
0.0
176
1
 90
0
176
1
290
0
176
1
290
1
176
1
290
1
176
1
290
0
176
1
290
0
176
1
290
0
176
1
290
0
176
1
290
0
176
1
290
0
176
1
 90
50
176
1
 40
0.0
176
1
 40
1.0
176
1
 90
0
176
1
 62
18
420
0
176
1
 90
50
176
1
 90
3
176
1
 62
5
420
255
176
1
290
0
176
1
 90
50
176
1
 90
50
176
1
 90
50
176
1
290
0
176
1
 90
50
176
1
 62
256
176
0
 40
1.0
176
0
 90
2
176
1
  1
strokes_ogs.tif
176
1
290
0
176
1
 40
1.0
176
1
 40
1.0
176
1
  0
VISUALSTYLE
  5
62
102
{ACAD_REACTORS
330
16
102
}
330
16
100
AcDbVisualStyle
  2
Flat
 70
0
177
3
291
1
 70
58
 90
2
176
1
 90
2
176
1
 90
0
176
1
 90
2
176
1
 40
0.6
176
1
 40
30.0
176
1
 62
7
420
16777215
176
1
 90
1
176
1
 90
4
176
1
 62
7
176
1
 62
257
176
1
 90
1
176
1
 90
1
176
1
 40
1.0
176
1
 90
8
176
1
 62
7
176
1
 40
1.0
176
1
 90
1
176
1
 90
6
176
1
 90
2
176
1
 62
7
176
1
 90
5
176
1
 90
0
176
1
 90
0
176
1
290
0
176
1
 90
1
176
1
 40
0.0
176
1
 90
0
176
1
290
0
176
1
290
1
176
1
290
1
176
1
290
0
176
1
290
0
176
1
290
0
176
1
290
0
176
1
290
0
176
1
290
0
176
1
 90
50
176
1
 40
0.0
176
1
 40
1.0
176
1
 90
0
176
1
 62
18
420
0
176
1
 90
50
176
1
 90
3
176
1
 62
5
420
255
176
1
290
0
176
1
 90
50
176
1
 90
50
176
1
 90
50
176
1
290
0
176
1
 90
50
176
1
 62
256
176
0
 40
1.0
176
0
 90
2
176
1
  1
strokes_ogs.tif
176
1
290
0
176
1
 40
1.0
176
1
 40
1.0
176
1
  0
VISUALSTYLE
  5
63
102
{ACAD_REACTORS
330
16
102
}
330
16
100
AcDbVisualStyle
  2
FlatWithEdges
 70
1
177
3
291
1
 70
58
 90
2
176
1
 90
2
176
1
 90
0
176
1
 90
2
176
1
 40
0.6
176
1
 40
30.0
176
1
 62
7
420
16777215
176
1
 90
1
176
1
 90
4
176
1
 62
7
176
1
 62
257
176
1
 90
1
176
1
 90
1
176
1
 40
1.0
176
1
 90
8
176
1
 62
7
176
1
 40
1.0
176
1
 90
1
176
1
 90
6
176
1
 90
2
176
1
 62
7
176
1
 90
5
176
1
 90
0
176
1
 90
0
176
1
290
0
176
1
 90
1
176
1
 40
0.0
176
1
 90
0
176
1
290
0
176
1
290
1
176
1
290
1
176
1
290
0
176
1
290
0
176
1
290
0
176
1
290
0
176
1
290
0
176
1
290
0
176
1
 90
50
176
1
 40
0.0
176
1
 40
1.0
176
1
 90
0
176
1
 62
18
420
0
176
1
 90
50
176
1
 90
3
176
1
 62
5
420
255
176
1
290
0
176
1
 90
50
176
1
 90
50
176
1
 90
50
176
1
290
0
176
1
 90
50
176
1
 62
256
176
0
 40
1.0
176
0
 90
2
176
1
  1
strokes_ogs.tif
176
1
290
0
176
1
 40
1.0
176
1
 40
1.0
176
1
  0
VISUALSTYLE
  5
64
102
{ACAD_REACTORS
330
16
102
}
330
16
100
AcDbVisualStyle
  2
Gouraud
 70
2
177
3
291
1
 70
58
 90
2
176
1
 90
2
176
1
 90
0
176
1
 90
2
176
1
 40
0.6
176
1
 40
30.0
176
1
 62
7
420
16777215
176
1
 90
1
176
1
 90
4
176
1
 62
7
176
1
 62
257
176
1
 90
1
176
1
 90
1
176
1
 40
1.0
176
1
 90
8
176
1
 62
7
176
1
 40
1.0
176
1
 90
1
176
1
 90
6
176
1
 90
2
176
1
 62
7
176
1
 90
5
176
1
 90
0
176
1
 90
0
176
1
290
0
176
1
 90
1
176
1
 40
0.0
176
1
 90
0
176
1
290
0
176
1
290
1
176
1
290
1
176
1
290
0
176
1
290
0
176
1
290
0
176
1
290
0
176
1
290
0
176
1
290
0
176
1
 90
50
176
1
 40
0.0
176
1
 40
1.0
176
1
 90
0
176
1
 62
18
420
0
176
1
 90
50
176
1
 90
3
176
1
 62
5
420
255
176
1
290
0
176
1
 90
50
176
1
 90
50
176
1
 90
50
176
1
290
0
176
1
 90
50
176
1
 62
256
176
0
 40
1.0
176
0
 90
2
176
1
  1
strokes_ogs.tif
176
1
290
0
176
1
 40
1.0
176
1
 40
1.0
176
1
  0
VISUALSTYLE
  5
65
102
{ACAD_REACTORS
330
16
102
}
330
16
100
AcDbVisualStyle
  2
GouraudWithEdges
 70
3
177
3
291
1
 70
58
 90
2
176
1
 90
2
176
1
 90
0
176
1
 90
2
176
1
 40
0.6
176
1
 40
30.0
176
1
 62
7
420
16777215
176
1
 90
1
176
1
 90
4
176
1
 62
7
176
1
 62
257
176
1
 90
1
176
1
 90
1
176
1
 40
1.0
176
1
 90
8
176
1
 62
7
176
1
 40
1.0
176
1
 90
1
176
1
 90
6
176
1
 90
2
176
1
 62
7
176
1
 90
5
176
1
 90
0
176
1
 90
0
176
1
290
0
176
1
 90
1
176
1
 40
0.0
176
1
 90
0
176
1
290
0
176
1
290
1
176
1
290
1
176
1
290
0
176
1
290
0
176
1
290
0
176
1
290
0
176
1
290
0
176
1
290
0
176
1
 90
50
176
1
 40
0.0
176
1
 40
1.0
176
1
 90
0
176
1
 62
18
420
0
176
1
 90
50
176
1
 90
3
176
1
 62
5
420
255
176
1
290
0
176
1
 90
50
176
1
 90
50
176
1
 90
50
176
1
290
0
176
1
 90
50
176
1
 62
256
176
0
 40
1.0
176
0
 90
2
176
1
  1
strokes_ogs.tif
176
1
290
0
176
1
 40
1.0
176
1
 40
1.0
176
1
  0
VISUALSTYLE
  5
66
102
{ACAD_REACTORS
330
16
102
}
330
16
100
AcDbVisualStyle
  2
Hidden
 70
6
177
3
291
0
 70
58
 90
2
176
1
 90
2
176
1
 90
0
176
1
 90
1
176
1
 40
0.6
176
1
 40
30.0
176
1
 62
7
420
16777215
176
1
 90
1
176
1
 90
4
176
1
 62
7
176
1
 62
257
176
1
 90
1
176
1
 90
1
176
1
 40
1.0
176
1
 90
8
176
1
 62
7
176
1
 40
1.0
176
1
 90
1
176
1
 90
6
176
1
 90
2
176
1
 62
7
176
1
 90
5
176
1
 90
0
176
1
 90
0
176
1
290
0
176
1
 90
1
176
1
 40
0.0
176
1
 90
0
176
1
290
0
176
1
290
1
176
1
290
1
176
1
290
0
176
1
290
0
176
1
290
0
176
1
290
0
176
1
290
0
176
1
290
0
176
1
 90
50
176
1
 40
0.0
176
1
 40
1.0
176
1
 90
0
176
1
 62
18
420
0
176
1
 90
50
176
1
 90
3
176
1
 62
5
420
255
176
1
290
0
176
1
 90
50
176
1
 90
50
176
1
 90
50
176
1
290
0
176
1
 90
50
176
1
 62
256
176
0
 40
1.0
176
0
 90
2
176
1
  1
strokes_ogs.tif
176
1
290
0
176
1
 40
1.0
176
1
 40
1.0
176
1
  0
VISUALSTYLE
  5
67
102
{ACAD_REACTORS
330
16
102
}
330
16
100
AcDbVisualStyle
  2
JitterOff
 70
20
177
3
291
1
 70
58
 90
2
176
1
 90
2
176
1
 90
0
176
1
 90
2
176
1
 40
0.6
176
1
 40
30.0
176
1
 62
7
420
16777215
176
1
 90
1
176
1
 90
4
176
1
 62
7
176
1
 62
257
176
1
 90
1
176
1
 90
1
176
1
 40
1.0
176
1
 90
8
176
1
 62
7
176
1
 40
1.0
176
1
 90
1
176
1
 90
6
176
1
 90
2
176
1
 62
7
176
1
 90
5
176
1
 90
0
176
1
 90
0
176
1
290
0
176
1
 90
1
176
1
 40
0.0
176
1
 90
0
176
1
290
0
176
1
290
1
176
1
290
1
176
1
290
0
176
1
290
0
176
1
290
0
176
1
290
0
176
1
290
0
176
1
290
0
176
1
 90
50
176
1
 40
0.0
176
1
 40
1.0
176
1
 90
0
176
1
 62
18
420
0
176
1
 90
50
176
1
 90
3
176
1
 62
5
420
255
176
1
290
0
176
1
 90
50
176
1
 90
50
176
1
 90
50
176
1
290
0
176
1
 90
50
176
1
 62
256
176
0
 40
1.0
176
0
 90
2
176
1
  1
strokes_ogs.tif
176
1
290
0
176
1
 40
1.0
176
1
 40
1.0
176
1
  0
VISUALSTYLE
  5
68
102
{ACAD_REACTORS
330
16
102
}
330
16
100
AcDbVisualStyle
  2
Linepattern
 70
14
177
3
291
1
 70
58
 90
2
176
1
 90
2
176
1
 90
0
176
1
 90
2
176
1
 40
0.6
176
1
 40
30.0
176
1
 62
7
420
16777215
176
1
 90
1
176
1
 90
4
176
1
 62
7
176
1
 62
257
176
1
 90
1
176
1
 90
1
176
1
 40
1.0
176
1
 90
8
176
1
 62
7
176
1
 40
1.0
176
1
 90
1
176
1
 90
6
176
1
 90
2
176
1
 62
7
176
1
 90
5
176
1
 90
0
176
1
 90
0
176
1
290
0
176
1
 90
1
176
1
 40
0.0
176
1
 90
0
176
1
290
0
176
1
290
1
176
1
290
1
176
1
290
0
176
1
290
0
176
1
290
0
176
1
290
0
176
1
290
0
176
1
290
0
176
1
 90
50
176
1
 40
0.0
176
1
 40
1.0
176
1
 90
0
176
1
 62
18
420
0
176
1
 90
50
176
1
 90
3
176
1
 62
5
420
255
176
1
290
0
176
1
 90
50
176
1
 90
50
176
1
 90
50
176
1
290
0
176
1
 90
50
176
1
 62
256
176
0
 40
1.0
176
0
 90
2
176
1
  1
strokes_ogs.tif
176
1
290
0
176
1
 40
1.0
176
1
 40
1.0
176
1
  0
VISUALSTYLE
  5
69
102
{ACAD_REACTORS
330
16
102
}
330
16
100
AcDbVisualStyle
  2
Modeling
 70
10
177
3
291
0
 70
58
 90
2
176
1
 90
2
176
1
 90
0
176
1
 90
2
176
1
 40
0.6
176
1
 40
30.0
176
1
 62
7
420
16777215
176
1
 90
1
176
1
 90
4
176
1
 62
7
176
1
 62
257
176
1
 90
1
176
1
 90
1
176
1
 40
1.0
176
1
 90
8
176
1
 62
7
176
1
 40
1.0
176
1
 90
1
176
1
 90
6
176
1
 90
2
176
1
 62
7
176
1
 90
5
176
1
 90
0
176
1
 90
0
176
1
290
0
176
1
 90
1
176
1
 40
0.0
176
1
 90
0
176
1
290
0
176
1
290
1
176
1
290
1
176
1
290
0
176
1
290
0
176
1
290
0
176
1
290
0
176
1
290
0
176
1
290
0
176
1
 90
50
176
1
 40
0.0
176
1
 40
1.0
176
1
 90
0
176
1
 62
18
420
0
176
1
 90
50
176
1
 90
3
176
1
 62
5
420
255
176
1
290
0
176
1
 90
50
176
1
 90
50
176
1
 90
50
176
1
290
0
176
1
 90
50
176
1
 62
256
176
0
 40
1.0
176
0
 90
2
176
1
  1
strokes_ogs.tif
176
1
290
0
176
1
 40
1.0
176
1
 40
1.0
176
1
  0
VISUALSTYLE
  5
6A
102
{ACAD_REACTORS
330
16
102
}
330
16
100
AcDbVisualStyle
  2
OverhangOff
 70
21
177
3
291
1
 70
58
 90
2
176
1
 90
2
176
1
 90
0
176
1
 90
2
176
1
 40
0.6
176
1
 40
30.0
176
1
 62
7
420
16777215
176
1
 90
1
176
1
 90
4
176
1
 62
7
176
1
 62
257
176
1
 90
1
176
1
 90
1
176
1
 40
1.0
176
1
 90
8
176
1
 62
7
176
1
 40
1.0
176
1
 90
1
176
1
 90
6
176
1
 90
2
176
1
 62
7
176
1
 90
5
176
1
 90
0
176
1
 90
0
176
1
290
0
176
1
 90
1
176
1
 40
0.0
176
1
 90
0
176
1
290
0
176
1
290
1
176
1
290
1
176
1
290
0
176
1
290
0
176
1
290
0
176
1
290
0
176
1
290
0
176
1
290
0
176
1
 90
50
176
1
 40
0.0
176
1
 40
1.0
176
1
 90
0
176
1
 62
18
420
0
176
1
 90
50
176
1
 90
3
176
1
 62
5
420
255
176
1
290
0
176
1
 90
50
176
1
 90
50
176
1
 90
50
176
1
290
0
176
1
 90
50
176
1
 62
256
176
0
 40
1.0
176
0
 90
2
176
1
  1
strokes_ogs.tif
176
1
290
0
176
1
 40
1.0
176
1
 40
1.0
176
1
  0
VISUALSTYLE
  5
6B
102
{ACAD_REACTORS
330
16
102
}
330
16
100
AcDbVisualStyle
  2
Realistic
 70
8
177
3
291
0
 70
58
 90
2
176
1
 90
2
176
1
 90
0
176
1
 90
2
176
1
 40
0.6
176
1
 40
30.0
176
1
 62
7
420
16777215
176
1
 90
1
176
1
 90
4
176
1
 62
7
176
1
 62
257
176
1
 90
1
176
1
 90
1
176
1
 40
1.0
176
1
 90
8
176
1
 62
7
176
1
 40
1.0
176
1
 90
1
176
1
 90
6
176
1
 90
2
176
1
 62
7
176
1
 90
5
176
1
 90
0
176
1
 90
0
176
1
290
0
176
1
 90
1
176
1
 40
0.0
176
1
 90
0
176
1
290
0
176
1
290
1
176
1
290
1
176
1
290
0
176
1
290
0
176
1
290
0
176
1
290
0
176
1
290
0
176
1
290
0
176
1
 90
50
176
1
 40
0.0
176
1
 40
1.0
176
1
 90
0
176
1
 62
18
420
0
176
1
 90
50
176
1
 90
3
176
1
 62
5
420
255
176
1
290
0
176
1
 90
50
176
1
 90
50
176
1
 90
50
176
1
290
0
176
1
 90
50
176
1
 62
256
176
0
 40
1.0
176
0
 90
2
176
1
  1
strokes_ogs.tif
176
1
290
0
176
1
 40
1.0
176
1
 40
1.0
176
1
  0
VISUALSTYLE
  5
6C
102
{ACAD_REACTORS
330
16
102
}
330
16
100
AcDbVisualStyle
  2
Shaded
 70
27
177
3
291
0
 70
58
 90
2
176
1
 90
2
176
1
 90
0
176
1
 90
2
176
1
 40
0.6
176
1
 40
30.0
176
1
 62
7
420
16777215
176
1
 90
1
176
1
 90
4
176
1
 62
7
176
1
 62
257
176
1
 90
1
176
1
 90
1
176
1
 40
1.0
176
1
 90
8
176
1
 62
7
176
1
 40
1.0
176
1
 90
1
176
1
 90
6
176
1
 90
2
176
1
 62
7
176
1
 90
5
176
1
 90
0
176
1
 90
0
176
1
290
0
176
1
 90
1
176
1
 40
0.0
176
1
 90
0
176
1
290
0
176
1
290
1
176
1
290
1
176
1
290
0
176
1
290
0
176
1
290
0
176
1
290
0
176
1
290
0
176
1
290
0
176
1
 90
50
176
1
 40
0.0
176
1
 40
1.0
176
1
 90
0
176
1
 62
18
420
0
176
1
 90
50
176
1
 90
3
176
1
 62
5
420
255
176
1
290
0
176
1
 90
50
176
1
 90
50
176
1
 90
50
176
1
290
0
176
1
 90
50
176
1
 62
256
176
0
 40
1.0
176
0
 90
2
176
1
  1
strokes_ogs.tif
176
1
290
0
176
1
 40
1.0
176
1
 40
1.0
176
1
  0
VISUALSTYLE
  5
6D
102
{ACAD_REACTORS
330
16
102
}
330
16
100
AcDbVisualStyle
  2
Shaded with edges
 70
26
177
3
291
0
 70
58
 90
2
176
1
 90
2
176
1
 90
0
176
1
 90
2
176
1
 40
0.6
176
1
 40
30.0
176
1
 62
7
420
16777215
176
1
 90
1
176
1
 90
4
176
1
 62
7
176
1
 62
257
176
1
 90
1
176
1
 90
1
176
1
 40
1.0
176
1
 90
8
176
1
 62
7
176
1
 40
1.0
176
1
 90
1
176
1
 90
6
176
1
 90
2
176
1
 62
7
176
1
 90
5
176
1
 90
0
176
1
 90
0
176
1
290
0
176
1
 90
1
176
1
 40
0.0
176
1
 90
0
176
1
290
0
176
1
290
1
176
1
290
1
176
1
290
0
176
1
290
0
176
1
290
0
176
1
290
0
176
1
290
0
176
1
290
0
176
1
 90
50
176
1
 40
0.0
176
1
 40
1.0
176
1
 90
0
176
1
 62
18
420
0
176
1
 90
50
176
1
 90
3
176
1
 62
5
420
255
176
1
290
0
176
1
 90
50
176
1
 90
50
176
1
 90
50
176
1
290
0
176
1
 90
50
176
1
 62
256
176
0
 40
1.0
176
0
 90
2
176
1
  1
strokes_ogs.tif
176
1
290
0
176
1
 40
1.0
176
1
 40
1.0
176
1
  0
VISUALSTYLE
  5
6E
102
{ACAD_REACTORS
330
16
102
}
330
16
100
AcDbVisualStyle
  2
Shades of Gray
 70
23
177
3
291
0
 70
58
 90
2
176
1
 90
2
176
1
 90
0
176
1
 90
2
176
1
 40
0.6
176
1
 40
30.0
176
1
 62
7
420
16777215
176
1
 90
1
176
1
 90
4
176
1
 62
7
176
1
 62
257
176
1
 90
1
176
1
 90
1
176
1
 40
1.0
176
1
 90
8
176
1
 62
7
176
1
 40
1.0
176
1
 90
1
176
1
 90
6
176
1
 90
2
176
1
 62
7
176
1
 90
5
176
1
 90
0
176
1
 90
0
176
1
290
0
176
1
 90
1
176
1
 40
0.0
176
1
 90
0
176
1
290
0
176
1
290
1
176
1
290
1
176
1
290
0
176
1
290
0
176
1
290
0
176
1
290
0
176
1
290
0
176
1
290
0
176
1
 90
50
176
1
 40
0.0
176
1
 40
1.0
176
1
 90
0
176
1
 62
18
420
0
176
1
 90
50
176
1
 90
3
176
1
 62
5
420
255
176
1
290
0
176
1
 90
50
176
1
 90
50
176
1
 90
50
176
1
290
0
176
1
 90
50
176
1
 62
256
176
0
 40
1.0
176
0
 90
2
176
1
  1
strokes_ogs.tif
176
1
290
0
176
1
 40
1.0
176
1
 40
1.0
176
1
  0
VISUALSTYLE
  5
6F
102
{ACAD_REACTORS
330
16
102
}
330
16
100
AcDbVisualStyle
  2
Sketchy
 70
24
177
3
291
0
 70
58
 90
2
176
1
 90
2
176
1
 90
0
176
1
 90
1
176
1
 40
0.6
176
1
 40
30.0
176
1
 62
7
420
16777215
176
1
 90
1
176
1
 90
4
176
1
 62
7
176
1
 62
257
176
1
 90
1
176
1
 90
1
176
1
 40
1.0
176
1
 90
8
176
1
 62
7
176
1
 40
1.0
176
1
 90
1
176
1
 90
6
176
1
 90
2
176
1
 62
7
176
1
 90
5
176
1
 90
0
176
1
 90
0
176
1
290
0
176
1
 90
1
176
1
 40
0.0
176
1
 90
0
176
1
290
0
176
1
290
1
176
1
290
1
176
1
290
0
176
1
290
0
176
1
290
0
176
1
290
0
176
1
290
0
176
1
290
0
176
1
 90
50
176
1
 40
0.0
176
1
 40
1.0
176
1
 90
0
176
1
 62
18
420
0
176
1
 90
50
176
1
 90
3
176
1
 62
5
420
255
176
1
290
0
176
1
 90
50
176
1
 90
50
176
1
 90
50
176
1
290
0
176
1
 90
50
176
1
 62
256
176
0
 40
1.0
176
0
 90
2
176
1
  1
strokes_ogs.tif
176
1
290
0
176
1
 40
1.0
176
1
 40
1.0
176
1
  0
VISUALSTYLE
  5
70
102
{ACAD_REACTORS
330
16
102
}
330
16
100
AcDbVisualStyle
  2
Thicken
 70
13
177
3
291
1
 70
58
 90
2
176
1
 90
2
176
1
 90
0
176
1
 90
2
176
1
 40
0.6
176
1
 40
30.0
176
1
 62
7
420
16777215
176
1
 90
1
176
1
 90
4
176
1
 62
7
176
1
 62
257
176
1
 90
1
176
1
 90
1
176
1
 40
1.0
176
1
 90
8
176
1
 62
7
176
1
 40
1.0
176
1
 90
1
176
1
 90
6
176
1
 90
2
176
1
 62
7
176
1
 90
5
176
1
 90
0
176
1
 90
0
176
1
290
0
176
1
 90
1
176
1
 40
0.0
176
1
 90
0
176
1
290
0
176
1
290
1
176
1
290
1
176
1
290
0
176
1
290
0
176
1
290
0
176
1
290
0
176
1
290
0
176
1
290
0
176
1
 90
50
176
1
 40
0.0
176
1
 40
1.0
176
1
 90
0
176
1
 62
18
420
0
176
1
 90
50
176
1
 90
3
176
1
 62
5
420
255
176
1
290
0
176
1
 90
50
176
1
 90
50
176
1
 90
50
176
1
290
0
176
1
 90
50
176
1
 62
256
176
0
 40
1.0
176
0
 90
2
176
1
  1
strokes_ogs.tif
176
1
290
0
176
1
 40
1.0
176
1
 40
1.0
176
1
  0
VISUALSTYLE
  5
71
102
{ACAD_REACTORS
330
16
102
}
330
16
100
AcDbVisualStyle
  2
Wireframe
 70
5
177
3
291
0
 70
58
 90
2
176
1
 90
2
176
1
 90
0
176
1
 90
0
176
1
 40
0.6
176
1
 40
30.0
176
1
 62
7
420
16777215
176
1
 90
1
176
1
 90
4
176
1
 62
7
176
1
 62
257
176
1
 90
1
176
1
 90
1
176
1
 40
1.0
176
1
 90
8
176
1
 62
7
176
1
 40
1.0
176
1
 90
1
176
1
 90
6
176
1
 90
2
176
1
 62
7
176
1
 90
5
176
1
 90
0
176
1
 90
0
176
1
290
0
176
1
 90
1
176
1
 40
0.0
176
1
 90
0
176
1
290
0
176
1
290
1
176
1
290
1
176
1
290
0
176
1
290
0
176
1
290
0
176
1
290
0
176
1
290
0
176
1
290
0
176
1
 90
50
176
1
 40
0.0
176
1
 40
1.0
176
1
 90
0
176
1
 62
18
420
0
176
1
 90
50
176
1
 90
3
176
1
 62
5
420
255
176
1
290
0
176
1
 90
50
176
1
 90
50
176
1
 90
50
176
1
290
0
176
1
 90
50
176
1
 62
256
176
0
 40
1.0
176
0
 90
2
176
1
  1
strokes_ogs.tif
176
1
290
0
176
1
 40
1.0
176
1
 40
1.0
176
1
  0
VISUALSTYLE
  5
72
102
{ACAD_REACTORS
330
16
102
}
330
16
100
AcDbVisualStyle
  2
X-Ray
 70
25
177
3
291
0
 70
58
 90
2
176
1
 90
2
176
1
 90
0
176
1
 90
2
176
1
 40
0.5
176
1
 40
30.0
176
1
 62
7
420
16777215
176
1
 90
1
176
1
 90
4
176
1
 62
7
176
1
 62
257
176
1
 90
1
176
1
 90
1
176
1
 40
1.0
176
1
 90
8
176
1
 62
7
176
1
 40
1.0
176
1
 90
1
176
1
 90
6
176
1
 90
2
176
1
 62
7
176
1
 90
5
176
1
 90
0
176
1
 90
0
176
1
290
0
176
1
 90
1
176
1
 40
0.0
176
1
 90
0
176
1
290
0
176
1
290
1
176
1
290
1
176
1
290
0
176
1
290
0
176
1
290
0
176
1
290
0
176
1
290
0
176
1
290
0
176
1
 90
50
176
1
 40
0.0
176
1
 40
1.0
176
1
 90
0
176
1
 62
18
420
0
176
1
 90
50
176
1
 90
3
176
1
 62
5
420
255
176
1
290
0
176
1
 90
50
176
1
 90
50
176
1
 90
50
176
1
290
0
176
1
 90
50
176
1
 62
256
176
0
 40
1.0
176
0
 90
2
176
1
  1
strokes_ogs.tif
176
1
290
0
176
1
 40
1.0
176
1
 40
1.0
176
1
  0
DICTIONARYVAR
  5
105
330
2D
100
DictionaryVariables
280
0
  1
1.3.4 @ 2026-01-08T03:02:29.418044+00:00
  0
ENDSEC
  0
EOF
